%TF.GenerationSoftware,KiCad,Pcbnew,7.0.1-0*%
%TF.CreationDate,2024-03-21T16:56:52-04:00*%
%TF.ProjectId,pihat,70696861-742e-46b6-9963-61645f706362,rev?*%
%TF.SameCoordinates,Original*%
%TF.FileFunction,Copper,L1,Top*%
%TF.FilePolarity,Positive*%
%FSLAX46Y46*%
G04 Gerber Fmt 4.6, Leading zero omitted, Abs format (unit mm)*
G04 Created by KiCad (PCBNEW 7.0.1-0) date 2024-03-21 16:56:52*
%MOMM*%
%LPD*%
G01*
G04 APERTURE LIST*
G04 Aperture macros list*
%AMRoundRect*
0 Rectangle with rounded corners*
0 $1 Rounding radius*
0 $2 $3 $4 $5 $6 $7 $8 $9 X,Y pos of 4 corners*
0 Add a 4 corners polygon primitive as box body*
4,1,4,$2,$3,$4,$5,$6,$7,$8,$9,$2,$3,0*
0 Add four circle primitives for the rounded corners*
1,1,$1+$1,$2,$3*
1,1,$1+$1,$4,$5*
1,1,$1+$1,$6,$7*
1,1,$1+$1,$8,$9*
0 Add four rect primitives between the rounded corners*
20,1,$1+$1,$2,$3,$4,$5,0*
20,1,$1+$1,$4,$5,$6,$7,0*
20,1,$1+$1,$6,$7,$8,$9,0*
20,1,$1+$1,$8,$9,$2,$3,0*%
G04 Aperture macros list end*
%TA.AperFunction,SMDPad,CuDef*%
%ADD10R,0.800000X0.300000*%
%TD*%
%TA.AperFunction,SMDPad,CuDef*%
%ADD11RoundRect,0.200000X0.200000X0.275000X-0.200000X0.275000X-0.200000X-0.275000X0.200000X-0.275000X0*%
%TD*%
%TA.AperFunction,SMDPad,CuDef*%
%ADD12RoundRect,0.200000X0.275000X-0.200000X0.275000X0.200000X-0.275000X0.200000X-0.275000X-0.200000X0*%
%TD*%
%TA.AperFunction,ComponentPad*%
%ADD13R,1.700000X1.700000*%
%TD*%
%TA.AperFunction,ComponentPad*%
%ADD14O,1.700000X1.700000*%
%TD*%
%TA.AperFunction,SMDPad,CuDef*%
%ADD15R,0.330200X0.304800*%
%TD*%
%TA.AperFunction,SMDPad,CuDef*%
%ADD16R,0.304800X0.330200*%
%TD*%
%TA.AperFunction,SMDPad,CuDef*%
%ADD17RoundRect,0.250000X0.475000X-0.250000X0.475000X0.250000X-0.475000X0.250000X-0.475000X-0.250000X0*%
%TD*%
%TA.AperFunction,SMDPad,CuDef*%
%ADD18RoundRect,0.250000X-0.250000X-0.475000X0.250000X-0.475000X0.250000X0.475000X-0.250000X0.475000X0*%
%TD*%
%TA.AperFunction,SMDPad,CuDef*%
%ADD19RoundRect,0.014000X-0.231000X-0.161000X0.231000X-0.161000X0.231000X0.161000X-0.231000X0.161000X0*%
%TD*%
%TA.AperFunction,SMDPad,CuDef*%
%ADD20RoundRect,0.014000X0.161000X-0.231000X0.161000X0.231000X-0.161000X0.231000X-0.161000X-0.231000X0*%
%TD*%
%TA.AperFunction,SMDPad,CuDef*%
%ADD21RoundRect,0.014000X0.231000X0.161000X-0.231000X0.161000X-0.231000X-0.161000X0.231000X-0.161000X0*%
%TD*%
%TA.AperFunction,SMDPad,CuDef*%
%ADD22RoundRect,0.014000X-0.161000X0.231000X-0.161000X-0.231000X0.161000X-0.231000X0.161000X0.231000X0*%
%TD*%
%TA.AperFunction,SMDPad,CuDef*%
%ADD23R,0.800000X0.200000*%
%TD*%
%TA.AperFunction,SMDPad,CuDef*%
%ADD24R,0.200000X0.800000*%
%TD*%
%TA.AperFunction,SMDPad,CuDef*%
%ADD25R,1.800000X1.800000*%
%TD*%
%TA.AperFunction,SMDPad,CuDef*%
%ADD26RoundRect,0.200000X-0.275000X0.200000X-0.275000X-0.200000X0.275000X-0.200000X0.275000X0.200000X0*%
%TD*%
%TA.AperFunction,SMDPad,CuDef*%
%ADD27RoundRect,0.250000X0.250000X0.475000X-0.250000X0.475000X-0.250000X-0.475000X0.250000X-0.475000X0*%
%TD*%
%TA.AperFunction,ViaPad*%
%ADD28C,0.800000*%
%TD*%
%TA.AperFunction,Conductor*%
%ADD29C,0.150000*%
%TD*%
%TA.AperFunction,Conductor*%
%ADD30C,0.250000*%
%TD*%
G04 APERTURE END LIST*
D10*
%TO.P,U1,1,VCCA*%
%TO.N,+5V*%
X94540000Y-71006400D03*
%TO.P,U1,2,1A*%
%TO.N,Net-(J2-Pin_2)*%
X94540000Y-70506400D03*
%TO.P,U1,3,2A*%
%TO.N,Net-(J3-Pin_2)*%
X94540000Y-70006400D03*
%TO.P,U1,4,GND*%
%TO.N,GND*%
X94540000Y-69506400D03*
%TO.P,U1,5,DIR*%
X91440000Y-69506400D03*
%TO.P,U1,6,2B*%
%TO.N,THR_2*%
X91440000Y-70006400D03*
%TO.P,U1,7,1B*%
%TO.N,THR_1*%
X91440000Y-70506400D03*
%TO.P,U1,8,VCCB*%
%TO.N,+3.3V*%
X91440000Y-71006400D03*
%TD*%
D11*
%TO.P,R2,1*%
%TO.N,+3.3V*%
X73660000Y-111760000D03*
%TO.P,R2,2*%
%TO.N,TEMP_EXT*%
X72010000Y-111760000D03*
%TD*%
D12*
%TO.P,R8,1*%
%TO.N,Net-(IC1-CRX5{slash}CTX5)*%
X66040000Y-63500000D03*
%TO.P,R8,2*%
%TO.N,Net-(J9-Pin_3)*%
X66040000Y-61850000D03*
%TD*%
D13*
%TO.P,J6,1,Pin_1*%
%TO.N,+5V*%
X101600000Y-120396000D03*
D14*
%TO.P,J6,2,Pin_2*%
%TO.N,Net-(J6-Pin_2)*%
X101600000Y-122936000D03*
%TO.P,J6,3,Pin_3*%
%TO.N,GND*%
X101600000Y-125476000D03*
%TD*%
D10*
%TO.P,U5,1,VCCA*%
%TO.N,+5V*%
X94540000Y-92440000D03*
%TO.P,U5,2,1A*%
%TO.N,Net-(J4-Pin_2)*%
X94540000Y-91940000D03*
%TO.P,U5,3,2A*%
%TO.N,Net-(J5-Pin_2)*%
X94540000Y-91440000D03*
%TO.P,U5,4,GND*%
%TO.N,GND*%
X94540000Y-90940000D03*
%TO.P,U5,5,DIR*%
X91440000Y-90940000D03*
%TO.P,U5,6,2B*%
%TO.N,THR_4*%
X91440000Y-91440000D03*
%TO.P,U5,7,1B*%
%TO.N,THR_3*%
X91440000Y-91940000D03*
%TO.P,U5,8,VCCB*%
%TO.N,+3.3V*%
X91440000Y-92440000D03*
%TD*%
D15*
%TO.P,U4,1,SCK_SCL*%
%TO.N,I2C_SCL*%
X74680201Y-96519999D03*
%TO.P,U4,2,CSN*%
%TO.N,+3.3V*%
X74680201Y-97020000D03*
%TO.P,U4,3,DOUT_A6*%
%TO.N,GND*%
X74680201Y-97520000D03*
%TO.P,U4,4,DIN_SDA*%
%TO.N,I2C_SDA*%
X74680201Y-98020001D03*
D16*
%TO.P,U4,5,NC*%
%TO.N,unconnected-(U4-NC-Pad5)*%
X75190100Y-98029899D03*
%TO.P,U4,6,GND*%
%TO.N,GND*%
X75690100Y-98029899D03*
D15*
%TO.P,U4,7,VPP*%
X76199999Y-98020001D03*
%TO.P,U4,8,NC*%
%TO.N,unconnected-(U4-NC-Pad8)*%
X76199999Y-97520000D03*
%TO.P,U4,9,VDD*%
%TO.N,+3.3V*%
X76199999Y-97020000D03*
%TO.P,U4,10,NC*%
%TO.N,unconnected-(U4-NC-Pad10)*%
X76199999Y-96519999D03*
D16*
%TO.P,U4,11,INTN_2*%
%TO.N,GND*%
X75690100Y-96510101D03*
%TO.P,U4,12,INTN_1*%
%TO.N,INT_ACC*%
X75190100Y-96510101D03*
%TD*%
D17*
%TO.P,C1,1*%
%TO.N,+3.3V*%
X78740000Y-97470000D03*
%TO.P,C1,2*%
%TO.N,GND*%
X78740000Y-95570000D03*
%TD*%
D13*
%TO.P,U2,1,GND*%
%TO.N,GND*%
X71120000Y-106680000D03*
D14*
%TO.P,U2,2,DQ*%
%TO.N,TEMP_EXT*%
X73660000Y-106680000D03*
%TO.P,U2,3,V_{DD}*%
%TO.N,+3.3V*%
X76200000Y-106680000D03*
%TD*%
D12*
%TO.P,R9,1*%
%TO.N,Net-(IC1-CRX6{slash}CTX6)*%
X63500000Y-63500000D03*
%TO.P,R9,2*%
%TO.N,Net-(J9-Pin_2)*%
X63500000Y-61850000D03*
%TD*%
D13*
%TO.P,J2,1,Pin_1*%
%TO.N,+5V*%
X101600000Y-73660000D03*
D14*
%TO.P,J2,2,Pin_2*%
%TO.N,Net-(J2-Pin_2)*%
X101600000Y-76200000D03*
%TO.P,J2,3,Pin_3*%
%TO.N,GND*%
X101600000Y-78740000D03*
%TD*%
D12*
%TO.P,R13,1*%
%TO.N,+3.3V*%
X57404000Y-88709000D03*
%TO.P,R13,2*%
%TO.N,I2C_SCL*%
X57404000Y-87059000D03*
%TD*%
D13*
%TO.P,J8,1,Pin_1*%
%TO.N,GND*%
X81280000Y-129540000D03*
D14*
%TO.P,J8,2,Pin_2*%
%TO.N,I2C_SDA*%
X83820000Y-129540000D03*
%TO.P,J8,3,Pin_3*%
%TO.N,I2C_SCL*%
X86360000Y-129540000D03*
%TO.P,J8,4,Pin_4*%
%TO.N,unconnected-(J8-Pin_4-Pad4)*%
X88900000Y-129540000D03*
%TO.P,J8,5,Pin_5*%
%TO.N,unconnected-(J8-Pin_5-Pad5)*%
X91440000Y-129540000D03*
%TO.P,J8,6,Pin_6*%
%TO.N,+5V*%
X93980000Y-129540000D03*
%TD*%
D18*
%TO.P,C14,1*%
%TO.N,+5V*%
X93030000Y-66040000D03*
%TO.P,C14,2*%
%TO.N,GND*%
X94930000Y-66040000D03*
%TD*%
%TO.P,C16,1*%
%TO.N,+5V*%
X93980000Y-88900000D03*
%TO.P,C16,2*%
%TO.N,GND*%
X95880000Y-88900000D03*
%TD*%
D17*
%TO.P,C5,1*%
%TO.N,GND*%
X83820000Y-84770000D03*
%TO.P,C5,2*%
%TO.N,+3.3V*%
X83820000Y-82870000D03*
%TD*%
D13*
%TO.P,J7,1,Pin_1*%
%TO.N,+5V*%
X101600000Y-109728000D03*
D14*
%TO.P,J7,2,Pin_2*%
%TO.N,Net-(J7-Pin_2)*%
X101600000Y-112268000D03*
%TO.P,J7,3,Pin_3*%
%TO.N,GND*%
X101600000Y-114808000D03*
%TD*%
D19*
%TO.P,U6,1,VDDIO*%
%TO.N,+3.3V*%
X74440000Y-86620000D03*
%TO.P,U6,2,SCL/SPC*%
%TO.N,I2C_SCL*%
X74440000Y-87120000D03*
%TO.P,U6,3,SDA/SDI*%
%TO.N,I2C_SDA*%
X74440000Y-87620000D03*
%TO.P,U6,4,SA0/SDO*%
%TO.N,unconnected-(U6-SA0{slash}SDO-Pad4)*%
X74440000Y-88120000D03*
%TO.P,U6,5,CS*%
%TO.N,+3.3V*%
X74440000Y-88620000D03*
D20*
%TO.P,U6,6,INT*%
%TO.N,INT_GYR*%
X75200000Y-88880000D03*
%TO.P,U6,7,RESV7*%
%TO.N,GND*%
X75700000Y-88880000D03*
%TO.P,U6,8,FSYNC*%
X76200000Y-88880000D03*
D21*
%TO.P,U6,9,RESV9_1215*%
X76960000Y-88620000D03*
%TO.P,U6,10,RESV9_1215__1*%
X76960000Y-88120000D03*
%TO.P,U6,11,RESV9_1215__2*%
X76960000Y-87620000D03*
%TO.P,U6,12,RESV9_1215__3*%
X76960000Y-87120000D03*
%TO.P,U6,13,GND*%
X76960000Y-86620000D03*
D22*
%TO.P,U6,14,REGOUT*%
%TO.N,Net-(U6-REGOUT)*%
X76200000Y-86360000D03*
%TO.P,U6,15,RESV9_1215__4*%
%TO.N,GND*%
X75700000Y-86360000D03*
%TO.P,U6,16,VDD*%
%TO.N,+3.3V*%
X75200000Y-86360000D03*
%TD*%
D17*
%TO.P,C10,1*%
%TO.N,Net-(IC1-VREGD)*%
X77216000Y-70612000D03*
%TO.P,C10,2*%
%TO.N,GND*%
X77216000Y-68712000D03*
%TD*%
%TO.P,C9,1*%
%TO.N,Net-(IC1-VREGD)*%
X74676000Y-70612000D03*
%TO.P,C9,2*%
%TO.N,GND*%
X74676000Y-68712000D03*
%TD*%
D23*
%TO.P,IC1,1,VDD*%
%TO.N,+3.3V*%
X69826000Y-72936000D03*
%TO.P,IC1,2,VREGD*%
%TO.N,Net-(IC1-VREGD)*%
X69826000Y-72536000D03*
%TO.P,IC1,3,VSS*%
%TO.N,GND*%
X69826000Y-72136000D03*
%TO.P,IC1,4,VREGA*%
%TO.N,Net-(IC1-VREGA)*%
X69826000Y-71736000D03*
%TO.P,IC1,5,CRX0/CTX0*%
%TO.N,Net-(IC1-CRX0{slash}CTX0)*%
X69826000Y-71336000D03*
D24*
%TO.P,IC1,6,CRX1/CTX1*%
%TO.N,Net-(IC1-CRX1{slash}CTX1)*%
X69126000Y-70636000D03*
%TO.P,IC1,7,CRX2/CTX2*%
%TO.N,Net-(IC1-CRX2{slash}CTX2)*%
X68726000Y-70636000D03*
%TO.P,IC1,8,CRX3/CTX3*%
%TO.N,Net-(IC1-CRX3{slash}CTX3)*%
X68326000Y-70636000D03*
%TO.P,IC1,9,CRX4/CTX4*%
%TO.N,Net-(IC1-CRX4{slash}CTX4)*%
X67926000Y-70636000D03*
%TO.P,IC1,10,CRX5/CTX5*%
%TO.N,Net-(IC1-CRX5{slash}CTX5)*%
X67526000Y-70636000D03*
D23*
%TO.P,IC1,11,CRX6/CTX6*%
%TO.N,Net-(IC1-CRX6{slash}CTX6)*%
X66826000Y-71336000D03*
%TO.P,IC1,12,CRX7/CTX7*%
%TO.N,Net-(IC1-CRX7{slash}CTX7)*%
X66826000Y-71736000D03*
%TO.P,IC1,13,CTX8*%
%TO.N,unconnected-(IC1-CTX8-Pad13)*%
X66826000Y-72136000D03*
%TO.P,IC1,14,CTX9/GPIO0*%
%TO.N,unconnected-(IC1-CTX9{slash}GPIO0-Pad14)*%
X66826000Y-72536000D03*
%TO.P,IC1,15,CTX10/GPIO3*%
%TO.N,unconnected-(IC1-CTX10{slash}GPIO3-Pad15)*%
X66826000Y-72936000D03*
D24*
%TO.P,IC1,16,CTX11/GPIO4*%
%TO.N,unconnected-(IC1-CTX11{slash}GPIO4-Pad16)*%
X67526000Y-73636000D03*
%TO.P,IC1,17,RDY/GPIO5*%
%TO.N,INT_CAP*%
X67926000Y-73636000D03*
%TO.P,IC1,18,SCL/GPIO2*%
%TO.N,I2C_SCL*%
X68326000Y-73636000D03*
%TO.P,IC1,19,SDA/GPIO1*%
%TO.N,I2C_SDA*%
X68726000Y-73636000D03*
%TO.P,IC1,20,GPIO6/MCLR*%
%TO.N,unconnected-(IC1-GPIO6{slash}MCLR-Pad20)*%
X69126000Y-73636000D03*
D25*
%TO.P,IC1,21,EP*%
%TO.N,unconnected-(IC1-EP-Pad21)*%
X68326000Y-72136000D03*
%TD*%
D17*
%TO.P,C8,1*%
%TO.N,+3.3V*%
X77216000Y-74544000D03*
%TO.P,C8,2*%
%TO.N,GND*%
X77216000Y-72644000D03*
%TD*%
D13*
%TO.P,J9,1,Pin_1*%
%TO.N,Net-(J9-Pin_1)*%
X59705000Y-58420000D03*
D14*
%TO.P,J9,2,Pin_2*%
%TO.N,Net-(J9-Pin_2)*%
X62245000Y-58420000D03*
%TO.P,J9,3,Pin_3*%
%TO.N,Net-(J9-Pin_3)*%
X64785000Y-58420000D03*
%TO.P,J9,4,Pin_4*%
%TO.N,Net-(J9-Pin_4)*%
X67325000Y-58420000D03*
%TO.P,J9,5,Pin_5*%
%TO.N,Net-(J9-Pin_5)*%
X69865000Y-58420000D03*
%TO.P,J9,6,Pin_6*%
%TO.N,Net-(J9-Pin_6)*%
X72405000Y-58420000D03*
%TO.P,J9,7,Pin_7*%
%TO.N,Net-(J9-Pin_7)*%
X74945000Y-58420000D03*
%TO.P,J9,8,Pin_8*%
%TO.N,Net-(J9-Pin_8)*%
X77485000Y-58420000D03*
%TD*%
D12*
%TO.P,R5,1*%
%TO.N,Net-(IC1-CRX2{slash}CTX2)*%
X73660000Y-63500000D03*
%TO.P,R5,2*%
%TO.N,Net-(J9-Pin_6)*%
X73660000Y-61850000D03*
%TD*%
D17*
%TO.P,C17,1*%
%TO.N,+3.3V*%
X87950000Y-117790000D03*
%TO.P,C17,2*%
%TO.N,GND*%
X87950000Y-115890000D03*
%TD*%
D18*
%TO.P,C18,1*%
%TO.N,+5V*%
X93030000Y-111760000D03*
%TO.P,C18,2*%
%TO.N,GND*%
X94930000Y-111760000D03*
%TD*%
D17*
%TO.P,C12,1*%
%TO.N,Net-(IC1-VREGA)*%
X77216000Y-78608000D03*
%TO.P,C12,2*%
%TO.N,GND*%
X77216000Y-76708000D03*
%TD*%
D26*
%TO.P,R15,1*%
%TO.N,+3.3V*%
X71120000Y-88075000D03*
%TO.P,R15,2*%
%TO.N,INT_GYR*%
X71120000Y-89725000D03*
%TD*%
D17*
%TO.P,C7,1*%
%TO.N,+3.3V*%
X74676000Y-74544000D03*
%TO.P,C7,2*%
%TO.N,GND*%
X74676000Y-72644000D03*
%TD*%
D13*
%TO.P,J5,1,Pin_1*%
%TO.N,+5V*%
X101600000Y-85867000D03*
D14*
%TO.P,J5,2,Pin_2*%
%TO.N,Net-(J5-Pin_2)*%
X101600000Y-88407000D03*
%TO.P,J5,3,Pin_3*%
%TO.N,GND*%
X101600000Y-90947000D03*
%TD*%
D12*
%TO.P,R14,1*%
%TO.N,+3.3V*%
X71120000Y-94805000D03*
%TO.P,R14,2*%
%TO.N,INT_ACC*%
X71120000Y-93155000D03*
%TD*%
D10*
%TO.P,U7,1,VCCA*%
%TO.N,+5V*%
X95530000Y-117078000D03*
%TO.P,U7,2,1A*%
%TO.N,Net-(J6-Pin_2)*%
X95530000Y-116578000D03*
%TO.P,U7,3,2A*%
%TO.N,Net-(J7-Pin_2)*%
X95530000Y-116078000D03*
%TO.P,U7,4,GND*%
%TO.N,GND*%
X95530000Y-115578000D03*
%TO.P,U7,5,DIR*%
X92430000Y-115578000D03*
%TO.P,U7,6,2B*%
%TO.N,THR_6*%
X92430000Y-116078000D03*
%TO.P,U7,7,1B*%
%TO.N,THR_5*%
X92430000Y-116578000D03*
%TO.P,U7,8,VCCB*%
%TO.N,+3.3V*%
X92430000Y-117078000D03*
%TD*%
D17*
%TO.P,C4,1*%
%TO.N,GND*%
X81280000Y-84770000D03*
%TO.P,C4,2*%
%TO.N,+3.3V*%
X81280000Y-82870000D03*
%TD*%
D12*
%TO.P,R4,1*%
%TO.N,Net-(IC1-CRX1{slash}CTX1)*%
X76200000Y-63500000D03*
%TO.P,R4,2*%
%TO.N,Net-(J9-Pin_7)*%
X76200000Y-61850000D03*
%TD*%
%TO.P,R12,1*%
%TO.N,+3.3V*%
X57404000Y-85153000D03*
%TO.P,R12,2*%
%TO.N,I2C_SDA*%
X57404000Y-83503000D03*
%TD*%
D13*
%TO.P,J3,1,Pin_1*%
%TO.N,+5V*%
X101600000Y-61468000D03*
D14*
%TO.P,J3,2,Pin_2*%
%TO.N,Net-(J3-Pin_2)*%
X101600000Y-64008000D03*
%TO.P,J3,3,Pin_3*%
%TO.N,GND*%
X101600000Y-66548000D03*
%TD*%
D17*
%TO.P,C15,1*%
%TO.N,+3.3V*%
X86360000Y-93340000D03*
%TO.P,C15,2*%
%TO.N,GND*%
X86360000Y-91440000D03*
%TD*%
D12*
%TO.P,R6,1*%
%TO.N,Net-(IC1-CRX3{slash}CTX3)*%
X71120000Y-63500000D03*
%TO.P,R6,2*%
%TO.N,Net-(J9-Pin_5)*%
X71120000Y-61850000D03*
%TD*%
D18*
%TO.P,C6,1*%
%TO.N,GND*%
X79380000Y-88900000D03*
%TO.P,C6,2*%
%TO.N,+3.3V*%
X81280000Y-88900000D03*
%TD*%
D12*
%TO.P,R10,1*%
%TO.N,Net-(IC1-CRX7{slash}CTX7)*%
X60960000Y-63500000D03*
%TO.P,R10,2*%
%TO.N,Net-(J9-Pin_1)*%
X60960000Y-61850000D03*
%TD*%
D13*
%TO.P,U3,1,GND*%
%TO.N,GND*%
X83820000Y-106680000D03*
D14*
%TO.P,U3,2,DQ*%
%TO.N,TEMP_INT*%
X86360000Y-106680000D03*
%TO.P,U3,3,V_{DD}*%
%TO.N,+3.3V*%
X88900000Y-106680000D03*
%TD*%
D27*
%TO.P,C2,1*%
%TO.N,+5V*%
X93980000Y-124460000D03*
%TO.P,C2,2*%
%TO.N,GND*%
X92080000Y-124460000D03*
%TD*%
D11*
%TO.P,R1,1*%
%TO.N,+3.3V*%
X88010000Y-111760000D03*
%TO.P,R1,2*%
%TO.N,TEMP_INT*%
X86360000Y-111760000D03*
%TD*%
D17*
%TO.P,C11,1*%
%TO.N,Net-(IC1-VREGA)*%
X74676000Y-78608000D03*
%TO.P,C11,2*%
%TO.N,GND*%
X74676000Y-76708000D03*
%TD*%
D12*
%TO.P,R7,1*%
%TO.N,Net-(IC1-CRX4{slash}CTX4)*%
X68580000Y-63500000D03*
%TO.P,R7,2*%
%TO.N,Net-(J9-Pin_4)*%
X68580000Y-61850000D03*
%TD*%
D18*
%TO.P,C13,1*%
%TO.N,+3.3V*%
X79050000Y-115000000D03*
%TO.P,C13,2*%
%TO.N,GND*%
X80950000Y-115000000D03*
%TD*%
D26*
%TO.P,R11,1*%
%TO.N,INT_CAP*%
X59944000Y-72327000D03*
%TO.P,R11,2*%
%TO.N,+3.3V*%
X59944000Y-73977000D03*
%TD*%
D18*
%TO.P,C3,1*%
%TO.N,Net-(U6-REGOUT)*%
X75250000Y-83312000D03*
%TO.P,C3,2*%
%TO.N,GND*%
X77150000Y-83312000D03*
%TD*%
D12*
%TO.P,R3,1*%
%TO.N,Net-(IC1-CRX0{slash}CTX0)*%
X78740000Y-63500000D03*
%TO.P,R3,2*%
%TO.N,Net-(J9-Pin_8)*%
X78740000Y-61850000D03*
%TD*%
D13*
%TO.P,J4,1,Pin_1*%
%TO.N,+5V*%
X101600000Y-96520000D03*
D14*
%TO.P,J4,2,Pin_2*%
%TO.N,Net-(J4-Pin_2)*%
X101600000Y-99060000D03*
%TO.P,J4,3,Pin_3*%
%TO.N,GND*%
X101600000Y-101600000D03*
%TD*%
D13*
%TO.P,J1,1,3V3*%
%TO.N,+3.3V*%
X60960000Y-78740000D03*
D14*
%TO.P,J1,2,5V*%
%TO.N,+5V*%
X63500000Y-78740000D03*
%TO.P,J1,3,SDA/GPIO2*%
%TO.N,I2C_SDA*%
X60960000Y-81280000D03*
%TO.P,J1,4,5V*%
%TO.N,+5V*%
X63500000Y-81280000D03*
%TO.P,J1,5,SCL/GPIO3*%
%TO.N,I2C_SCL*%
X60960000Y-83820000D03*
%TO.P,J1,6,GND*%
%TO.N,GND*%
X63500000Y-83820000D03*
%TO.P,J1,7,GCLK0/GPIO4*%
%TO.N,unconnected-(J1-GCLK0{slash}GPIO4-Pad7)*%
X60960000Y-86360000D03*
%TO.P,J1,8,GPIO14/TXD*%
%TO.N,THR_3*%
X63500000Y-86360000D03*
%TO.P,J1,9,GND*%
%TO.N,GND*%
X60960000Y-88900000D03*
%TO.P,J1,10,GPIO15/RXD*%
%TO.N,THR_4*%
X63500000Y-88900000D03*
%TO.P,J1,11,GPIO17*%
%TO.N,THR_6*%
X60960000Y-91440000D03*
%TO.P,J1,12,GPIO18/PWM0*%
%TO.N,unconnected-(J1-GPIO18{slash}PWM0-Pad12)*%
X63500000Y-91440000D03*
%TO.P,J1,13,GPIO27*%
%TO.N,TEMP_EXT*%
X60960000Y-93980000D03*
%TO.P,J1,14,GND*%
%TO.N,GND*%
X63500000Y-93980000D03*
%TO.P,J1,15,GPIO22*%
%TO.N,unconnected-(J1-GPIO22-Pad15)*%
X60960000Y-96520000D03*
%TO.P,J1,16,GPIO23*%
%TO.N,unconnected-(J1-GPIO23-Pad16)*%
X63500000Y-96520000D03*
%TO.P,J1,17,3V3*%
%TO.N,+3.3V*%
X60960000Y-99060000D03*
%TO.P,J1,18,GPIO24*%
%TO.N,unconnected-(J1-GPIO24-Pad18)*%
X63500000Y-99060000D03*
%TO.P,J1,19,MOSI0/GPIO10*%
%TO.N,unconnected-(J1-MOSI0{slash}GPIO10-Pad19)*%
X60960000Y-101600000D03*
%TO.P,J1,20,GND*%
%TO.N,GND*%
X63500000Y-101600000D03*
%TO.P,J1,21,MISO0/GPIO9*%
%TO.N,unconnected-(J1-MISO0{slash}GPIO9-Pad21)*%
X60960000Y-104140000D03*
%TO.P,J1,22,GPIO25*%
%TO.N,unconnected-(J1-GPIO25-Pad22)*%
X63500000Y-104140000D03*
%TO.P,J1,23,SCLK0/GPIO11*%
%TO.N,unconnected-(J1-SCLK0{slash}GPIO11-Pad23)*%
X60960000Y-106680000D03*
%TO.P,J1,24,~{CE0}/GPIO8*%
%TO.N,unconnected-(J1-~{CE0}{slash}GPIO8-Pad24)*%
X63500000Y-106680000D03*
%TO.P,J1,25,GND*%
%TO.N,GND*%
X60960000Y-109220000D03*
%TO.P,J1,26,~{CE1}/GPIO7*%
%TO.N,unconnected-(J1-~{CE1}{slash}GPIO7-Pad26)*%
X63500000Y-109220000D03*
%TO.P,J1,27,ID_SD/GPIO0*%
%TO.N,unconnected-(J1-ID_SD{slash}GPIO0-Pad27)*%
X60960000Y-111760000D03*
%TO.P,J1,28,ID_SC/GPIO1*%
%TO.N,unconnected-(J1-ID_SC{slash}GPIO1-Pad28)*%
X63500000Y-111760000D03*
%TO.P,J1,29,GCLK1/GPIO5*%
%TO.N,unconnected-(J1-GCLK1{slash}GPIO5-Pad29)*%
X60960000Y-114300000D03*
%TO.P,J1,30,GND*%
%TO.N,GND*%
X63500000Y-114300000D03*
%TO.P,J1,31,GCLK2/GPIO6*%
%TO.N,unconnected-(J1-GCLK2{slash}GPIO6-Pad31)*%
X60960000Y-116840000D03*
%TO.P,J1,32,PWM0/GPIO12*%
%TO.N,THR_1*%
X63500000Y-116840000D03*
%TO.P,J1,33,PWM1/GPIO13*%
%TO.N,THR_2*%
X60960000Y-119380000D03*
%TO.P,J1,34,GND*%
%TO.N,GND*%
X63500000Y-119380000D03*
%TO.P,J1,35,GPIO19/MISO1*%
%TO.N,INT_GYR*%
X60960000Y-121920000D03*
%TO.P,J1,36,GPIO16*%
%TO.N,THR_5*%
X63500000Y-121920000D03*
%TO.P,J1,37,GPIO26*%
%TO.N,TEMP_INT*%
X60960000Y-124460000D03*
%TO.P,J1,38,GPIO20/MOSI1*%
%TO.N,INT_ACC*%
X63500000Y-124460000D03*
%TO.P,J1,39,GND*%
%TO.N,GND*%
X60960000Y-127000000D03*
%TO.P,J1,40,GPIO21/SCLK1*%
%TO.N,INT_CAP*%
X63500000Y-127000000D03*
%TD*%
D28*
%TO.N,GND*%
X75000000Y-85000000D03*
%TO.N,INT_CAP*%
X70000000Y-129000000D03*
X60500000Y-130500000D03*
%TO.N,+3.3V*%
X68500000Y-82004500D03*
X82500000Y-87500000D03*
X84544500Y-87500000D03*
X85852000Y-80264000D03*
X86360000Y-82296000D03*
X62484000Y-74168000D03*
X68000000Y-79915000D03*
%TO.N,+5V*%
X96520000Y-73152000D03*
%TO.N,GND*%
X80264000Y-73660000D03*
X82804000Y-116840000D03*
X78740000Y-83312000D03*
X78740000Y-93980000D03*
X96520000Y-65532000D03*
X97536000Y-88900000D03*
X95530000Y-113792000D03*
%TO.N,I2C_SDA*%
X73000000Y-87895500D03*
X57598102Y-81593898D03*
X55879500Y-79248000D03*
X71500000Y-97500000D03*
%TO.N,I2C_SCL*%
X73500000Y-95000000D03*
X68500000Y-83500000D03*
X72500000Y-87000000D03*
X55879500Y-77724000D03*
%TO.N,THR_3*%
X89916000Y-92456000D03*
X89408000Y-94488000D03*
%TO.N,THR_4*%
X88392000Y-91948000D03*
X88392000Y-96012000D03*
%TO.N,THR_6*%
X76708000Y-119888000D03*
X58420000Y-91948000D03*
%TO.N,Net-(J6-Pin_2)*%
X96520000Y-120396000D03*
X98044000Y-123952000D03*
%TO.N,TEMP_EXT*%
X66548000Y-102616000D03*
%TO.N,THR_1*%
X71628000Y-100076000D03*
X68580000Y-103632000D03*
X92456000Y-82296000D03*
X92456000Y-79756000D03*
%TO.N,THR_2*%
X54864000Y-120904000D03*
X76708000Y-66040000D03*
%TO.N,INT_GYR*%
X58420000Y-90424000D03*
X55372000Y-90932000D03*
%TO.N,THR_5*%
X90932000Y-116332000D03*
X90932000Y-120396000D03*
%TO.N,TEMP_INT*%
X74168000Y-114808000D03*
X76708000Y-112268000D03*
X71120000Y-120396000D03*
%TO.N,INT_ACC*%
X65532000Y-97028000D03*
%TO.N,Net-(IC1-VREGA)*%
X71120000Y-71120000D03*
X71120000Y-78740000D03*
%TD*%
D29*
%TO.N,GND*%
X75700000Y-85700000D02*
X75000000Y-85000000D01*
X75700000Y-86360000D02*
X75700000Y-85700000D01*
D30*
%TO.N,+5V*%
X104648000Y-83500000D02*
X104648000Y-81500000D01*
X104648000Y-81500000D02*
X104648000Y-68500000D01*
X63500000Y-81280000D02*
X104428000Y-81280000D01*
X104428000Y-81280000D02*
X104648000Y-81500000D01*
X104648000Y-92500000D02*
X104648000Y-83500000D01*
X101600000Y-85867000D02*
X102281000Y-85867000D01*
X102281000Y-85867000D02*
X104648000Y-83500000D01*
X104648000Y-61976000D02*
X104648000Y-68500000D01*
X104648000Y-68500000D02*
X104648000Y-70612000D01*
X104648000Y-92456000D02*
X104648000Y-92500000D01*
X104648000Y-92500000D02*
X104648000Y-92964000D01*
%TO.N,INT_CAP*%
X70000000Y-129000000D02*
X65500000Y-129000000D01*
X65500000Y-129000000D02*
X63500000Y-127000000D01*
X52890000Y-122890000D02*
X60500000Y-130500000D01*
X52890000Y-78045604D02*
X52890000Y-122890000D01*
X58608604Y-72327000D02*
X52890000Y-78045604D01*
X59944000Y-72327000D02*
X58608604Y-72327000D01*
%TO.N,GND*%
X76880000Y-88620000D02*
X76500000Y-89000000D01*
X76960000Y-88620000D02*
X76880000Y-88620000D01*
X76500000Y-89000000D02*
X75820000Y-89000000D01*
X75820000Y-89000000D02*
X75700000Y-88880000D01*
%TO.N,+3.3V*%
X76199999Y-97020000D02*
X78290000Y-97020000D01*
X56604000Y-74968000D02*
X57404000Y-74168000D01*
X57404000Y-88709000D02*
X57404000Y-95504000D01*
X88900000Y-106680000D02*
X88900000Y-110870000D01*
X88662000Y-117078000D02*
X87950000Y-117790000D01*
X55880000Y-88900000D02*
X57213000Y-88900000D01*
X60960000Y-99060000D02*
X62325000Y-100425000D01*
X76200000Y-106680000D02*
X79248000Y-103632000D01*
X84500000Y-87500000D02*
X84544500Y-87500000D01*
X68500000Y-82004500D02*
X69824500Y-82004500D01*
D29*
X69826000Y-72936000D02*
X71120000Y-72936000D01*
D30*
X83820000Y-82804000D02*
X84328000Y-82296000D01*
X74676000Y-74544000D02*
X77216000Y-74544000D01*
X71120000Y-94805000D02*
X73335000Y-97020000D01*
D29*
X71120000Y-76200000D02*
X71120000Y-72936000D01*
D30*
X81920000Y-88900000D02*
X86360000Y-93340000D01*
X73335000Y-97020000D02*
X74680201Y-97020000D01*
X57404000Y-85153000D02*
X55880000Y-86677000D01*
X60135000Y-74168000D02*
X59944000Y-73977000D01*
X71120000Y-88075000D02*
X71120000Y-85380000D01*
X62325000Y-100425000D02*
X69945000Y-100425000D01*
X57213000Y-88900000D02*
X57404000Y-88709000D01*
X80772000Y-81788000D02*
X74676000Y-81788000D01*
X73152000Y-84312000D02*
X75200000Y-86360000D01*
D29*
X71120000Y-72936000D02*
X73068000Y-72936000D01*
D30*
X72136000Y-83820000D02*
X73152000Y-83820000D01*
D29*
X73068000Y-72936000D02*
X74676000Y-74544000D01*
D30*
X83763200Y-78683200D02*
X91440000Y-71006400D01*
X90556000Y-93340000D02*
X91440000Y-92456000D01*
X57404000Y-74168000D02*
X59753000Y-74168000D01*
X89916000Y-117078000D02*
X88662000Y-117078000D01*
X72160000Y-84340000D02*
X71888000Y-84068000D01*
X92430000Y-117078000D02*
X89916000Y-117078000D01*
X74440000Y-86620000D02*
X72650000Y-84830000D01*
X60960000Y-78740000D02*
X62135000Y-79915000D01*
X73152000Y-83312000D02*
X73152000Y-84312000D01*
X81280000Y-82870000D02*
X81280000Y-82296000D01*
X89916000Y-113666000D02*
X89916000Y-117078000D01*
X62484000Y-74168000D02*
X60135000Y-74168000D01*
X84870000Y-83920000D02*
X84870000Y-87130000D01*
X62135000Y-79915000D02*
X82531400Y-79915000D01*
X55880000Y-86677000D02*
X55880000Y-88900000D01*
X71120000Y-88075000D02*
X71665000Y-88620000D01*
X78290000Y-97020000D02*
X78740000Y-97470000D01*
X82531400Y-79915000D02*
X83763200Y-78683200D01*
X76900000Y-115000000D02*
X79050000Y-115000000D01*
X84271200Y-78683200D02*
X83763200Y-78683200D01*
X69945000Y-100425000D02*
X76200000Y-106680000D01*
X68040000Y-97885000D02*
X71120000Y-94805000D01*
X71665000Y-88620000D02*
X74440000Y-88620000D01*
X72650000Y-84830000D02*
X72160000Y-84340000D01*
X84870000Y-87130000D02*
X84500000Y-87500000D01*
X69824500Y-82004500D02*
X71888000Y-84068000D01*
X59753000Y-74168000D02*
X59944000Y-73977000D01*
X74676000Y-81788000D02*
X73152000Y-83312000D01*
X83820000Y-82870000D02*
X83820000Y-82804000D01*
X88900000Y-110870000D02*
X88010000Y-111760000D01*
X74940000Y-86620000D02*
X75200000Y-86360000D01*
X88010000Y-111760000D02*
X89916000Y-113666000D01*
X79248000Y-103632000D02*
X88900000Y-103632000D01*
X57404000Y-95504000D02*
X60960000Y-99060000D01*
X86360000Y-93340000D02*
X90556000Y-93340000D01*
X76200000Y-109220000D02*
X76200000Y-106680000D01*
X62135000Y-97885000D02*
X68040000Y-97885000D01*
X60960000Y-99060000D02*
X62135000Y-97885000D01*
X81280000Y-88900000D02*
X81920000Y-88900000D01*
X73660000Y-111760000D02*
X76900000Y-115000000D01*
D29*
X63500000Y-76200000D02*
X71120000Y-76200000D01*
D30*
X56604000Y-84353000D02*
X56604000Y-74968000D01*
X74440000Y-86620000D02*
X74940000Y-86620000D01*
X71888000Y-84068000D02*
X72136000Y-83820000D01*
X82500000Y-87500000D02*
X82500000Y-87680000D01*
X73660000Y-111760000D02*
X76200000Y-109220000D01*
X84328000Y-82296000D02*
X86360000Y-82296000D01*
D29*
X60960000Y-78740000D02*
X63500000Y-76200000D01*
D30*
X74680201Y-97020000D02*
X76199999Y-97020000D01*
X82500000Y-87680000D02*
X81280000Y-88900000D01*
X85852000Y-80264000D02*
X84271200Y-78683200D01*
X88900000Y-103632000D02*
X88900000Y-106680000D01*
X81280000Y-82870000D02*
X83820000Y-82870000D01*
X81280000Y-82296000D02*
X80772000Y-81788000D01*
X71120000Y-85380000D02*
X72160000Y-84340000D01*
X57404000Y-85153000D02*
X56604000Y-84353000D01*
X83820000Y-82870000D02*
X84870000Y-83920000D01*
%TO.N,+5V*%
X94540000Y-92440000D02*
X93840000Y-92440000D01*
X101600000Y-95504000D02*
X104648000Y-92456000D01*
X93030000Y-70170000D02*
X93030000Y-66040000D01*
X101600000Y-109728000D02*
X104648000Y-106680000D01*
X101600000Y-85867000D02*
X97013000Y-85867000D01*
X98044000Y-120396000D02*
X101600000Y-120396000D01*
X95530000Y-117078000D02*
X95530000Y-122910000D01*
X93030000Y-111760000D02*
X99126000Y-105664000D01*
X103124000Y-120396000D02*
X101600000Y-120396000D01*
X104648000Y-61976000D02*
X104140000Y-61468000D01*
X93980000Y-124460000D02*
X98044000Y-120396000D01*
X104648000Y-71120000D02*
X102108000Y-73660000D01*
X93866400Y-71006400D02*
X93030000Y-70170000D01*
X92964000Y-92456000D02*
X92964000Y-89916000D01*
X104140000Y-61468000D02*
X101600000Y-61468000D01*
X104648000Y-118872000D02*
X103124000Y-120396000D01*
X104648000Y-70612000D02*
X104648000Y-71120000D01*
X94540000Y-71006400D02*
X93866400Y-71006400D01*
X104648000Y-118872000D02*
X104648000Y-106680000D01*
X102108000Y-73660000D02*
X101600000Y-73660000D01*
X92964000Y-89916000D02*
X93980000Y-88900000D01*
X99126000Y-105664000D02*
X104648000Y-105664000D01*
X101600000Y-96520000D02*
X101600000Y-95504000D01*
X104648000Y-106680000D02*
X104648000Y-92964000D01*
X93840000Y-92440000D02*
X93824000Y-92456000D01*
X93824000Y-92456000D02*
X92964000Y-92456000D01*
X95530000Y-122910000D02*
X95504000Y-122936000D01*
X94540000Y-71172000D02*
X96520000Y-73152000D01*
X94540000Y-71006400D02*
X94540000Y-71172000D01*
X97013000Y-85867000D02*
X93980000Y-88900000D01*
X93980000Y-124460000D02*
X93980000Y-129540000D01*
D29*
%TO.N,GND*%
X69826000Y-72136000D02*
X71252000Y-72136000D01*
D30*
X95530000Y-112360000D02*
X94930000Y-111760000D01*
X78740000Y-73660000D02*
X78740000Y-71120000D01*
X78740000Y-73660000D02*
X80264000Y-73660000D01*
X78740000Y-70236000D02*
X78740000Y-71120000D01*
X62135000Y-92615000D02*
X63500000Y-93980000D01*
X95880000Y-88900000D02*
X97536000Y-88900000D01*
X78740000Y-85852000D02*
X79248000Y-85344000D01*
D29*
X75690100Y-97662399D02*
X75690100Y-98029899D01*
D30*
X74676000Y-76708000D02*
X77216000Y-76708000D01*
X76960000Y-86620000D02*
X77972000Y-86620000D01*
X74676000Y-68712000D02*
X77216000Y-68712000D01*
X75690100Y-96062398D02*
X76182498Y-95570000D01*
D29*
X75547701Y-97520000D02*
X75690100Y-97662399D01*
D30*
X75690100Y-99566100D02*
X75692000Y-99568000D01*
X60960000Y-88900000D02*
X62135000Y-90075000D01*
X78740000Y-83312000D02*
X79248000Y-83820000D01*
X81280000Y-84770000D02*
X83820000Y-84770000D01*
X80772000Y-99568000D02*
X81280000Y-99060000D01*
X81280000Y-99060000D02*
X81280000Y-96520000D01*
X77150000Y-83312000D02*
X78740000Y-83312000D01*
X79248000Y-85344000D02*
X79822000Y-84770000D01*
X96012000Y-66040000D02*
X97028000Y-65024000D01*
D29*
X71252000Y-72136000D02*
X72268000Y-71120000D01*
D30*
X62135000Y-90075000D02*
X62135000Y-92615000D01*
X83820000Y-88900000D02*
X86360000Y-91440000D01*
X86360000Y-124460000D02*
X81280000Y-129540000D01*
X83820000Y-84770000D02*
X83820000Y-88900000D01*
X72268000Y-71120000D02*
X74676000Y-68712000D01*
X94540000Y-66430000D02*
X94540000Y-69506400D01*
X75690100Y-96510101D02*
X75690100Y-96062398D01*
X92430000Y-115578000D02*
X95530000Y-115578000D01*
X77216000Y-68712000D02*
X78740000Y-70236000D01*
X92080000Y-124460000D02*
X86360000Y-124460000D01*
D29*
X74680201Y-97520000D02*
X75547701Y-97520000D01*
D30*
X95504000Y-63500000D02*
X97028000Y-65024000D01*
X86860000Y-90940000D02*
X86360000Y-91440000D01*
X78740000Y-95570000D02*
X78740000Y-93980000D01*
X91440000Y-63500000D02*
X95504000Y-63500000D01*
X94930000Y-66040000D02*
X96012000Y-66040000D01*
X79822000Y-84770000D02*
X81280000Y-84770000D01*
X87950000Y-115890000D02*
X87060000Y-115000000D01*
X77216000Y-76708000D02*
X78740000Y-75184000D01*
X74676000Y-72644000D02*
X77216000Y-72644000D01*
X76960000Y-88620000D02*
X79100000Y-88620000D01*
X80330000Y-95570000D02*
X78740000Y-95570000D01*
X77216000Y-72644000D02*
X78740000Y-71120000D01*
X94930000Y-66040000D02*
X94540000Y-66430000D01*
X94540000Y-90240000D02*
X94540000Y-90940000D01*
X79380000Y-86670000D02*
X81280000Y-84770000D01*
X75690100Y-98029899D02*
X75690100Y-99566100D01*
X75690100Y-98029899D02*
X76185899Y-98029899D01*
X91440000Y-90940000D02*
X86860000Y-90940000D01*
X87060000Y-115000000D02*
X80950000Y-115000000D01*
X80950000Y-115000000D02*
X80964000Y-115000000D01*
X75692000Y-99568000D02*
X80772000Y-99568000D01*
X76960000Y-86620000D02*
X76960000Y-88620000D01*
X80964000Y-115000000D02*
X82804000Y-116840000D01*
X77972000Y-86620000D02*
X78740000Y-85852000D01*
X79248000Y-83820000D02*
X79248000Y-85344000D01*
X81280000Y-96520000D02*
X80330000Y-95570000D01*
X76182498Y-95570000D02*
X78740000Y-95570000D01*
X91440000Y-69506400D02*
X91440000Y-63500000D01*
X79380000Y-88900000D02*
X79380000Y-86670000D01*
X79100000Y-88620000D02*
X79380000Y-88900000D01*
X95880000Y-88900000D02*
X94540000Y-90240000D01*
X78740000Y-75184000D02*
X78740000Y-73660000D01*
X95530000Y-115578000D02*
X95530000Y-113792000D01*
X95530000Y-113792000D02*
X95530000Y-112360000D01*
D29*
%TO.N,INT_CAP*%
X67926000Y-74788000D02*
X67564000Y-75150000D01*
X61659000Y-72327000D02*
X59944000Y-72327000D01*
X64482000Y-75150000D02*
X61659000Y-72327000D01*
X67564000Y-75150000D02*
X64482000Y-75150000D01*
X67926000Y-73636000D02*
X67926000Y-74788000D01*
D30*
%TO.N,I2C_SDA*%
X53848000Y-121929305D02*
X53848000Y-81280000D01*
D29*
X68726000Y-75704000D02*
X68580000Y-75850000D01*
D30*
X62633695Y-130715000D02*
X53848000Y-121929305D01*
X82645000Y-130715000D02*
X62633695Y-130715000D01*
D29*
X58667487Y-76447487D02*
X58667487Y-78987487D01*
X68580000Y-75850000D02*
X59264974Y-75850000D01*
X58667487Y-78987487D02*
X60960000Y-81280000D01*
D30*
X73275500Y-87620000D02*
X74440000Y-87620000D01*
X55879500Y-79248500D02*
X55879500Y-79248000D01*
X57404000Y-81788000D02*
X57598102Y-81593898D01*
D29*
X59264974Y-75850000D02*
X58667487Y-76447487D01*
D30*
X72020001Y-98020001D02*
X71500000Y-97500000D01*
X83820000Y-129540000D02*
X82645000Y-130715000D01*
X74680201Y-98020001D02*
X72020001Y-98020001D01*
X73000000Y-87895500D02*
X73275500Y-87620000D01*
D29*
X68726000Y-73636000D02*
X68726000Y-75704000D01*
D30*
X57404000Y-83503000D02*
X57404000Y-81788000D01*
X53848000Y-81280000D02*
X55879500Y-79248500D01*
%TO.N,I2C_SCL*%
X68500000Y-83500000D02*
X67455000Y-82455000D01*
X62447299Y-131165000D02*
X53340000Y-122057701D01*
X73660000Y-94996000D02*
X73504000Y-94996000D01*
X74680201Y-96016201D02*
X73660000Y-94996000D01*
D29*
X60960000Y-83820000D02*
X58317487Y-81177487D01*
D30*
X84735000Y-131165000D02*
X62447299Y-131165000D01*
D29*
X68326000Y-74930000D02*
X68326000Y-74286000D01*
D30*
X53340000Y-80263500D02*
X55879500Y-77724000D01*
X53340000Y-122057701D02*
X53340000Y-80263500D01*
X67455000Y-82455000D02*
X62325000Y-82455000D01*
X73504000Y-94996000D02*
X73500000Y-95000000D01*
D29*
X59120000Y-75500000D02*
X67112000Y-75500000D01*
X68326000Y-74286000D02*
X68326000Y-73636000D01*
X67756000Y-75500000D02*
X68326000Y-74930000D01*
D30*
X57721000Y-87059000D02*
X60960000Y-83820000D01*
X62325000Y-82455000D02*
X60960000Y-83820000D01*
X72620000Y-87120000D02*
X72500000Y-87000000D01*
X74440000Y-87120000D02*
X72620000Y-87120000D01*
X86360000Y-129540000D02*
X84735000Y-131165000D01*
X57404000Y-87059000D02*
X57721000Y-87059000D01*
D29*
X67112000Y-75500000D02*
X67756000Y-75500000D01*
X58317487Y-81177487D02*
X58317487Y-76302513D01*
D30*
X74680201Y-96519999D02*
X74680201Y-96016201D01*
D29*
X58317487Y-76302513D02*
X59120000Y-75500000D01*
D30*
%TO.N,THR_3*%
X81788000Y-90932000D02*
X68072000Y-90932000D01*
X85852000Y-94996000D02*
X81788000Y-90932000D01*
X88900000Y-94996000D02*
X85852000Y-94996000D01*
X90432000Y-91940000D02*
X89916000Y-92456000D01*
X68072000Y-90932000D02*
X63500000Y-86360000D01*
X89408000Y-94488000D02*
X88900000Y-94996000D01*
X91440000Y-91940000D02*
X90432000Y-91940000D01*
%TO.N,THR_4*%
X91440000Y-91440000D02*
X88900000Y-91440000D01*
X85852000Y-96012000D02*
X81280000Y-91440000D01*
X81280000Y-91440000D02*
X66040000Y-91440000D01*
X88392000Y-96012000D02*
X85852000Y-96012000D01*
X66040000Y-91440000D02*
X63500000Y-88900000D01*
X88900000Y-91440000D02*
X88392000Y-91948000D01*
%TO.N,THR_6*%
X77724000Y-118872000D02*
X93472000Y-118872000D01*
X93472000Y-118872000D02*
X93980000Y-118364000D01*
X93980000Y-118364000D02*
X93980000Y-116332000D01*
X58928000Y-91440000D02*
X58420000Y-91948000D01*
X60960000Y-91440000D02*
X58928000Y-91440000D01*
X76708000Y-119888000D02*
X77724000Y-118872000D01*
X93980000Y-116332000D02*
X93726000Y-116078000D01*
X93726000Y-116078000D02*
X92430000Y-116078000D01*
%TO.N,Net-(J6-Pin_2)*%
X100584000Y-123952000D02*
X101600000Y-122936000D01*
X95530000Y-116578000D02*
X96230000Y-116578000D01*
X96520000Y-116868000D02*
X96520000Y-120396000D01*
X96230000Y-116578000D02*
X96520000Y-116868000D01*
X98044000Y-123952000D02*
X100584000Y-123952000D01*
%TO.N,TEMP_EXT*%
X72010000Y-108330000D02*
X73660000Y-106680000D01*
X73660000Y-106680000D02*
X73660000Y-104776396D01*
X71499604Y-102616000D02*
X66548000Y-102616000D01*
X73660000Y-104776396D02*
X71499604Y-102616000D01*
X72010000Y-111760000D02*
X72010000Y-108330000D01*
%TO.N,THR_1*%
X71628000Y-100076000D02*
X85353305Y-100076000D01*
X64675000Y-107537000D02*
X68580000Y-103632000D01*
X92140000Y-70506400D02*
X91440000Y-70506400D01*
X92456000Y-70822400D02*
X92140000Y-70506400D01*
X92456000Y-92973305D02*
X92456000Y-82296000D01*
X85353305Y-100076000D02*
X92456000Y-92973305D01*
X63500000Y-116840000D02*
X64675000Y-115665000D01*
X92456000Y-79756000D02*
X92456000Y-70822400D01*
X64675000Y-115665000D02*
X64675000Y-107537000D01*
%TO.N,THR_2*%
X61626999Y-123285000D02*
X62135000Y-122776999D01*
X91440000Y-70006400D02*
X89310400Y-70006400D01*
X62135000Y-122776999D02*
X62135000Y-120555000D01*
X54864000Y-120904000D02*
X57245000Y-123285000D01*
X57245000Y-123285000D02*
X61626999Y-123285000D01*
X85344000Y-66040000D02*
X76708000Y-66040000D01*
X62135000Y-120555000D02*
X60960000Y-119380000D01*
X89310400Y-70006400D02*
X85344000Y-66040000D01*
%TO.N,INT_GYR*%
X58420000Y-87238299D02*
X58420000Y-90424000D01*
X55372000Y-90932000D02*
X55372000Y-116332000D01*
X66580000Y-85185000D02*
X60473299Y-85185000D01*
X74355000Y-89725000D02*
X75200000Y-88880000D01*
X60473299Y-85185000D02*
X58420000Y-87238299D01*
X55372000Y-116332000D02*
X60960000Y-121920000D01*
X71120000Y-89725000D02*
X66580000Y-85185000D01*
X71120000Y-89725000D02*
X74355000Y-89725000D01*
%TO.N,THR_5*%
X89408000Y-121920000D02*
X90932000Y-120396000D01*
X91178000Y-116578000D02*
X90932000Y-116332000D01*
X92430000Y-116578000D02*
X91178000Y-116578000D01*
X63500000Y-121920000D02*
X89408000Y-121920000D01*
%TO.N,Net-(J9-Pin_1)*%
X60960000Y-61850000D02*
X59705000Y-60595000D01*
X59705000Y-60595000D02*
X59705000Y-58420000D01*
%TO.N,TEMP_INT*%
X74168000Y-117348000D02*
X71120000Y-120396000D01*
X80772000Y-112268000D02*
X76708000Y-112268000D01*
X86360000Y-106680000D02*
X80772000Y-112268000D01*
X74168000Y-114808000D02*
X74168000Y-117348000D01*
X86360000Y-106680000D02*
X86360000Y-111760000D01*
%TO.N,INT_ACC*%
X74676000Y-92964000D02*
X71311000Y-92964000D01*
X71120000Y-93155000D02*
X69405000Y-93155000D01*
X71311000Y-92964000D02*
X71120000Y-93155000D01*
X69405000Y-93155000D02*
X65532000Y-97028000D01*
X75190100Y-93478100D02*
X74676000Y-92964000D01*
X75190100Y-96510101D02*
X75190100Y-93478100D01*
%TO.N,Net-(J9-Pin_3)*%
X66040000Y-61850000D02*
X66040000Y-59675000D01*
X66040000Y-59675000D02*
X64785000Y-58420000D01*
%TO.N,Net-(J9-Pin_2)*%
X63500000Y-59675000D02*
X62245000Y-58420000D01*
X63500000Y-61850000D02*
X63500000Y-59675000D01*
%TO.N,Net-(J2-Pin_2)*%
X101600000Y-76200000D02*
X95906400Y-70506400D01*
X95906400Y-70506400D02*
X94540000Y-70506400D01*
%TO.N,Net-(J3-Pin_2)*%
X95601600Y-70006400D02*
X101600000Y-64008000D01*
X94540000Y-70006400D02*
X95601600Y-70006400D01*
%TO.N,Net-(J9-Pin_4)*%
X68580000Y-61850000D02*
X67325000Y-60595000D01*
X67325000Y-60595000D02*
X67325000Y-58420000D01*
%TO.N,Net-(J9-Pin_5)*%
X71120000Y-61850000D02*
X71120000Y-59675000D01*
X71120000Y-59675000D02*
X69865000Y-58420000D01*
%TO.N,Net-(U6-REGOUT)*%
X76200000Y-84262000D02*
X76200000Y-86360000D01*
X75250000Y-83312000D02*
X76200000Y-84262000D01*
%TO.N,Net-(J5-Pin_2)*%
X98567000Y-91440000D02*
X96012000Y-91440000D01*
X101600000Y-88407000D02*
X98567000Y-91440000D01*
X94540000Y-91440000D02*
X96520000Y-91440000D01*
%TO.N,Net-(J4-Pin_2)*%
X101600000Y-99060000D02*
X97028000Y-94488000D01*
X97020000Y-91940000D02*
X94540000Y-91940000D01*
X97028000Y-94488000D02*
X97028000Y-91948000D01*
X97028000Y-91948000D02*
X97020000Y-91940000D01*
%TO.N,Net-(IC1-VREGD)*%
X74676000Y-70612000D02*
X77216000Y-70612000D01*
D29*
X69826000Y-72536000D02*
X72752000Y-72536000D01*
X72752000Y-72536000D02*
X74676000Y-70612000D01*
%TO.N,Net-(IC1-VREGA)*%
X70504000Y-71736000D02*
X71120000Y-71120000D01*
D30*
X74544000Y-78740000D02*
X74676000Y-78608000D01*
D29*
X69826000Y-71736000D02*
X70504000Y-71736000D01*
D30*
X74676000Y-78608000D02*
X77216000Y-78608000D01*
X71120000Y-78740000D02*
X74544000Y-78740000D01*
D29*
%TO.N,Net-(IC1-CRX0{slash}CTX0)*%
X77662000Y-63500000D02*
X78740000Y-63500000D01*
X69826000Y-71336000D02*
X77662000Y-63500000D01*
%TO.N,Net-(IC1-CRX1{slash}CTX1)*%
X69126000Y-70574000D02*
X76200000Y-63500000D01*
X69126000Y-70636000D02*
X69126000Y-70574000D01*
%TO.N,Net-(IC1-CRX2{slash}CTX2)*%
X73660000Y-63500000D02*
X68726000Y-68434000D01*
X68726000Y-68434000D02*
X68726000Y-70636000D01*
%TO.N,Net-(IC1-CRX3{slash}CTX3)*%
X68326000Y-70636000D02*
X68326000Y-66294000D01*
X68326000Y-66294000D02*
X71120000Y-63500000D01*
%TO.N,Net-(IC1-CRX4{slash}CTX4)*%
X67926000Y-64154000D02*
X67926000Y-70636000D01*
X68580000Y-63500000D02*
X67926000Y-64154000D01*
%TO.N,Net-(IC1-CRX5{slash}CTX5)*%
X66040000Y-63500000D02*
X67526000Y-64986000D01*
X67526000Y-64986000D02*
X67526000Y-70636000D01*
%TO.N,Net-(IC1-CRX6{slash}CTX6)*%
X63500000Y-63500000D02*
X66826000Y-66826000D01*
X66826000Y-66826000D02*
X66826000Y-71336000D01*
%TO.N,Net-(IC1-CRX7{slash}CTX7)*%
X66176000Y-71736000D02*
X60960000Y-66520000D01*
X66826000Y-71736000D02*
X66176000Y-71736000D01*
X60960000Y-66520000D02*
X60960000Y-63500000D01*
D30*
%TO.N,Net-(J9-Pin_6)*%
X73660000Y-59675000D02*
X73660000Y-61850000D01*
X72405000Y-58420000D02*
X73660000Y-59675000D01*
%TO.N,Net-(J7-Pin_2)*%
X95530000Y-116078000D02*
X96230000Y-116078000D01*
X96230000Y-116078000D02*
X100040000Y-112268000D01*
X100040000Y-112268000D02*
X101600000Y-112268000D01*
%TO.N,Net-(J9-Pin_7)*%
X74945000Y-58420000D02*
X76200000Y-59675000D01*
X76200000Y-59675000D02*
X76200000Y-61850000D01*
%TO.N,Net-(J9-Pin_8)*%
X78740000Y-61850000D02*
X78740000Y-59675000D01*
X78740000Y-59675000D02*
X77485000Y-58420000D01*
%TD*%
M02*
