%TF.GenerationSoftware,KiCad,Pcbnew,7.0.1-0*%
%TF.CreationDate,2024-03-21T16:57:51-04:00*%
%TF.ProjectId,pihat,70696861-742e-46b6-9963-61645f706362,rev?*%
%TF.SameCoordinates,Original*%
%TF.FileFunction,Drillmap*%
%TF.FilePolarity,Positive*%
%FSLAX45Y45*%
G04 Gerber Fmt 4.5, Leading zero omitted, Abs format (unit mm)*
G04 Created by KiCad (PCBNEW 7.0.1-0) date 2024-03-21 16:57:51*
%MOMM*%
%LPD*%
G01*
G04 APERTURE LIST*
%ADD10C,0.100000*%
%ADD11C,0.200000*%
G04 APERTURE END LIST*
D10*
X5200000Y-5588000D02*
X10541000Y-5588000D01*
X10541000Y-13250000D01*
X5200000Y-13250000D01*
X5200000Y-5588000D01*
D11*
X5442619Y-13567524D02*
X5442619Y-13367524D01*
X5442619Y-13367524D02*
X5490238Y-13367524D01*
X5490238Y-13367524D02*
X5518810Y-13377048D01*
X5518810Y-13377048D02*
X5537857Y-13396095D01*
X5537857Y-13396095D02*
X5547381Y-13415143D01*
X5547381Y-13415143D02*
X5556905Y-13453238D01*
X5556905Y-13453238D02*
X5556905Y-13481809D01*
X5556905Y-13481809D02*
X5547381Y-13519905D01*
X5547381Y-13519905D02*
X5537857Y-13538952D01*
X5537857Y-13538952D02*
X5518810Y-13558000D01*
X5518810Y-13558000D02*
X5490238Y-13567524D01*
X5490238Y-13567524D02*
X5442619Y-13567524D01*
X5642619Y-13567524D02*
X5642619Y-13434190D01*
X5642619Y-13472286D02*
X5652143Y-13453238D01*
X5652143Y-13453238D02*
X5661667Y-13443714D01*
X5661667Y-13443714D02*
X5680714Y-13434190D01*
X5680714Y-13434190D02*
X5699762Y-13434190D01*
X5766428Y-13567524D02*
X5766428Y-13434190D01*
X5766428Y-13367524D02*
X5756905Y-13377048D01*
X5756905Y-13377048D02*
X5766428Y-13386571D01*
X5766428Y-13386571D02*
X5775952Y-13377048D01*
X5775952Y-13377048D02*
X5766428Y-13367524D01*
X5766428Y-13367524D02*
X5766428Y-13386571D01*
X5890238Y-13567524D02*
X5871190Y-13558000D01*
X5871190Y-13558000D02*
X5861667Y-13538952D01*
X5861667Y-13538952D02*
X5861667Y-13367524D01*
X5995000Y-13567524D02*
X5975952Y-13558000D01*
X5975952Y-13558000D02*
X5966428Y-13538952D01*
X5966428Y-13538952D02*
X5966428Y-13367524D01*
X6223571Y-13567524D02*
X6223571Y-13367524D01*
X6223571Y-13367524D02*
X6290238Y-13510381D01*
X6290238Y-13510381D02*
X6356905Y-13367524D01*
X6356905Y-13367524D02*
X6356905Y-13567524D01*
X6537857Y-13567524D02*
X6537857Y-13462762D01*
X6537857Y-13462762D02*
X6528333Y-13443714D01*
X6528333Y-13443714D02*
X6509286Y-13434190D01*
X6509286Y-13434190D02*
X6471190Y-13434190D01*
X6471190Y-13434190D02*
X6452143Y-13443714D01*
X6537857Y-13558000D02*
X6518809Y-13567524D01*
X6518809Y-13567524D02*
X6471190Y-13567524D01*
X6471190Y-13567524D02*
X6452143Y-13558000D01*
X6452143Y-13558000D02*
X6442619Y-13538952D01*
X6442619Y-13538952D02*
X6442619Y-13519905D01*
X6442619Y-13519905D02*
X6452143Y-13500857D01*
X6452143Y-13500857D02*
X6471190Y-13491333D01*
X6471190Y-13491333D02*
X6518809Y-13491333D01*
X6518809Y-13491333D02*
X6537857Y-13481809D01*
X6633095Y-13434190D02*
X6633095Y-13634190D01*
X6633095Y-13443714D02*
X6652143Y-13434190D01*
X6652143Y-13434190D02*
X6690238Y-13434190D01*
X6690238Y-13434190D02*
X6709286Y-13443714D01*
X6709286Y-13443714D02*
X6718809Y-13453238D01*
X6718809Y-13453238D02*
X6728333Y-13472286D01*
X6728333Y-13472286D02*
X6728333Y-13529428D01*
X6728333Y-13529428D02*
X6718809Y-13548476D01*
X6718809Y-13548476D02*
X6709286Y-13558000D01*
X6709286Y-13558000D02*
X6690238Y-13567524D01*
X6690238Y-13567524D02*
X6652143Y-13567524D01*
X6652143Y-13567524D02*
X6633095Y-13558000D01*
X6814048Y-13548476D02*
X6823571Y-13558000D01*
X6823571Y-13558000D02*
X6814048Y-13567524D01*
X6814048Y-13567524D02*
X6804524Y-13558000D01*
X6804524Y-13558000D02*
X6814048Y-13548476D01*
X6814048Y-13548476D02*
X6814048Y-13567524D01*
X6814048Y-13443714D02*
X6823571Y-13453238D01*
X6823571Y-13453238D02*
X6814048Y-13462762D01*
X6814048Y-13462762D02*
X6804524Y-13453238D01*
X6804524Y-13453238D02*
X6814048Y-13443714D01*
X6814048Y-13443714D02*
X6814048Y-13462762D01*
M02*
