M48
; DRILL file {KiCad 7.0.1-0} date 2024 March 21, Thursday 16:57:50
; FORMAT={-:-/ absolute / metric / decimal}
; #@! TF.CreationDate,2024-03-21T16:57:50-04:00
; #@! TF.GenerationSoftware,Kicad,Pcbnew,7.0.1-0
; #@! TF.FileFunction,Plated,1,2,PTH
FMAT,2
METRIC
; #@! TA.AperFunction,Plated,PTH,ViaDrill
T1C0.400
; #@! TA.AperFunction,Plated,PTH,ComponentDrill
T2C1.000
%
G90
G05
T1
X54.864Y-120.904
X55.372Y-90.932
X55.88Y-77.724
X55.88Y-79.248
X57.598Y-81.594
X58.42Y-90.424
X58.42Y-91.948
X60.5Y-130.5
X62.484Y-74.168
X65.532Y-97.028
X66.548Y-102.616
X68.0Y-79.915
X68.5Y-82.004
X68.5Y-83.5
X68.58Y-103.632
X70.0Y-129.0
X71.12Y-71.12
X71.12Y-78.74
X71.12Y-120.396
X71.5Y-97.5
X71.628Y-100.076
X72.5Y-87.0
X73.0Y-87.895
X73.5Y-95.0
X74.168Y-114.808
X75.0Y-85.0
X76.708Y-66.04
X76.708Y-112.268
X76.708Y-119.888
X78.74Y-83.312
X78.74Y-93.98
X80.264Y-73.66
X82.5Y-87.5
X82.804Y-116.84
X84.544Y-87.5
X85.852Y-80.264
X86.36Y-82.296
X88.392Y-91.948
X88.392Y-96.012
X89.408Y-94.488
X89.916Y-92.456
X90.932Y-116.332
X90.932Y-120.396
X92.456Y-79.756
X92.456Y-82.296
X95.53Y-113.792
X96.52Y-65.532
X96.52Y-73.152
X96.52Y-120.396
X97.536Y-88.9
X98.044Y-123.952
T2
X59.705Y-58.42
X60.96Y-78.74
X60.96Y-81.28
X60.96Y-83.82
X60.96Y-86.36
X60.96Y-88.9
X60.96Y-91.44
X60.96Y-93.98
X60.96Y-96.52
X60.96Y-99.06
X60.96Y-101.6
X60.96Y-104.14
X60.96Y-106.68
X60.96Y-109.22
X60.96Y-111.76
X60.96Y-114.3
X60.96Y-116.84
X60.96Y-119.38
X60.96Y-121.92
X60.96Y-124.46
X60.96Y-127.0
X62.245Y-58.42
X63.5Y-78.74
X63.5Y-81.28
X63.5Y-83.82
X63.5Y-86.36
X63.5Y-88.9
X63.5Y-91.44
X63.5Y-93.98
X63.5Y-96.52
X63.5Y-99.06
X63.5Y-101.6
X63.5Y-104.14
X63.5Y-106.68
X63.5Y-109.22
X63.5Y-111.76
X63.5Y-114.3
X63.5Y-116.84
X63.5Y-119.38
X63.5Y-121.92
X63.5Y-124.46
X63.5Y-127.0
X64.785Y-58.42
X67.325Y-58.42
X69.865Y-58.42
X71.12Y-106.68
X72.405Y-58.42
X73.66Y-106.68
X74.945Y-58.42
X76.2Y-106.68
X77.485Y-58.42
X81.28Y-129.54
X83.82Y-106.68
X83.82Y-129.54
X86.36Y-106.68
X86.36Y-129.54
X88.9Y-106.68
X88.9Y-129.54
X91.44Y-129.54
X93.98Y-129.54
X101.6Y-61.468
X101.6Y-64.008
X101.6Y-66.548
X101.6Y-73.66
X101.6Y-76.2
X101.6Y-78.74
X101.6Y-85.867
X101.6Y-88.407
X101.6Y-90.947
X101.6Y-96.52
X101.6Y-99.06
X101.6Y-101.6
X101.6Y-109.728
X101.6Y-112.268
X101.6Y-114.808
X101.6Y-120.396
X101.6Y-122.936
X101.6Y-125.476
T0
M30
