%TF.GenerationSoftware,KiCad,Pcbnew,7.0.1-0*%
%TF.CreationDate,2024-03-21T16:57:51-04:00*%
%TF.ProjectId,pihat,70696861-742e-46b6-9963-61645f706362,rev?*%
%TF.SameCoordinates,Original*%
%TF.FileFunction,Drillmap*%
%TF.FilePolarity,Positive*%
%FSLAX45Y45*%
G04 Gerber Fmt 4.5, Leading zero omitted, Abs format (unit mm)*
G04 Created by KiCad (PCBNEW 7.0.1-0) date 2024-03-21 16:57:51*
%MOMM*%
%LPD*%
G01*
G04 APERTURE LIST*
%ADD10C,0.100000*%
%ADD11C,0.200000*%
%ADD12C,0.040000*%
G04 APERTURE END LIST*
D10*
X5200000Y-5588000D02*
X10541000Y-5588000D01*
X10541000Y-13250000D01*
X5200000Y-13250000D01*
X5200000Y-5588000D01*
D11*
D12*
X5466400Y-12070400D02*
X5506400Y-12110400D01*
X5506400Y-12070400D02*
X5466400Y-12110400D01*
X5517200Y-9073200D02*
X5557200Y-9113200D01*
X5557200Y-9073200D02*
X5517200Y-9113200D01*
X5567950Y-7752400D02*
X5607950Y-7792400D01*
X5607950Y-7752400D02*
X5567950Y-7792400D01*
X5567950Y-7904800D02*
X5607950Y-7944800D01*
X5607950Y-7904800D02*
X5567950Y-7944800D01*
X5739810Y-8139390D02*
X5779810Y-8179390D01*
X5779810Y-8139390D02*
X5739810Y-8179390D01*
X5822000Y-9022400D02*
X5862000Y-9062400D01*
X5862000Y-9022400D02*
X5822000Y-9062400D01*
X5822000Y-9174800D02*
X5862000Y-9214800D01*
X5862000Y-9174800D02*
X5822000Y-9214800D01*
X6030000Y-13030000D02*
X6070000Y-13070000D01*
X6070000Y-13030000D02*
X6030000Y-13070000D01*
X6228400Y-7396800D02*
X6268400Y-7436800D01*
X6268400Y-7396800D02*
X6228400Y-7436800D01*
X6533200Y-9682800D02*
X6573200Y-9722800D01*
X6573200Y-9682800D02*
X6533200Y-9722800D01*
X6634800Y-10241600D02*
X6674800Y-10281600D01*
X6674800Y-10241600D02*
X6634800Y-10281600D01*
X6780000Y-7971500D02*
X6820000Y-8011500D01*
X6820000Y-7971500D02*
X6780000Y-8011500D01*
X6830000Y-8180450D02*
X6870000Y-8220450D01*
X6870000Y-8180450D02*
X6830000Y-8220450D01*
X6830000Y-8330000D02*
X6870000Y-8370000D01*
X6870000Y-8330000D02*
X6830000Y-8370000D01*
X6838000Y-10343200D02*
X6878000Y-10383200D01*
X6878000Y-10343200D02*
X6838000Y-10383200D01*
X6980000Y-12880000D02*
X7020000Y-12920000D01*
X7020000Y-12880000D02*
X6980000Y-12920000D01*
X7092000Y-7092000D02*
X7132000Y-7132000D01*
X7132000Y-7092000D02*
X7092000Y-7132000D01*
X7092000Y-7854000D02*
X7132000Y-7894000D01*
X7132000Y-7854000D02*
X7092000Y-7894000D01*
X7092000Y-12019600D02*
X7132000Y-12059600D01*
X7132000Y-12019600D02*
X7092000Y-12059600D01*
X7130000Y-9730000D02*
X7170000Y-9770000D01*
X7170000Y-9730000D02*
X7130000Y-9770000D01*
X7142800Y-9987600D02*
X7182800Y-10027600D01*
X7182800Y-9987600D02*
X7142800Y-10027600D01*
X7230000Y-8680000D02*
X7270000Y-8720000D01*
X7270000Y-8680000D02*
X7230000Y-8720000D01*
X7280000Y-8769550D02*
X7320000Y-8809550D01*
X7320000Y-8769550D02*
X7280000Y-8809550D01*
X7330000Y-9480000D02*
X7370000Y-9520000D01*
X7370000Y-9480000D02*
X7330000Y-9520000D01*
X7396800Y-11460800D02*
X7436800Y-11500800D01*
X7436800Y-11460800D02*
X7396800Y-11500800D01*
X7480000Y-8480000D02*
X7520000Y-8520000D01*
X7520000Y-8480000D02*
X7480000Y-8520000D01*
X7650800Y-6584000D02*
X7690800Y-6624000D01*
X7690800Y-6584000D02*
X7650800Y-6624000D01*
X7650800Y-11206800D02*
X7690800Y-11246800D01*
X7690800Y-11206800D02*
X7650800Y-11246800D01*
X7650800Y-11968800D02*
X7690800Y-12008800D01*
X7690800Y-11968800D02*
X7650800Y-12008800D01*
X7854000Y-8311200D02*
X7894000Y-8351200D01*
X7894000Y-8311200D02*
X7854000Y-8351200D01*
X7854000Y-9378000D02*
X7894000Y-9418000D01*
X7894000Y-9378000D02*
X7854000Y-9418000D01*
X8006400Y-7346000D02*
X8046400Y-7386000D01*
X8046400Y-7346000D02*
X8006400Y-7386000D01*
X8230000Y-8730000D02*
X8270000Y-8770000D01*
X8270000Y-8730000D02*
X8230000Y-8770000D01*
X8260400Y-11664000D02*
X8300400Y-11704000D01*
X8300400Y-11664000D02*
X8260400Y-11704000D01*
X8434450Y-8730000D02*
X8474450Y-8770000D01*
X8474450Y-8730000D02*
X8434450Y-8770000D01*
X8565200Y-8006400D02*
X8605200Y-8046400D01*
X8605200Y-8006400D02*
X8565200Y-8046400D01*
X8616000Y-8209600D02*
X8656000Y-8249600D01*
X8656000Y-8209600D02*
X8616000Y-8249600D01*
X8819200Y-9174800D02*
X8859200Y-9214800D01*
X8859200Y-9174800D02*
X8819200Y-9214800D01*
X8819200Y-9581200D02*
X8859200Y-9621200D01*
X8859200Y-9581200D02*
X8819200Y-9621200D01*
X8920800Y-9428800D02*
X8960800Y-9468800D01*
X8960800Y-9428800D02*
X8920800Y-9468800D01*
X8971600Y-9225600D02*
X9011600Y-9265600D01*
X9011600Y-9225600D02*
X8971600Y-9265600D01*
X9073200Y-11613200D02*
X9113200Y-11653200D01*
X9113200Y-11613200D02*
X9073200Y-11653200D01*
X9073200Y-12019600D02*
X9113200Y-12059600D01*
X9113200Y-12019600D02*
X9073200Y-12059600D01*
X9225600Y-7955600D02*
X9265600Y-7995600D01*
X9265600Y-7955600D02*
X9225600Y-7995600D01*
X9225600Y-8209600D02*
X9265600Y-8249600D01*
X9265600Y-8209600D02*
X9225600Y-8249600D01*
X9533000Y-11359200D02*
X9573000Y-11399200D01*
X9573000Y-11359200D02*
X9533000Y-11399200D01*
X9632000Y-6533200D02*
X9672000Y-6573200D01*
X9672000Y-6533200D02*
X9632000Y-6573200D01*
X9632000Y-7295200D02*
X9672000Y-7335200D01*
X9672000Y-7295200D02*
X9632000Y-7335200D01*
X9632000Y-12019600D02*
X9672000Y-12059600D01*
X9672000Y-12019600D02*
X9632000Y-12059600D01*
X9733600Y-8870000D02*
X9773600Y-8910000D01*
X9773600Y-8870000D02*
X9733600Y-8910000D01*
X9784400Y-12375200D02*
X9824400Y-12415200D01*
X9824400Y-12375200D02*
X9784400Y-12415200D01*
D10*
X6020500Y-5842000D02*
G75*
G03*
X6020500Y-5842000I-50000J0D01*
G01*
X6146000Y-7874000D02*
G75*
G03*
X6146000Y-7874000I-50000J0D01*
G01*
X6146000Y-8128000D02*
G75*
G03*
X6146000Y-8128000I-50000J0D01*
G01*
X6146000Y-8382000D02*
G75*
G03*
X6146000Y-8382000I-50000J0D01*
G01*
X6146000Y-8636000D02*
G75*
G03*
X6146000Y-8636000I-50000J0D01*
G01*
X6146000Y-8890000D02*
G75*
G03*
X6146000Y-8890000I-50000J0D01*
G01*
X6146000Y-9144000D02*
G75*
G03*
X6146000Y-9144000I-50000J0D01*
G01*
X6146000Y-9398000D02*
G75*
G03*
X6146000Y-9398000I-50000J0D01*
G01*
X6146000Y-9652000D02*
G75*
G03*
X6146000Y-9652000I-50000J0D01*
G01*
X6146000Y-9906000D02*
G75*
G03*
X6146000Y-9906000I-50000J0D01*
G01*
X6146000Y-10160000D02*
G75*
G03*
X6146000Y-10160000I-50000J0D01*
G01*
X6146000Y-10414000D02*
G75*
G03*
X6146000Y-10414000I-50000J0D01*
G01*
X6146000Y-10668000D02*
G75*
G03*
X6146000Y-10668000I-50000J0D01*
G01*
X6146000Y-10922000D02*
G75*
G03*
X6146000Y-10922000I-50000J0D01*
G01*
X6146000Y-11176000D02*
G75*
G03*
X6146000Y-11176000I-50000J0D01*
G01*
X6146000Y-11430000D02*
G75*
G03*
X6146000Y-11430000I-50000J0D01*
G01*
X6146000Y-11684000D02*
G75*
G03*
X6146000Y-11684000I-50000J0D01*
G01*
X6146000Y-11938000D02*
G75*
G03*
X6146000Y-11938000I-50000J0D01*
G01*
X6146000Y-12192000D02*
G75*
G03*
X6146000Y-12192000I-50000J0D01*
G01*
X6146000Y-12446000D02*
G75*
G03*
X6146000Y-12446000I-50000J0D01*
G01*
X6146000Y-12700000D02*
G75*
G03*
X6146000Y-12700000I-50000J0D01*
G01*
X6274500Y-5842000D02*
G75*
G03*
X6274500Y-5842000I-50000J0D01*
G01*
X6400000Y-7874000D02*
G75*
G03*
X6400000Y-7874000I-50000J0D01*
G01*
X6400000Y-8128000D02*
G75*
G03*
X6400000Y-8128000I-50000J0D01*
G01*
X6400000Y-8382000D02*
G75*
G03*
X6400000Y-8382000I-50000J0D01*
G01*
X6400000Y-8636000D02*
G75*
G03*
X6400000Y-8636000I-50000J0D01*
G01*
X6400000Y-8890000D02*
G75*
G03*
X6400000Y-8890000I-50000J0D01*
G01*
X6400000Y-9144000D02*
G75*
G03*
X6400000Y-9144000I-50000J0D01*
G01*
X6400000Y-9398000D02*
G75*
G03*
X6400000Y-9398000I-50000J0D01*
G01*
X6400000Y-9652000D02*
G75*
G03*
X6400000Y-9652000I-50000J0D01*
G01*
X6400000Y-9906000D02*
G75*
G03*
X6400000Y-9906000I-50000J0D01*
G01*
X6400000Y-10160000D02*
G75*
G03*
X6400000Y-10160000I-50000J0D01*
G01*
X6400000Y-10414000D02*
G75*
G03*
X6400000Y-10414000I-50000J0D01*
G01*
X6400000Y-10668000D02*
G75*
G03*
X6400000Y-10668000I-50000J0D01*
G01*
X6400000Y-10922000D02*
G75*
G03*
X6400000Y-10922000I-50000J0D01*
G01*
X6400000Y-11176000D02*
G75*
G03*
X6400000Y-11176000I-50000J0D01*
G01*
X6400000Y-11430000D02*
G75*
G03*
X6400000Y-11430000I-50000J0D01*
G01*
X6400000Y-11684000D02*
G75*
G03*
X6400000Y-11684000I-50000J0D01*
G01*
X6400000Y-11938000D02*
G75*
G03*
X6400000Y-11938000I-50000J0D01*
G01*
X6400000Y-12192000D02*
G75*
G03*
X6400000Y-12192000I-50000J0D01*
G01*
X6400000Y-12446000D02*
G75*
G03*
X6400000Y-12446000I-50000J0D01*
G01*
X6400000Y-12700000D02*
G75*
G03*
X6400000Y-12700000I-50000J0D01*
G01*
X6528500Y-5842000D02*
G75*
G03*
X6528500Y-5842000I-50000J0D01*
G01*
X6782500Y-5842000D02*
G75*
G03*
X6782500Y-5842000I-50000J0D01*
G01*
X7036500Y-5842000D02*
G75*
G03*
X7036500Y-5842000I-50000J0D01*
G01*
X7162000Y-10668000D02*
G75*
G03*
X7162000Y-10668000I-50000J0D01*
G01*
X7290500Y-5842000D02*
G75*
G03*
X7290500Y-5842000I-50000J0D01*
G01*
X7416000Y-10668000D02*
G75*
G03*
X7416000Y-10668000I-50000J0D01*
G01*
X7544500Y-5842000D02*
G75*
G03*
X7544500Y-5842000I-50000J0D01*
G01*
X7670000Y-10668000D02*
G75*
G03*
X7670000Y-10668000I-50000J0D01*
G01*
X7798500Y-5842000D02*
G75*
G03*
X7798500Y-5842000I-50000J0D01*
G01*
X8178000Y-12954000D02*
G75*
G03*
X8178000Y-12954000I-50000J0D01*
G01*
X8432000Y-10668000D02*
G75*
G03*
X8432000Y-10668000I-50000J0D01*
G01*
X8432000Y-12954000D02*
G75*
G03*
X8432000Y-12954000I-50000J0D01*
G01*
X8686000Y-10668000D02*
G75*
G03*
X8686000Y-10668000I-50000J0D01*
G01*
X8686000Y-12954000D02*
G75*
G03*
X8686000Y-12954000I-50000J0D01*
G01*
X8940000Y-10668000D02*
G75*
G03*
X8940000Y-10668000I-50000J0D01*
G01*
X8940000Y-12954000D02*
G75*
G03*
X8940000Y-12954000I-50000J0D01*
G01*
X9194000Y-12954000D02*
G75*
G03*
X9194000Y-12954000I-50000J0D01*
G01*
X9448000Y-12954000D02*
G75*
G03*
X9448000Y-12954000I-50000J0D01*
G01*
X10210000Y-6146800D02*
G75*
G03*
X10210000Y-6146800I-50000J0D01*
G01*
X10210000Y-6400800D02*
G75*
G03*
X10210000Y-6400800I-50000J0D01*
G01*
X10210000Y-6654800D02*
G75*
G03*
X10210000Y-6654800I-50000J0D01*
G01*
X10210000Y-7366000D02*
G75*
G03*
X10210000Y-7366000I-50000J0D01*
G01*
X10210000Y-7620000D02*
G75*
G03*
X10210000Y-7620000I-50000J0D01*
G01*
X10210000Y-7874000D02*
G75*
G03*
X10210000Y-7874000I-50000J0D01*
G01*
X10210000Y-8586700D02*
G75*
G03*
X10210000Y-8586700I-50000J0D01*
G01*
X10210000Y-8840700D02*
G75*
G03*
X10210000Y-8840700I-50000J0D01*
G01*
X10210000Y-9094700D02*
G75*
G03*
X10210000Y-9094700I-50000J0D01*
G01*
X10210000Y-9652000D02*
G75*
G03*
X10210000Y-9652000I-50000J0D01*
G01*
X10210000Y-9906000D02*
G75*
G03*
X10210000Y-9906000I-50000J0D01*
G01*
X10210000Y-10160000D02*
G75*
G03*
X10210000Y-10160000I-50000J0D01*
G01*
X10210000Y-10972800D02*
G75*
G03*
X10210000Y-10972800I-50000J0D01*
G01*
X10210000Y-11226800D02*
G75*
G03*
X10210000Y-11226800I-50000J0D01*
G01*
X10210000Y-11480800D02*
G75*
G03*
X10210000Y-11480800I-50000J0D01*
G01*
X10210000Y-12039600D02*
G75*
G03*
X10210000Y-12039600I-50000J0D01*
G01*
X10210000Y-12293600D02*
G75*
G03*
X10210000Y-12293600I-50000J0D01*
G01*
X10210000Y-12547600D02*
G75*
G03*
X10210000Y-12547600I-50000J0D01*
G01*
D11*
X5442619Y-13567524D02*
X5442619Y-13367524D01*
X5442619Y-13367524D02*
X5490238Y-13367524D01*
X5490238Y-13367524D02*
X5518810Y-13377048D01*
X5518810Y-13377048D02*
X5537857Y-13396095D01*
X5537857Y-13396095D02*
X5547381Y-13415143D01*
X5547381Y-13415143D02*
X5556905Y-13453238D01*
X5556905Y-13453238D02*
X5556905Y-13481809D01*
X5556905Y-13481809D02*
X5547381Y-13519905D01*
X5547381Y-13519905D02*
X5537857Y-13538952D01*
X5537857Y-13538952D02*
X5518810Y-13558000D01*
X5518810Y-13558000D02*
X5490238Y-13567524D01*
X5490238Y-13567524D02*
X5442619Y-13567524D01*
X5642619Y-13567524D02*
X5642619Y-13434190D01*
X5642619Y-13472286D02*
X5652143Y-13453238D01*
X5652143Y-13453238D02*
X5661667Y-13443714D01*
X5661667Y-13443714D02*
X5680714Y-13434190D01*
X5680714Y-13434190D02*
X5699762Y-13434190D01*
X5766428Y-13567524D02*
X5766428Y-13434190D01*
X5766428Y-13367524D02*
X5756905Y-13377048D01*
X5756905Y-13377048D02*
X5766428Y-13386571D01*
X5766428Y-13386571D02*
X5775952Y-13377048D01*
X5775952Y-13377048D02*
X5766428Y-13367524D01*
X5766428Y-13367524D02*
X5766428Y-13386571D01*
X5890238Y-13567524D02*
X5871190Y-13558000D01*
X5871190Y-13558000D02*
X5861667Y-13538952D01*
X5861667Y-13538952D02*
X5861667Y-13367524D01*
X5995000Y-13567524D02*
X5975952Y-13558000D01*
X5975952Y-13558000D02*
X5966428Y-13538952D01*
X5966428Y-13538952D02*
X5966428Y-13367524D01*
X6223571Y-13567524D02*
X6223571Y-13367524D01*
X6223571Y-13367524D02*
X6290238Y-13510381D01*
X6290238Y-13510381D02*
X6356905Y-13367524D01*
X6356905Y-13367524D02*
X6356905Y-13567524D01*
X6537857Y-13567524D02*
X6537857Y-13462762D01*
X6537857Y-13462762D02*
X6528333Y-13443714D01*
X6528333Y-13443714D02*
X6509286Y-13434190D01*
X6509286Y-13434190D02*
X6471190Y-13434190D01*
X6471190Y-13434190D02*
X6452143Y-13443714D01*
X6537857Y-13558000D02*
X6518809Y-13567524D01*
X6518809Y-13567524D02*
X6471190Y-13567524D01*
X6471190Y-13567524D02*
X6452143Y-13558000D01*
X6452143Y-13558000D02*
X6442619Y-13538952D01*
X6442619Y-13538952D02*
X6442619Y-13519905D01*
X6442619Y-13519905D02*
X6452143Y-13500857D01*
X6452143Y-13500857D02*
X6471190Y-13491333D01*
X6471190Y-13491333D02*
X6518809Y-13491333D01*
X6518809Y-13491333D02*
X6537857Y-13481809D01*
X6633095Y-13434190D02*
X6633095Y-13634190D01*
X6633095Y-13443714D02*
X6652143Y-13434190D01*
X6652143Y-13434190D02*
X6690238Y-13434190D01*
X6690238Y-13434190D02*
X6709286Y-13443714D01*
X6709286Y-13443714D02*
X6718809Y-13453238D01*
X6718809Y-13453238D02*
X6728333Y-13472286D01*
X6728333Y-13472286D02*
X6728333Y-13529428D01*
X6728333Y-13529428D02*
X6718809Y-13548476D01*
X6718809Y-13548476D02*
X6709286Y-13558000D01*
X6709286Y-13558000D02*
X6690238Y-13567524D01*
X6690238Y-13567524D02*
X6652143Y-13567524D01*
X6652143Y-13567524D02*
X6633095Y-13558000D01*
X6814048Y-13548476D02*
X6823571Y-13558000D01*
X6823571Y-13558000D02*
X6814048Y-13567524D01*
X6814048Y-13567524D02*
X6804524Y-13558000D01*
X6804524Y-13558000D02*
X6814048Y-13548476D01*
X6814048Y-13548476D02*
X6814048Y-13567524D01*
X6814048Y-13443714D02*
X6823571Y-13453238D01*
X6823571Y-13453238D02*
X6814048Y-13462762D01*
X6814048Y-13462762D02*
X6804524Y-13453238D01*
X6804524Y-13453238D02*
X6814048Y-13443714D01*
X6814048Y-13443714D02*
X6814048Y-13462762D01*
D12*
X5155000Y-13875000D02*
X5195000Y-13915000D01*
X5195000Y-13875000D02*
X5155000Y-13915000D01*
D11*
X5480714Y-13787524D02*
X5499762Y-13787524D01*
X5499762Y-13787524D02*
X5518810Y-13797048D01*
X5518810Y-13797048D02*
X5528333Y-13806571D01*
X5528333Y-13806571D02*
X5537857Y-13825619D01*
X5537857Y-13825619D02*
X5547381Y-13863714D01*
X5547381Y-13863714D02*
X5547381Y-13911333D01*
X5547381Y-13911333D02*
X5537857Y-13949428D01*
X5537857Y-13949428D02*
X5528333Y-13968476D01*
X5528333Y-13968476D02*
X5518810Y-13978000D01*
X5518810Y-13978000D02*
X5499762Y-13987524D01*
X5499762Y-13987524D02*
X5480714Y-13987524D01*
X5480714Y-13987524D02*
X5461667Y-13978000D01*
X5461667Y-13978000D02*
X5452143Y-13968476D01*
X5452143Y-13968476D02*
X5442619Y-13949428D01*
X5442619Y-13949428D02*
X5433095Y-13911333D01*
X5433095Y-13911333D02*
X5433095Y-13863714D01*
X5433095Y-13863714D02*
X5442619Y-13825619D01*
X5442619Y-13825619D02*
X5452143Y-13806571D01*
X5452143Y-13806571D02*
X5461667Y-13797048D01*
X5461667Y-13797048D02*
X5480714Y-13787524D01*
X5633095Y-13968476D02*
X5642619Y-13978000D01*
X5642619Y-13978000D02*
X5633095Y-13987524D01*
X5633095Y-13987524D02*
X5623571Y-13978000D01*
X5623571Y-13978000D02*
X5633095Y-13968476D01*
X5633095Y-13968476D02*
X5633095Y-13987524D01*
X5814048Y-13854190D02*
X5814048Y-13987524D01*
X5766428Y-13778000D02*
X5718809Y-13920857D01*
X5718809Y-13920857D02*
X5842619Y-13920857D01*
X5956905Y-13787524D02*
X5975952Y-13787524D01*
X5975952Y-13787524D02*
X5995000Y-13797048D01*
X5995000Y-13797048D02*
X6004524Y-13806571D01*
X6004524Y-13806571D02*
X6014048Y-13825619D01*
X6014048Y-13825619D02*
X6023571Y-13863714D01*
X6023571Y-13863714D02*
X6023571Y-13911333D01*
X6023571Y-13911333D02*
X6014048Y-13949428D01*
X6014048Y-13949428D02*
X6004524Y-13968476D01*
X6004524Y-13968476D02*
X5995000Y-13978000D01*
X5995000Y-13978000D02*
X5975952Y-13987524D01*
X5975952Y-13987524D02*
X5956905Y-13987524D01*
X5956905Y-13987524D02*
X5937857Y-13978000D01*
X5937857Y-13978000D02*
X5928333Y-13968476D01*
X5928333Y-13968476D02*
X5918809Y-13949428D01*
X5918809Y-13949428D02*
X5909286Y-13911333D01*
X5909286Y-13911333D02*
X5909286Y-13863714D01*
X5909286Y-13863714D02*
X5918809Y-13825619D01*
X5918809Y-13825619D02*
X5928333Y-13806571D01*
X5928333Y-13806571D02*
X5937857Y-13797048D01*
X5937857Y-13797048D02*
X5956905Y-13787524D01*
X6147381Y-13787524D02*
X6166429Y-13787524D01*
X6166429Y-13787524D02*
X6185476Y-13797048D01*
X6185476Y-13797048D02*
X6195000Y-13806571D01*
X6195000Y-13806571D02*
X6204524Y-13825619D01*
X6204524Y-13825619D02*
X6214048Y-13863714D01*
X6214048Y-13863714D02*
X6214048Y-13911333D01*
X6214048Y-13911333D02*
X6204524Y-13949428D01*
X6204524Y-13949428D02*
X6195000Y-13968476D01*
X6195000Y-13968476D02*
X6185476Y-13978000D01*
X6185476Y-13978000D02*
X6166429Y-13987524D01*
X6166429Y-13987524D02*
X6147381Y-13987524D01*
X6147381Y-13987524D02*
X6128333Y-13978000D01*
X6128333Y-13978000D02*
X6118809Y-13968476D01*
X6118809Y-13968476D02*
X6109286Y-13949428D01*
X6109286Y-13949428D02*
X6099762Y-13911333D01*
X6099762Y-13911333D02*
X6099762Y-13863714D01*
X6099762Y-13863714D02*
X6109286Y-13825619D01*
X6109286Y-13825619D02*
X6118809Y-13806571D01*
X6118809Y-13806571D02*
X6128333Y-13797048D01*
X6128333Y-13797048D02*
X6147381Y-13787524D01*
X6299762Y-13987524D02*
X6299762Y-13854190D01*
X6299762Y-13873238D02*
X6309286Y-13863714D01*
X6309286Y-13863714D02*
X6328333Y-13854190D01*
X6328333Y-13854190D02*
X6356905Y-13854190D01*
X6356905Y-13854190D02*
X6375952Y-13863714D01*
X6375952Y-13863714D02*
X6385476Y-13882762D01*
X6385476Y-13882762D02*
X6385476Y-13987524D01*
X6385476Y-13882762D02*
X6395000Y-13863714D01*
X6395000Y-13863714D02*
X6414048Y-13854190D01*
X6414048Y-13854190D02*
X6442619Y-13854190D01*
X6442619Y-13854190D02*
X6461667Y-13863714D01*
X6461667Y-13863714D02*
X6471190Y-13882762D01*
X6471190Y-13882762D02*
X6471190Y-13987524D01*
X6566429Y-13987524D02*
X6566429Y-13854190D01*
X6566429Y-13873238D02*
X6575952Y-13863714D01*
X6575952Y-13863714D02*
X6595000Y-13854190D01*
X6595000Y-13854190D02*
X6623571Y-13854190D01*
X6623571Y-13854190D02*
X6642619Y-13863714D01*
X6642619Y-13863714D02*
X6652143Y-13882762D01*
X6652143Y-13882762D02*
X6652143Y-13987524D01*
X6652143Y-13882762D02*
X6661667Y-13863714D01*
X6661667Y-13863714D02*
X6680714Y-13854190D01*
X6680714Y-13854190D02*
X6709286Y-13854190D01*
X6709286Y-13854190D02*
X6728333Y-13863714D01*
X6728333Y-13863714D02*
X6737857Y-13882762D01*
X6737857Y-13882762D02*
X6737857Y-13987524D01*
X7128333Y-13778000D02*
X6956905Y-14035143D01*
X7385476Y-13787524D02*
X7404524Y-13787524D01*
X7404524Y-13787524D02*
X7423572Y-13797048D01*
X7423572Y-13797048D02*
X7433095Y-13806571D01*
X7433095Y-13806571D02*
X7442619Y-13825619D01*
X7442619Y-13825619D02*
X7452143Y-13863714D01*
X7452143Y-13863714D02*
X7452143Y-13911333D01*
X7452143Y-13911333D02*
X7442619Y-13949428D01*
X7442619Y-13949428D02*
X7433095Y-13968476D01*
X7433095Y-13968476D02*
X7423572Y-13978000D01*
X7423572Y-13978000D02*
X7404524Y-13987524D01*
X7404524Y-13987524D02*
X7385476Y-13987524D01*
X7385476Y-13987524D02*
X7366429Y-13978000D01*
X7366429Y-13978000D02*
X7356905Y-13968476D01*
X7356905Y-13968476D02*
X7347381Y-13949428D01*
X7347381Y-13949428D02*
X7337857Y-13911333D01*
X7337857Y-13911333D02*
X7337857Y-13863714D01*
X7337857Y-13863714D02*
X7347381Y-13825619D01*
X7347381Y-13825619D02*
X7356905Y-13806571D01*
X7356905Y-13806571D02*
X7366429Y-13797048D01*
X7366429Y-13797048D02*
X7385476Y-13787524D01*
X7537857Y-13968476D02*
X7547381Y-13978000D01*
X7547381Y-13978000D02*
X7537857Y-13987524D01*
X7537857Y-13987524D02*
X7528333Y-13978000D01*
X7528333Y-13978000D02*
X7537857Y-13968476D01*
X7537857Y-13968476D02*
X7537857Y-13987524D01*
X7671191Y-13787524D02*
X7690238Y-13787524D01*
X7690238Y-13787524D02*
X7709286Y-13797048D01*
X7709286Y-13797048D02*
X7718810Y-13806571D01*
X7718810Y-13806571D02*
X7728333Y-13825619D01*
X7728333Y-13825619D02*
X7737857Y-13863714D01*
X7737857Y-13863714D02*
X7737857Y-13911333D01*
X7737857Y-13911333D02*
X7728333Y-13949428D01*
X7728333Y-13949428D02*
X7718810Y-13968476D01*
X7718810Y-13968476D02*
X7709286Y-13978000D01*
X7709286Y-13978000D02*
X7690238Y-13987524D01*
X7690238Y-13987524D02*
X7671191Y-13987524D01*
X7671191Y-13987524D02*
X7652143Y-13978000D01*
X7652143Y-13978000D02*
X7642619Y-13968476D01*
X7642619Y-13968476D02*
X7633095Y-13949428D01*
X7633095Y-13949428D02*
X7623572Y-13911333D01*
X7623572Y-13911333D02*
X7623572Y-13863714D01*
X7623572Y-13863714D02*
X7633095Y-13825619D01*
X7633095Y-13825619D02*
X7642619Y-13806571D01*
X7642619Y-13806571D02*
X7652143Y-13797048D01*
X7652143Y-13797048D02*
X7671191Y-13787524D01*
X7928333Y-13987524D02*
X7814048Y-13987524D01*
X7871191Y-13987524D02*
X7871191Y-13787524D01*
X7871191Y-13787524D02*
X7852143Y-13816095D01*
X7852143Y-13816095D02*
X7833095Y-13835143D01*
X7833095Y-13835143D02*
X7814048Y-13844667D01*
X8109286Y-13787524D02*
X8014048Y-13787524D01*
X8014048Y-13787524D02*
X8004524Y-13882762D01*
X8004524Y-13882762D02*
X8014048Y-13873238D01*
X8014048Y-13873238D02*
X8033095Y-13863714D01*
X8033095Y-13863714D02*
X8080714Y-13863714D01*
X8080714Y-13863714D02*
X8099762Y-13873238D01*
X8099762Y-13873238D02*
X8109286Y-13882762D01*
X8109286Y-13882762D02*
X8118810Y-13901809D01*
X8118810Y-13901809D02*
X8118810Y-13949428D01*
X8118810Y-13949428D02*
X8109286Y-13968476D01*
X8109286Y-13968476D02*
X8099762Y-13978000D01*
X8099762Y-13978000D02*
X8080714Y-13987524D01*
X8080714Y-13987524D02*
X8033095Y-13987524D01*
X8033095Y-13987524D02*
X8014048Y-13978000D01*
X8014048Y-13978000D02*
X8004524Y-13968476D01*
X8185476Y-13787524D02*
X8318810Y-13787524D01*
X8318810Y-13787524D02*
X8233095Y-13987524D01*
X8385476Y-13787524D02*
X8385476Y-13825619D01*
X8461667Y-13787524D02*
X8461667Y-13825619D01*
X8756905Y-14063714D02*
X8747381Y-14054190D01*
X8747381Y-14054190D02*
X8728334Y-14025619D01*
X8728334Y-14025619D02*
X8718810Y-14006571D01*
X8718810Y-14006571D02*
X8709286Y-13978000D01*
X8709286Y-13978000D02*
X8699762Y-13930381D01*
X8699762Y-13930381D02*
X8699762Y-13892286D01*
X8699762Y-13892286D02*
X8709286Y-13844667D01*
X8709286Y-13844667D02*
X8718810Y-13816095D01*
X8718810Y-13816095D02*
X8728334Y-13797048D01*
X8728334Y-13797048D02*
X8747381Y-13768476D01*
X8747381Y-13768476D02*
X8756905Y-13758952D01*
X8928334Y-13787524D02*
X8833096Y-13787524D01*
X8833096Y-13787524D02*
X8823572Y-13882762D01*
X8823572Y-13882762D02*
X8833096Y-13873238D01*
X8833096Y-13873238D02*
X8852143Y-13863714D01*
X8852143Y-13863714D02*
X8899762Y-13863714D01*
X8899762Y-13863714D02*
X8918810Y-13873238D01*
X8918810Y-13873238D02*
X8928334Y-13882762D01*
X8928334Y-13882762D02*
X8937857Y-13901809D01*
X8937857Y-13901809D02*
X8937857Y-13949428D01*
X8937857Y-13949428D02*
X8928334Y-13968476D01*
X8928334Y-13968476D02*
X8918810Y-13978000D01*
X8918810Y-13978000D02*
X8899762Y-13987524D01*
X8899762Y-13987524D02*
X8852143Y-13987524D01*
X8852143Y-13987524D02*
X8833096Y-13978000D01*
X8833096Y-13978000D02*
X8823572Y-13968476D01*
X9128334Y-13987524D02*
X9014048Y-13987524D01*
X9071191Y-13987524D02*
X9071191Y-13787524D01*
X9071191Y-13787524D02*
X9052143Y-13816095D01*
X9052143Y-13816095D02*
X9033096Y-13835143D01*
X9033096Y-13835143D02*
X9014048Y-13844667D01*
X9366429Y-13987524D02*
X9366429Y-13787524D01*
X9452143Y-13987524D02*
X9452143Y-13882762D01*
X9452143Y-13882762D02*
X9442619Y-13863714D01*
X9442619Y-13863714D02*
X9423572Y-13854190D01*
X9423572Y-13854190D02*
X9395000Y-13854190D01*
X9395000Y-13854190D02*
X9375953Y-13863714D01*
X9375953Y-13863714D02*
X9366429Y-13873238D01*
X9575953Y-13987524D02*
X9556905Y-13978000D01*
X9556905Y-13978000D02*
X9547381Y-13968476D01*
X9547381Y-13968476D02*
X9537858Y-13949428D01*
X9537858Y-13949428D02*
X9537858Y-13892286D01*
X9537858Y-13892286D02*
X9547381Y-13873238D01*
X9547381Y-13873238D02*
X9556905Y-13863714D01*
X9556905Y-13863714D02*
X9575953Y-13854190D01*
X9575953Y-13854190D02*
X9604524Y-13854190D01*
X9604524Y-13854190D02*
X9623572Y-13863714D01*
X9623572Y-13863714D02*
X9633096Y-13873238D01*
X9633096Y-13873238D02*
X9642619Y-13892286D01*
X9642619Y-13892286D02*
X9642619Y-13949428D01*
X9642619Y-13949428D02*
X9633096Y-13968476D01*
X9633096Y-13968476D02*
X9623572Y-13978000D01*
X9623572Y-13978000D02*
X9604524Y-13987524D01*
X9604524Y-13987524D02*
X9575953Y-13987524D01*
X9756905Y-13987524D02*
X9737858Y-13978000D01*
X9737858Y-13978000D02*
X9728334Y-13958952D01*
X9728334Y-13958952D02*
X9728334Y-13787524D01*
X9909286Y-13978000D02*
X9890239Y-13987524D01*
X9890239Y-13987524D02*
X9852143Y-13987524D01*
X9852143Y-13987524D02*
X9833096Y-13978000D01*
X9833096Y-13978000D02*
X9823572Y-13958952D01*
X9823572Y-13958952D02*
X9823572Y-13882762D01*
X9823572Y-13882762D02*
X9833096Y-13863714D01*
X9833096Y-13863714D02*
X9852143Y-13854190D01*
X9852143Y-13854190D02*
X9890239Y-13854190D01*
X9890239Y-13854190D02*
X9909286Y-13863714D01*
X9909286Y-13863714D02*
X9918810Y-13882762D01*
X9918810Y-13882762D02*
X9918810Y-13901809D01*
X9918810Y-13901809D02*
X9823572Y-13920857D01*
X9995000Y-13978000D02*
X10014048Y-13987524D01*
X10014048Y-13987524D02*
X10052143Y-13987524D01*
X10052143Y-13987524D02*
X10071191Y-13978000D01*
X10071191Y-13978000D02*
X10080715Y-13958952D01*
X10080715Y-13958952D02*
X10080715Y-13949428D01*
X10080715Y-13949428D02*
X10071191Y-13930381D01*
X10071191Y-13930381D02*
X10052143Y-13920857D01*
X10052143Y-13920857D02*
X10023572Y-13920857D01*
X10023572Y-13920857D02*
X10004524Y-13911333D01*
X10004524Y-13911333D02*
X9995000Y-13892286D01*
X9995000Y-13892286D02*
X9995000Y-13882762D01*
X9995000Y-13882762D02*
X10004524Y-13863714D01*
X10004524Y-13863714D02*
X10023572Y-13854190D01*
X10023572Y-13854190D02*
X10052143Y-13854190D01*
X10052143Y-13854190D02*
X10071191Y-13863714D01*
X10147381Y-14063714D02*
X10156905Y-14054190D01*
X10156905Y-14054190D02*
X10175953Y-14025619D01*
X10175953Y-14025619D02*
X10185477Y-14006571D01*
X10185477Y-14006571D02*
X10195000Y-13978000D01*
X10195000Y-13978000D02*
X10204524Y-13930381D01*
X10204524Y-13930381D02*
X10204524Y-13892286D01*
X10204524Y-13892286D02*
X10195000Y-13844667D01*
X10195000Y-13844667D02*
X10185477Y-13816095D01*
X10185477Y-13816095D02*
X10175953Y-13797048D01*
X10175953Y-13797048D02*
X10156905Y-13768476D01*
X10156905Y-13768476D02*
X10147381Y-13758952D01*
D10*
X5195000Y-14159000D02*
G75*
G03*
X5195000Y-14159000I-50000J0D01*
G01*
D11*
X5547381Y-14251524D02*
X5433095Y-14251524D01*
X5490238Y-14251524D02*
X5490238Y-14051524D01*
X5490238Y-14051524D02*
X5471190Y-14080095D01*
X5471190Y-14080095D02*
X5452143Y-14099143D01*
X5452143Y-14099143D02*
X5433095Y-14108667D01*
X5633095Y-14232476D02*
X5642619Y-14242000D01*
X5642619Y-14242000D02*
X5633095Y-14251524D01*
X5633095Y-14251524D02*
X5623571Y-14242000D01*
X5623571Y-14242000D02*
X5633095Y-14232476D01*
X5633095Y-14232476D02*
X5633095Y-14251524D01*
X5766428Y-14051524D02*
X5785476Y-14051524D01*
X5785476Y-14051524D02*
X5804524Y-14061048D01*
X5804524Y-14061048D02*
X5814048Y-14070571D01*
X5814048Y-14070571D02*
X5823571Y-14089619D01*
X5823571Y-14089619D02*
X5833095Y-14127714D01*
X5833095Y-14127714D02*
X5833095Y-14175333D01*
X5833095Y-14175333D02*
X5823571Y-14213428D01*
X5823571Y-14213428D02*
X5814048Y-14232476D01*
X5814048Y-14232476D02*
X5804524Y-14242000D01*
X5804524Y-14242000D02*
X5785476Y-14251524D01*
X5785476Y-14251524D02*
X5766428Y-14251524D01*
X5766428Y-14251524D02*
X5747381Y-14242000D01*
X5747381Y-14242000D02*
X5737857Y-14232476D01*
X5737857Y-14232476D02*
X5728333Y-14213428D01*
X5728333Y-14213428D02*
X5718809Y-14175333D01*
X5718809Y-14175333D02*
X5718809Y-14127714D01*
X5718809Y-14127714D02*
X5728333Y-14089619D01*
X5728333Y-14089619D02*
X5737857Y-14070571D01*
X5737857Y-14070571D02*
X5747381Y-14061048D01*
X5747381Y-14061048D02*
X5766428Y-14051524D01*
X5956905Y-14051524D02*
X5975952Y-14051524D01*
X5975952Y-14051524D02*
X5995000Y-14061048D01*
X5995000Y-14061048D02*
X6004524Y-14070571D01*
X6004524Y-14070571D02*
X6014048Y-14089619D01*
X6014048Y-14089619D02*
X6023571Y-14127714D01*
X6023571Y-14127714D02*
X6023571Y-14175333D01*
X6023571Y-14175333D02*
X6014048Y-14213428D01*
X6014048Y-14213428D02*
X6004524Y-14232476D01*
X6004524Y-14232476D02*
X5995000Y-14242000D01*
X5995000Y-14242000D02*
X5975952Y-14251524D01*
X5975952Y-14251524D02*
X5956905Y-14251524D01*
X5956905Y-14251524D02*
X5937857Y-14242000D01*
X5937857Y-14242000D02*
X5928333Y-14232476D01*
X5928333Y-14232476D02*
X5918809Y-14213428D01*
X5918809Y-14213428D02*
X5909286Y-14175333D01*
X5909286Y-14175333D02*
X5909286Y-14127714D01*
X5909286Y-14127714D02*
X5918809Y-14089619D01*
X5918809Y-14089619D02*
X5928333Y-14070571D01*
X5928333Y-14070571D02*
X5937857Y-14061048D01*
X5937857Y-14061048D02*
X5956905Y-14051524D01*
X6147381Y-14051524D02*
X6166429Y-14051524D01*
X6166429Y-14051524D02*
X6185476Y-14061048D01*
X6185476Y-14061048D02*
X6195000Y-14070571D01*
X6195000Y-14070571D02*
X6204524Y-14089619D01*
X6204524Y-14089619D02*
X6214048Y-14127714D01*
X6214048Y-14127714D02*
X6214048Y-14175333D01*
X6214048Y-14175333D02*
X6204524Y-14213428D01*
X6204524Y-14213428D02*
X6195000Y-14232476D01*
X6195000Y-14232476D02*
X6185476Y-14242000D01*
X6185476Y-14242000D02*
X6166429Y-14251524D01*
X6166429Y-14251524D02*
X6147381Y-14251524D01*
X6147381Y-14251524D02*
X6128333Y-14242000D01*
X6128333Y-14242000D02*
X6118809Y-14232476D01*
X6118809Y-14232476D02*
X6109286Y-14213428D01*
X6109286Y-14213428D02*
X6099762Y-14175333D01*
X6099762Y-14175333D02*
X6099762Y-14127714D01*
X6099762Y-14127714D02*
X6109286Y-14089619D01*
X6109286Y-14089619D02*
X6118809Y-14070571D01*
X6118809Y-14070571D02*
X6128333Y-14061048D01*
X6128333Y-14061048D02*
X6147381Y-14051524D01*
X6299762Y-14251524D02*
X6299762Y-14118190D01*
X6299762Y-14137238D02*
X6309286Y-14127714D01*
X6309286Y-14127714D02*
X6328333Y-14118190D01*
X6328333Y-14118190D02*
X6356905Y-14118190D01*
X6356905Y-14118190D02*
X6375952Y-14127714D01*
X6375952Y-14127714D02*
X6385476Y-14146762D01*
X6385476Y-14146762D02*
X6385476Y-14251524D01*
X6385476Y-14146762D02*
X6395000Y-14127714D01*
X6395000Y-14127714D02*
X6414048Y-14118190D01*
X6414048Y-14118190D02*
X6442619Y-14118190D01*
X6442619Y-14118190D02*
X6461667Y-14127714D01*
X6461667Y-14127714D02*
X6471190Y-14146762D01*
X6471190Y-14146762D02*
X6471190Y-14251524D01*
X6566429Y-14251524D02*
X6566429Y-14118190D01*
X6566429Y-14137238D02*
X6575952Y-14127714D01*
X6575952Y-14127714D02*
X6595000Y-14118190D01*
X6595000Y-14118190D02*
X6623571Y-14118190D01*
X6623571Y-14118190D02*
X6642619Y-14127714D01*
X6642619Y-14127714D02*
X6652143Y-14146762D01*
X6652143Y-14146762D02*
X6652143Y-14251524D01*
X6652143Y-14146762D02*
X6661667Y-14127714D01*
X6661667Y-14127714D02*
X6680714Y-14118190D01*
X6680714Y-14118190D02*
X6709286Y-14118190D01*
X6709286Y-14118190D02*
X6728333Y-14127714D01*
X6728333Y-14127714D02*
X6737857Y-14146762D01*
X6737857Y-14146762D02*
X6737857Y-14251524D01*
X7128333Y-14042000D02*
X6956905Y-14299143D01*
X7385476Y-14051524D02*
X7404524Y-14051524D01*
X7404524Y-14051524D02*
X7423572Y-14061048D01*
X7423572Y-14061048D02*
X7433095Y-14070571D01*
X7433095Y-14070571D02*
X7442619Y-14089619D01*
X7442619Y-14089619D02*
X7452143Y-14127714D01*
X7452143Y-14127714D02*
X7452143Y-14175333D01*
X7452143Y-14175333D02*
X7442619Y-14213428D01*
X7442619Y-14213428D02*
X7433095Y-14232476D01*
X7433095Y-14232476D02*
X7423572Y-14242000D01*
X7423572Y-14242000D02*
X7404524Y-14251524D01*
X7404524Y-14251524D02*
X7385476Y-14251524D01*
X7385476Y-14251524D02*
X7366429Y-14242000D01*
X7366429Y-14242000D02*
X7356905Y-14232476D01*
X7356905Y-14232476D02*
X7347381Y-14213428D01*
X7347381Y-14213428D02*
X7337857Y-14175333D01*
X7337857Y-14175333D02*
X7337857Y-14127714D01*
X7337857Y-14127714D02*
X7347381Y-14089619D01*
X7347381Y-14089619D02*
X7356905Y-14070571D01*
X7356905Y-14070571D02*
X7366429Y-14061048D01*
X7366429Y-14061048D02*
X7385476Y-14051524D01*
X7537857Y-14232476D02*
X7547381Y-14242000D01*
X7547381Y-14242000D02*
X7537857Y-14251524D01*
X7537857Y-14251524D02*
X7528333Y-14242000D01*
X7528333Y-14242000D02*
X7537857Y-14232476D01*
X7537857Y-14232476D02*
X7537857Y-14251524D01*
X7671191Y-14051524D02*
X7690238Y-14051524D01*
X7690238Y-14051524D02*
X7709286Y-14061048D01*
X7709286Y-14061048D02*
X7718810Y-14070571D01*
X7718810Y-14070571D02*
X7728333Y-14089619D01*
X7728333Y-14089619D02*
X7737857Y-14127714D01*
X7737857Y-14127714D02*
X7737857Y-14175333D01*
X7737857Y-14175333D02*
X7728333Y-14213428D01*
X7728333Y-14213428D02*
X7718810Y-14232476D01*
X7718810Y-14232476D02*
X7709286Y-14242000D01*
X7709286Y-14242000D02*
X7690238Y-14251524D01*
X7690238Y-14251524D02*
X7671191Y-14251524D01*
X7671191Y-14251524D02*
X7652143Y-14242000D01*
X7652143Y-14242000D02*
X7642619Y-14232476D01*
X7642619Y-14232476D02*
X7633095Y-14213428D01*
X7633095Y-14213428D02*
X7623572Y-14175333D01*
X7623572Y-14175333D02*
X7623572Y-14127714D01*
X7623572Y-14127714D02*
X7633095Y-14089619D01*
X7633095Y-14089619D02*
X7642619Y-14070571D01*
X7642619Y-14070571D02*
X7652143Y-14061048D01*
X7652143Y-14061048D02*
X7671191Y-14051524D01*
X7804524Y-14051524D02*
X7928333Y-14051524D01*
X7928333Y-14051524D02*
X7861667Y-14127714D01*
X7861667Y-14127714D02*
X7890238Y-14127714D01*
X7890238Y-14127714D02*
X7909286Y-14137238D01*
X7909286Y-14137238D02*
X7918810Y-14146762D01*
X7918810Y-14146762D02*
X7928333Y-14165809D01*
X7928333Y-14165809D02*
X7928333Y-14213428D01*
X7928333Y-14213428D02*
X7918810Y-14232476D01*
X7918810Y-14232476D02*
X7909286Y-14242000D01*
X7909286Y-14242000D02*
X7890238Y-14251524D01*
X7890238Y-14251524D02*
X7833095Y-14251524D01*
X7833095Y-14251524D02*
X7814048Y-14242000D01*
X7814048Y-14242000D02*
X7804524Y-14232476D01*
X8023572Y-14251524D02*
X8061667Y-14251524D01*
X8061667Y-14251524D02*
X8080714Y-14242000D01*
X8080714Y-14242000D02*
X8090238Y-14232476D01*
X8090238Y-14232476D02*
X8109286Y-14203905D01*
X8109286Y-14203905D02*
X8118810Y-14165809D01*
X8118810Y-14165809D02*
X8118810Y-14089619D01*
X8118810Y-14089619D02*
X8109286Y-14070571D01*
X8109286Y-14070571D02*
X8099762Y-14061048D01*
X8099762Y-14061048D02*
X8080714Y-14051524D01*
X8080714Y-14051524D02*
X8042619Y-14051524D01*
X8042619Y-14051524D02*
X8023572Y-14061048D01*
X8023572Y-14061048D02*
X8014048Y-14070571D01*
X8014048Y-14070571D02*
X8004524Y-14089619D01*
X8004524Y-14089619D02*
X8004524Y-14137238D01*
X8004524Y-14137238D02*
X8014048Y-14156286D01*
X8014048Y-14156286D02*
X8023572Y-14165809D01*
X8023572Y-14165809D02*
X8042619Y-14175333D01*
X8042619Y-14175333D02*
X8080714Y-14175333D01*
X8080714Y-14175333D02*
X8099762Y-14165809D01*
X8099762Y-14165809D02*
X8109286Y-14156286D01*
X8109286Y-14156286D02*
X8118810Y-14137238D01*
X8290238Y-14118190D02*
X8290238Y-14251524D01*
X8242619Y-14042000D02*
X8195000Y-14184857D01*
X8195000Y-14184857D02*
X8318810Y-14184857D01*
X8385476Y-14051524D02*
X8385476Y-14089619D01*
X8461667Y-14051524D02*
X8461667Y-14089619D01*
X8756905Y-14327714D02*
X8747381Y-14318190D01*
X8747381Y-14318190D02*
X8728334Y-14289619D01*
X8728334Y-14289619D02*
X8718810Y-14270571D01*
X8718810Y-14270571D02*
X8709286Y-14242000D01*
X8709286Y-14242000D02*
X8699762Y-14194381D01*
X8699762Y-14194381D02*
X8699762Y-14156286D01*
X8699762Y-14156286D02*
X8709286Y-14108667D01*
X8709286Y-14108667D02*
X8718810Y-14080095D01*
X8718810Y-14080095D02*
X8728334Y-14061048D01*
X8728334Y-14061048D02*
X8747381Y-14032476D01*
X8747381Y-14032476D02*
X8756905Y-14022952D01*
X8814048Y-14051524D02*
X8947381Y-14051524D01*
X8947381Y-14051524D02*
X8861667Y-14251524D01*
X9052143Y-14137238D02*
X9033096Y-14127714D01*
X9033096Y-14127714D02*
X9023572Y-14118190D01*
X9023572Y-14118190D02*
X9014048Y-14099143D01*
X9014048Y-14099143D02*
X9014048Y-14089619D01*
X9014048Y-14089619D02*
X9023572Y-14070571D01*
X9023572Y-14070571D02*
X9033096Y-14061048D01*
X9033096Y-14061048D02*
X9052143Y-14051524D01*
X9052143Y-14051524D02*
X9090238Y-14051524D01*
X9090238Y-14051524D02*
X9109286Y-14061048D01*
X9109286Y-14061048D02*
X9118810Y-14070571D01*
X9118810Y-14070571D02*
X9128334Y-14089619D01*
X9128334Y-14089619D02*
X9128334Y-14099143D01*
X9128334Y-14099143D02*
X9118810Y-14118190D01*
X9118810Y-14118190D02*
X9109286Y-14127714D01*
X9109286Y-14127714D02*
X9090238Y-14137238D01*
X9090238Y-14137238D02*
X9052143Y-14137238D01*
X9052143Y-14137238D02*
X9033096Y-14146762D01*
X9033096Y-14146762D02*
X9023572Y-14156286D01*
X9023572Y-14156286D02*
X9014048Y-14175333D01*
X9014048Y-14175333D02*
X9014048Y-14213428D01*
X9014048Y-14213428D02*
X9023572Y-14232476D01*
X9023572Y-14232476D02*
X9033096Y-14242000D01*
X9033096Y-14242000D02*
X9052143Y-14251524D01*
X9052143Y-14251524D02*
X9090238Y-14251524D01*
X9090238Y-14251524D02*
X9109286Y-14242000D01*
X9109286Y-14242000D02*
X9118810Y-14232476D01*
X9118810Y-14232476D02*
X9128334Y-14213428D01*
X9128334Y-14213428D02*
X9128334Y-14175333D01*
X9128334Y-14175333D02*
X9118810Y-14156286D01*
X9118810Y-14156286D02*
X9109286Y-14146762D01*
X9109286Y-14146762D02*
X9090238Y-14137238D01*
X9366429Y-14251524D02*
X9366429Y-14051524D01*
X9452143Y-14251524D02*
X9452143Y-14146762D01*
X9452143Y-14146762D02*
X9442619Y-14127714D01*
X9442619Y-14127714D02*
X9423572Y-14118190D01*
X9423572Y-14118190D02*
X9395000Y-14118190D01*
X9395000Y-14118190D02*
X9375953Y-14127714D01*
X9375953Y-14127714D02*
X9366429Y-14137238D01*
X9575953Y-14251524D02*
X9556905Y-14242000D01*
X9556905Y-14242000D02*
X9547381Y-14232476D01*
X9547381Y-14232476D02*
X9537858Y-14213428D01*
X9537858Y-14213428D02*
X9537858Y-14156286D01*
X9537858Y-14156286D02*
X9547381Y-14137238D01*
X9547381Y-14137238D02*
X9556905Y-14127714D01*
X9556905Y-14127714D02*
X9575953Y-14118190D01*
X9575953Y-14118190D02*
X9604524Y-14118190D01*
X9604524Y-14118190D02*
X9623572Y-14127714D01*
X9623572Y-14127714D02*
X9633096Y-14137238D01*
X9633096Y-14137238D02*
X9642619Y-14156286D01*
X9642619Y-14156286D02*
X9642619Y-14213428D01*
X9642619Y-14213428D02*
X9633096Y-14232476D01*
X9633096Y-14232476D02*
X9623572Y-14242000D01*
X9623572Y-14242000D02*
X9604524Y-14251524D01*
X9604524Y-14251524D02*
X9575953Y-14251524D01*
X9756905Y-14251524D02*
X9737858Y-14242000D01*
X9737858Y-14242000D02*
X9728334Y-14222952D01*
X9728334Y-14222952D02*
X9728334Y-14051524D01*
X9909286Y-14242000D02*
X9890239Y-14251524D01*
X9890239Y-14251524D02*
X9852143Y-14251524D01*
X9852143Y-14251524D02*
X9833096Y-14242000D01*
X9833096Y-14242000D02*
X9823572Y-14222952D01*
X9823572Y-14222952D02*
X9823572Y-14146762D01*
X9823572Y-14146762D02*
X9833096Y-14127714D01*
X9833096Y-14127714D02*
X9852143Y-14118190D01*
X9852143Y-14118190D02*
X9890239Y-14118190D01*
X9890239Y-14118190D02*
X9909286Y-14127714D01*
X9909286Y-14127714D02*
X9918810Y-14146762D01*
X9918810Y-14146762D02*
X9918810Y-14165809D01*
X9918810Y-14165809D02*
X9823572Y-14184857D01*
X9995000Y-14242000D02*
X10014048Y-14251524D01*
X10014048Y-14251524D02*
X10052143Y-14251524D01*
X10052143Y-14251524D02*
X10071191Y-14242000D01*
X10071191Y-14242000D02*
X10080715Y-14222952D01*
X10080715Y-14222952D02*
X10080715Y-14213428D01*
X10080715Y-14213428D02*
X10071191Y-14194381D01*
X10071191Y-14194381D02*
X10052143Y-14184857D01*
X10052143Y-14184857D02*
X10023572Y-14184857D01*
X10023572Y-14184857D02*
X10004524Y-14175333D01*
X10004524Y-14175333D02*
X9995000Y-14156286D01*
X9995000Y-14156286D02*
X9995000Y-14146762D01*
X9995000Y-14146762D02*
X10004524Y-14127714D01*
X10004524Y-14127714D02*
X10023572Y-14118190D01*
X10023572Y-14118190D02*
X10052143Y-14118190D01*
X10052143Y-14118190D02*
X10071191Y-14127714D01*
X10147381Y-14327714D02*
X10156905Y-14318190D01*
X10156905Y-14318190D02*
X10175953Y-14289619D01*
X10175953Y-14289619D02*
X10185477Y-14270571D01*
X10185477Y-14270571D02*
X10195000Y-14242000D01*
X10195000Y-14242000D02*
X10204524Y-14194381D01*
X10204524Y-14194381D02*
X10204524Y-14156286D01*
X10204524Y-14156286D02*
X10195000Y-14108667D01*
X10195000Y-14108667D02*
X10185477Y-14080095D01*
X10185477Y-14080095D02*
X10175953Y-14061048D01*
X10175953Y-14061048D02*
X10156905Y-14032476D01*
X10156905Y-14032476D02*
X10147381Y-14022952D01*
M02*
