%TF.GenerationSoftware,KiCad,Pcbnew,7.0.1-0*%
%TF.CreationDate,2024-03-21T16:56:53-04:00*%
%TF.ProjectId,pihat,70696861-742e-46b6-9963-61645f706362,rev?*%
%TF.SameCoordinates,Original*%
%TF.FileFunction,Soldermask,Top*%
%TF.FilePolarity,Negative*%
%FSLAX46Y46*%
G04 Gerber Fmt 4.6, Leading zero omitted, Abs format (unit mm)*
G04 Created by KiCad (PCBNEW 7.0.1-0) date 2024-03-21 16:56:53*
%MOMM*%
%LPD*%
G01*
G04 APERTURE LIST*
G04 Aperture macros list*
%AMRoundRect*
0 Rectangle with rounded corners*
0 $1 Rounding radius*
0 $2 $3 $4 $5 $6 $7 $8 $9 X,Y pos of 4 corners*
0 Add a 4 corners polygon primitive as box body*
4,1,4,$2,$3,$4,$5,$6,$7,$8,$9,$2,$3,0*
0 Add four circle primitives for the rounded corners*
1,1,$1+$1,$2,$3*
1,1,$1+$1,$4,$5*
1,1,$1+$1,$6,$7*
1,1,$1+$1,$8,$9*
0 Add four rect primitives between the rounded corners*
20,1,$1+$1,$2,$3,$4,$5,0*
20,1,$1+$1,$4,$5,$6,$7,0*
20,1,$1+$1,$6,$7,$8,$9,0*
20,1,$1+$1,$8,$9,$2,$3,0*%
G04 Aperture macros list end*
%ADD10R,0.800000X0.300000*%
%ADD11RoundRect,0.200000X0.200000X0.275000X-0.200000X0.275000X-0.200000X-0.275000X0.200000X-0.275000X0*%
%ADD12RoundRect,0.200000X0.275000X-0.200000X0.275000X0.200000X-0.275000X0.200000X-0.275000X-0.200000X0*%
%ADD13R,1.700000X1.700000*%
%ADD14O,1.700000X1.700000*%
%ADD15R,0.330200X0.304800*%
%ADD16R,0.304800X0.330200*%
%ADD17RoundRect,0.250000X0.475000X-0.250000X0.475000X0.250000X-0.475000X0.250000X-0.475000X-0.250000X0*%
%ADD18RoundRect,0.250000X-0.250000X-0.475000X0.250000X-0.475000X0.250000X0.475000X-0.250000X0.475000X0*%
%ADD19RoundRect,0.116000X-0.231000X-0.161000X0.231000X-0.161000X0.231000X0.161000X-0.231000X0.161000X0*%
%ADD20RoundRect,0.116000X0.161000X-0.231000X0.161000X0.231000X-0.161000X0.231000X-0.161000X-0.231000X0*%
%ADD21RoundRect,0.116000X0.231000X0.161000X-0.231000X0.161000X-0.231000X-0.161000X0.231000X-0.161000X0*%
%ADD22RoundRect,0.116000X-0.161000X0.231000X-0.161000X-0.231000X0.161000X-0.231000X0.161000X0.231000X0*%
%ADD23R,0.800000X0.200000*%
%ADD24R,0.200000X0.800000*%
%ADD25R,1.800000X1.800000*%
%ADD26RoundRect,0.200000X-0.275000X0.200000X-0.275000X-0.200000X0.275000X-0.200000X0.275000X0.200000X0*%
%ADD27RoundRect,0.250000X0.250000X0.475000X-0.250000X0.475000X-0.250000X-0.475000X0.250000X-0.475000X0*%
G04 APERTURE END LIST*
D10*
%TO.C,U1*%
X94540000Y-71006400D03*
X94540000Y-70506400D03*
X94540000Y-70006400D03*
X94540000Y-69506400D03*
X91440000Y-69506400D03*
X91440000Y-70006400D03*
X91440000Y-70506400D03*
X91440000Y-71006400D03*
%TD*%
D11*
%TO.C,R2*%
X73660000Y-111760000D03*
X72010000Y-111760000D03*
%TD*%
D12*
%TO.C,R8*%
X66040000Y-63500000D03*
X66040000Y-61850000D03*
%TD*%
D13*
%TO.C,J6*%
X101600000Y-120396000D03*
D14*
X101600000Y-122936000D03*
X101600000Y-125476000D03*
%TD*%
D10*
%TO.C,U5*%
X94540000Y-92440000D03*
X94540000Y-91940000D03*
X94540000Y-91440000D03*
X94540000Y-90940000D03*
X91440000Y-90940000D03*
X91440000Y-91440000D03*
X91440000Y-91940000D03*
X91440000Y-92440000D03*
%TD*%
D15*
%TO.C,U4*%
X74680201Y-96519999D03*
X74680201Y-97020000D03*
X74680201Y-97520000D03*
X74680201Y-98020001D03*
D16*
X75190100Y-98029899D03*
X75690100Y-98029899D03*
D15*
X76199999Y-98020001D03*
X76199999Y-97520000D03*
X76199999Y-97020000D03*
X76199999Y-96519999D03*
D16*
X75690100Y-96510101D03*
X75190100Y-96510101D03*
%TD*%
D17*
%TO.C,C1*%
X78740000Y-97470000D03*
X78740000Y-95570000D03*
%TD*%
D13*
%TO.C,U2*%
X71120000Y-106680000D03*
D14*
X73660000Y-106680000D03*
X76200000Y-106680000D03*
%TD*%
D12*
%TO.C,R9*%
X63500000Y-63500000D03*
X63500000Y-61850000D03*
%TD*%
D13*
%TO.C,J2*%
X101600000Y-73660000D03*
D14*
X101600000Y-76200000D03*
X101600000Y-78740000D03*
%TD*%
D12*
%TO.C,R13*%
X57404000Y-88709000D03*
X57404000Y-87059000D03*
%TD*%
D13*
%TO.C,J8*%
X81280000Y-129540000D03*
D14*
X83820000Y-129540000D03*
X86360000Y-129540000D03*
X88900000Y-129540000D03*
X91440000Y-129540000D03*
X93980000Y-129540000D03*
%TD*%
D18*
%TO.C,C14*%
X93030000Y-66040000D03*
X94930000Y-66040000D03*
%TD*%
%TO.C,C16*%
X93980000Y-88900000D03*
X95880000Y-88900000D03*
%TD*%
D17*
%TO.C,C5*%
X83820000Y-84770000D03*
X83820000Y-82870000D03*
%TD*%
D13*
%TO.C,J7*%
X101600000Y-109728000D03*
D14*
X101600000Y-112268000D03*
X101600000Y-114808000D03*
%TD*%
D19*
%TO.C,U6*%
X74440000Y-86620000D03*
X74440000Y-87120000D03*
X74440000Y-87620000D03*
X74440000Y-88120000D03*
X74440000Y-88620000D03*
D20*
X75200000Y-88880000D03*
X75700000Y-88880000D03*
X76200000Y-88880000D03*
D21*
X76960000Y-88620000D03*
X76960000Y-88120000D03*
X76960000Y-87620000D03*
X76960000Y-87120000D03*
X76960000Y-86620000D03*
D22*
X76200000Y-86360000D03*
X75700000Y-86360000D03*
X75200000Y-86360000D03*
%TD*%
D17*
%TO.C,C10*%
X77216000Y-70612000D03*
X77216000Y-68712000D03*
%TD*%
%TO.C,C9*%
X74676000Y-70612000D03*
X74676000Y-68712000D03*
%TD*%
D23*
%TO.C,IC1*%
X69826000Y-72936000D03*
X69826000Y-72536000D03*
X69826000Y-72136000D03*
X69826000Y-71736000D03*
X69826000Y-71336000D03*
D24*
X69126000Y-70636000D03*
X68726000Y-70636000D03*
X68326000Y-70636000D03*
X67926000Y-70636000D03*
X67526000Y-70636000D03*
D23*
X66826000Y-71336000D03*
X66826000Y-71736000D03*
X66826000Y-72136000D03*
X66826000Y-72536000D03*
X66826000Y-72936000D03*
D24*
X67526000Y-73636000D03*
X67926000Y-73636000D03*
X68326000Y-73636000D03*
X68726000Y-73636000D03*
X69126000Y-73636000D03*
D25*
X68326000Y-72136000D03*
%TD*%
D17*
%TO.C,C8*%
X77216000Y-74544000D03*
X77216000Y-72644000D03*
%TD*%
D13*
%TO.C,J9*%
X59705000Y-58420000D03*
D14*
X62245000Y-58420000D03*
X64785000Y-58420000D03*
X67325000Y-58420000D03*
X69865000Y-58420000D03*
X72405000Y-58420000D03*
X74945000Y-58420000D03*
X77485000Y-58420000D03*
%TD*%
D12*
%TO.C,R5*%
X73660000Y-63500000D03*
X73660000Y-61850000D03*
%TD*%
D17*
%TO.C,C17*%
X87950000Y-117790000D03*
X87950000Y-115890000D03*
%TD*%
D18*
%TO.C,C18*%
X93030000Y-111760000D03*
X94930000Y-111760000D03*
%TD*%
D17*
%TO.C,C12*%
X77216000Y-78608000D03*
X77216000Y-76708000D03*
%TD*%
D26*
%TO.C,R15*%
X71120000Y-88075000D03*
X71120000Y-89725000D03*
%TD*%
D17*
%TO.C,C7*%
X74676000Y-74544000D03*
X74676000Y-72644000D03*
%TD*%
D13*
%TO.C,J5*%
X101600000Y-85867000D03*
D14*
X101600000Y-88407000D03*
X101600000Y-90947000D03*
%TD*%
D12*
%TO.C,R14*%
X71120000Y-94805000D03*
X71120000Y-93155000D03*
%TD*%
D10*
%TO.C,U7*%
X95530000Y-117078000D03*
X95530000Y-116578000D03*
X95530000Y-116078000D03*
X95530000Y-115578000D03*
X92430000Y-115578000D03*
X92430000Y-116078000D03*
X92430000Y-116578000D03*
X92430000Y-117078000D03*
%TD*%
D17*
%TO.C,C4*%
X81280000Y-84770000D03*
X81280000Y-82870000D03*
%TD*%
D12*
%TO.C,R4*%
X76200000Y-63500000D03*
X76200000Y-61850000D03*
%TD*%
%TO.C,R12*%
X57404000Y-85153000D03*
X57404000Y-83503000D03*
%TD*%
D13*
%TO.C,J3*%
X101600000Y-61468000D03*
D14*
X101600000Y-64008000D03*
X101600000Y-66548000D03*
%TD*%
D17*
%TO.C,C15*%
X86360000Y-93340000D03*
X86360000Y-91440000D03*
%TD*%
D12*
%TO.C,R6*%
X71120000Y-63500000D03*
X71120000Y-61850000D03*
%TD*%
D18*
%TO.C,C6*%
X79380000Y-88900000D03*
X81280000Y-88900000D03*
%TD*%
D12*
%TO.C,R10*%
X60960000Y-63500000D03*
X60960000Y-61850000D03*
%TD*%
D13*
%TO.C,U3*%
X83820000Y-106680000D03*
D14*
X86360000Y-106680000D03*
X88900000Y-106680000D03*
%TD*%
D27*
%TO.C,C2*%
X93980000Y-124460000D03*
X92080000Y-124460000D03*
%TD*%
D11*
%TO.C,R1*%
X88010000Y-111760000D03*
X86360000Y-111760000D03*
%TD*%
D17*
%TO.C,C11*%
X74676000Y-78608000D03*
X74676000Y-76708000D03*
%TD*%
D12*
%TO.C,R7*%
X68580000Y-63500000D03*
X68580000Y-61850000D03*
%TD*%
D18*
%TO.C,C13*%
X79050000Y-115000000D03*
X80950000Y-115000000D03*
%TD*%
D26*
%TO.C,R11*%
X59944000Y-72327000D03*
X59944000Y-73977000D03*
%TD*%
D18*
%TO.C,C3*%
X75250000Y-83312000D03*
X77150000Y-83312000D03*
%TD*%
D12*
%TO.C,R3*%
X78740000Y-63500000D03*
X78740000Y-61850000D03*
%TD*%
D13*
%TO.C,J4*%
X101600000Y-96520000D03*
D14*
X101600000Y-99060000D03*
X101600000Y-101600000D03*
%TD*%
D13*
%TO.C,J1*%
X60960000Y-78740000D03*
D14*
X63500000Y-78740000D03*
X60960000Y-81280000D03*
X63500000Y-81280000D03*
X60960000Y-83820000D03*
X63500000Y-83820000D03*
X60960000Y-86360000D03*
X63500000Y-86360000D03*
X60960000Y-88900000D03*
X63500000Y-88900000D03*
X60960000Y-91440000D03*
X63500000Y-91440000D03*
X60960000Y-93980000D03*
X63500000Y-93980000D03*
X60960000Y-96520000D03*
X63500000Y-96520000D03*
X60960000Y-99060000D03*
X63500000Y-99060000D03*
X60960000Y-101600000D03*
X63500000Y-101600000D03*
X60960000Y-104140000D03*
X63500000Y-104140000D03*
X60960000Y-106680000D03*
X63500000Y-106680000D03*
X60960000Y-109220000D03*
X63500000Y-109220000D03*
X60960000Y-111760000D03*
X63500000Y-111760000D03*
X60960000Y-114300000D03*
X63500000Y-114300000D03*
X60960000Y-116840000D03*
X63500000Y-116840000D03*
X60960000Y-119380000D03*
X63500000Y-119380000D03*
X60960000Y-121920000D03*
X63500000Y-121920000D03*
X60960000Y-124460000D03*
X63500000Y-124460000D03*
X60960000Y-127000000D03*
X63500000Y-127000000D03*
%TD*%
M02*
