%TF.GenerationSoftware,KiCad,Pcbnew,7.0.1-0*%
%TF.CreationDate,2024-03-21T16:56:53-04:00*%
%TF.ProjectId,pihat,70696861-742e-46b6-9963-61645f706362,rev?*%
%TF.SameCoordinates,Original*%
%TF.FileFunction,Legend,Bot*%
%TF.FilePolarity,Positive*%
%FSLAX46Y46*%
G04 Gerber Fmt 4.6, Leading zero omitted, Abs format (unit mm)*
G04 Created by KiCad (PCBNEW 7.0.1-0) date 2024-03-21 16:56:53*
%MOMM*%
%LPD*%
G01*
G04 APERTURE LIST*
%ADD10C,0.150000*%
%ADD11C,0.120000*%
%ADD12R,1.700000X1.700000*%
%ADD13O,1.700000X1.700000*%
G04 APERTURE END LIST*
D10*
%TO.C,J1*%
X62563333Y-75432619D02*
X62563333Y-76146904D01*
X62563333Y-76146904D02*
X62610952Y-76289761D01*
X62610952Y-76289761D02*
X62706190Y-76385000D01*
X62706190Y-76385000D02*
X62849047Y-76432619D01*
X62849047Y-76432619D02*
X62944285Y-76432619D01*
X61563333Y-76432619D02*
X62134761Y-76432619D01*
X61849047Y-76432619D02*
X61849047Y-75432619D01*
X61849047Y-75432619D02*
X61944285Y-75575476D01*
X61944285Y-75575476D02*
X62039523Y-75670714D01*
X62039523Y-75670714D02*
X62134761Y-75718333D01*
D11*
X64830000Y-128330000D02*
X59630000Y-128330000D01*
X64830000Y-77410000D02*
X64830000Y-128330000D01*
X64830000Y-77410000D02*
X62230000Y-77410000D01*
X62230000Y-80010000D02*
X59630000Y-80010000D01*
X62230000Y-77410000D02*
X62230000Y-80010000D01*
X60960000Y-77410000D02*
X59630000Y-77410000D01*
X59630000Y-80010000D02*
X59630000Y-128330000D01*
X59630000Y-77410000D02*
X59630000Y-78740000D01*
%TD*%
%LPC*%
D12*
%TO.C,J6*%
X101600000Y-120396000D03*
D13*
X101600000Y-122936000D03*
X101600000Y-125476000D03*
%TD*%
D12*
%TO.C,U2*%
X71120000Y-106680000D03*
D13*
X73660000Y-106680000D03*
X76200000Y-106680000D03*
%TD*%
D12*
%TO.C,J2*%
X101600000Y-73660000D03*
D13*
X101600000Y-76200000D03*
X101600000Y-78740000D03*
%TD*%
D12*
%TO.C,J8*%
X81280000Y-129540000D03*
D13*
X83820000Y-129540000D03*
X86360000Y-129540000D03*
X88900000Y-129540000D03*
X91440000Y-129540000D03*
X93980000Y-129540000D03*
%TD*%
D12*
%TO.C,J7*%
X101600000Y-109728000D03*
D13*
X101600000Y-112268000D03*
X101600000Y-114808000D03*
%TD*%
D12*
%TO.C,J9*%
X59705000Y-58420000D03*
D13*
X62245000Y-58420000D03*
X64785000Y-58420000D03*
X67325000Y-58420000D03*
X69865000Y-58420000D03*
X72405000Y-58420000D03*
X74945000Y-58420000D03*
X77485000Y-58420000D03*
%TD*%
D12*
%TO.C,J5*%
X101600000Y-85867000D03*
D13*
X101600000Y-88407000D03*
X101600000Y-90947000D03*
%TD*%
D12*
%TO.C,J3*%
X101600000Y-61468000D03*
D13*
X101600000Y-64008000D03*
X101600000Y-66548000D03*
%TD*%
D12*
%TO.C,U3*%
X83820000Y-106680000D03*
D13*
X86360000Y-106680000D03*
X88900000Y-106680000D03*
%TD*%
D12*
%TO.C,J4*%
X101600000Y-96520000D03*
D13*
X101600000Y-99060000D03*
X101600000Y-101600000D03*
%TD*%
D12*
%TO.C,J1*%
X60960000Y-78740000D03*
D13*
X63500000Y-78740000D03*
X60960000Y-81280000D03*
X63500000Y-81280000D03*
X60960000Y-83820000D03*
X63500000Y-83820000D03*
X60960000Y-86360000D03*
X63500000Y-86360000D03*
X60960000Y-88900000D03*
X63500000Y-88900000D03*
X60960000Y-91440000D03*
X63500000Y-91440000D03*
X60960000Y-93980000D03*
X63500000Y-93980000D03*
X60960000Y-96520000D03*
X63500000Y-96520000D03*
X60960000Y-99060000D03*
X63500000Y-99060000D03*
X60960000Y-101600000D03*
X63500000Y-101600000D03*
X60960000Y-104140000D03*
X63500000Y-104140000D03*
X60960000Y-106680000D03*
X63500000Y-106680000D03*
X60960000Y-109220000D03*
X63500000Y-109220000D03*
X60960000Y-111760000D03*
X63500000Y-111760000D03*
X60960000Y-114300000D03*
X63500000Y-114300000D03*
X60960000Y-116840000D03*
X63500000Y-116840000D03*
X60960000Y-119380000D03*
X63500000Y-119380000D03*
X60960000Y-121920000D03*
X63500000Y-121920000D03*
X60960000Y-124460000D03*
X63500000Y-124460000D03*
X60960000Y-127000000D03*
X63500000Y-127000000D03*
%TD*%
M02*
