%TF.GenerationSoftware,KiCad,Pcbnew,7.0.1-0*%
%TF.CreationDate,2024-03-21T16:56:53-04:00*%
%TF.ProjectId,pihat,70696861-742e-46b6-9963-61645f706362,rev?*%
%TF.SameCoordinates,Original*%
%TF.FileFunction,Legend,Top*%
%TF.FilePolarity,Positive*%
%FSLAX46Y46*%
G04 Gerber Fmt 4.6, Leading zero omitted, Abs format (unit mm)*
G04 Created by KiCad (PCBNEW 7.0.1-0) date 2024-03-21 16:56:53*
%MOMM*%
%LPD*%
G01*
G04 APERTURE LIST*
G04 Aperture macros list*
%AMRoundRect*
0 Rectangle with rounded corners*
0 $1 Rounding radius*
0 $2 $3 $4 $5 $6 $7 $8 $9 X,Y pos of 4 corners*
0 Add a 4 corners polygon primitive as box body*
4,1,4,$2,$3,$4,$5,$6,$7,$8,$9,$2,$3,0*
0 Add four circle primitives for the rounded corners*
1,1,$1+$1,$2,$3*
1,1,$1+$1,$4,$5*
1,1,$1+$1,$6,$7*
1,1,$1+$1,$8,$9*
0 Add four rect primitives between the rounded corners*
20,1,$1+$1,$2,$3,$4,$5,0*
20,1,$1+$1,$4,$5,$6,$7,0*
20,1,$1+$1,$6,$7,$8,$9,0*
20,1,$1+$1,$8,$9,$2,$3,0*%
G04 Aperture macros list end*
%ADD10C,0.150000*%
%ADD11C,0.120224*%
%ADD12C,0.254000*%
%ADD13C,0.120000*%
%ADD14C,0.127000*%
%ADD15C,0.100000*%
%ADD16C,0.200000*%
%ADD17R,0.800000X0.300000*%
%ADD18RoundRect,0.200000X0.200000X0.275000X-0.200000X0.275000X-0.200000X-0.275000X0.200000X-0.275000X0*%
%ADD19RoundRect,0.200000X0.275000X-0.200000X0.275000X0.200000X-0.275000X0.200000X-0.275000X-0.200000X0*%
%ADD20R,1.700000X1.700000*%
%ADD21O,1.700000X1.700000*%
%ADD22R,0.330200X0.304800*%
%ADD23R,0.304800X0.330200*%
%ADD24RoundRect,0.250000X0.475000X-0.250000X0.475000X0.250000X-0.475000X0.250000X-0.475000X-0.250000X0*%
%ADD25RoundRect,0.250000X-0.250000X-0.475000X0.250000X-0.475000X0.250000X0.475000X-0.250000X0.475000X0*%
%ADD26RoundRect,0.116000X-0.231000X-0.161000X0.231000X-0.161000X0.231000X0.161000X-0.231000X0.161000X0*%
%ADD27RoundRect,0.116000X0.161000X-0.231000X0.161000X0.231000X-0.161000X0.231000X-0.161000X-0.231000X0*%
%ADD28RoundRect,0.116000X0.231000X0.161000X-0.231000X0.161000X-0.231000X-0.161000X0.231000X-0.161000X0*%
%ADD29RoundRect,0.116000X-0.161000X0.231000X-0.161000X-0.231000X0.161000X-0.231000X0.161000X0.231000X0*%
%ADD30R,0.800000X0.200000*%
%ADD31R,0.200000X0.800000*%
%ADD32R,1.800000X1.800000*%
%ADD33RoundRect,0.200000X-0.275000X0.200000X-0.275000X-0.200000X0.275000X-0.200000X0.275000X0.200000X0*%
%ADD34RoundRect,0.250000X0.250000X0.475000X-0.250000X0.475000X-0.250000X-0.475000X0.250000X-0.475000X0*%
G04 APERTURE END LIST*
D10*
%TO.C,U1*%
X92228095Y-71719019D02*
X92228095Y-72528542D01*
X92228095Y-72528542D02*
X92275714Y-72623780D01*
X92275714Y-72623780D02*
X92323333Y-72671400D01*
X92323333Y-72671400D02*
X92418571Y-72719019D01*
X92418571Y-72719019D02*
X92609047Y-72719019D01*
X92609047Y-72719019D02*
X92704285Y-72671400D01*
X92704285Y-72671400D02*
X92751904Y-72623780D01*
X92751904Y-72623780D02*
X92799523Y-72528542D01*
X92799523Y-72528542D02*
X92799523Y-71719019D01*
X93799523Y-72719019D02*
X93228095Y-72719019D01*
X93513809Y-72719019D02*
X93513809Y-71719019D01*
X93513809Y-71719019D02*
X93418571Y-71861876D01*
X93418571Y-71861876D02*
X93323333Y-71957114D01*
X93323333Y-71957114D02*
X93228095Y-72004733D01*
%TO.C,R2*%
X72668333Y-113652619D02*
X72335000Y-113176428D01*
X72096905Y-113652619D02*
X72096905Y-112652619D01*
X72096905Y-112652619D02*
X72477857Y-112652619D01*
X72477857Y-112652619D02*
X72573095Y-112700238D01*
X72573095Y-112700238D02*
X72620714Y-112747857D01*
X72620714Y-112747857D02*
X72668333Y-112843095D01*
X72668333Y-112843095D02*
X72668333Y-112985952D01*
X72668333Y-112985952D02*
X72620714Y-113081190D01*
X72620714Y-113081190D02*
X72573095Y-113128809D01*
X72573095Y-113128809D02*
X72477857Y-113176428D01*
X72477857Y-113176428D02*
X72096905Y-113176428D01*
X73049286Y-112747857D02*
X73096905Y-112700238D01*
X73096905Y-112700238D02*
X73192143Y-112652619D01*
X73192143Y-112652619D02*
X73430238Y-112652619D01*
X73430238Y-112652619D02*
X73525476Y-112700238D01*
X73525476Y-112700238D02*
X73573095Y-112747857D01*
X73573095Y-112747857D02*
X73620714Y-112843095D01*
X73620714Y-112843095D02*
X73620714Y-112938333D01*
X73620714Y-112938333D02*
X73573095Y-113081190D01*
X73573095Y-113081190D02*
X73001667Y-113652619D01*
X73001667Y-113652619D02*
X73620714Y-113652619D01*
%TO.C,R8*%
X66502619Y-66206666D02*
X66026428Y-66539999D01*
X66502619Y-66778094D02*
X65502619Y-66778094D01*
X65502619Y-66778094D02*
X65502619Y-66397142D01*
X65502619Y-66397142D02*
X65550238Y-66301904D01*
X65550238Y-66301904D02*
X65597857Y-66254285D01*
X65597857Y-66254285D02*
X65693095Y-66206666D01*
X65693095Y-66206666D02*
X65835952Y-66206666D01*
X65835952Y-66206666D02*
X65931190Y-66254285D01*
X65931190Y-66254285D02*
X65978809Y-66301904D01*
X65978809Y-66301904D02*
X66026428Y-66397142D01*
X66026428Y-66397142D02*
X66026428Y-66778094D01*
X65931190Y-65635237D02*
X65883571Y-65730475D01*
X65883571Y-65730475D02*
X65835952Y-65778094D01*
X65835952Y-65778094D02*
X65740714Y-65825713D01*
X65740714Y-65825713D02*
X65693095Y-65825713D01*
X65693095Y-65825713D02*
X65597857Y-65778094D01*
X65597857Y-65778094D02*
X65550238Y-65730475D01*
X65550238Y-65730475D02*
X65502619Y-65635237D01*
X65502619Y-65635237D02*
X65502619Y-65444761D01*
X65502619Y-65444761D02*
X65550238Y-65349523D01*
X65550238Y-65349523D02*
X65597857Y-65301904D01*
X65597857Y-65301904D02*
X65693095Y-65254285D01*
X65693095Y-65254285D02*
X65740714Y-65254285D01*
X65740714Y-65254285D02*
X65835952Y-65301904D01*
X65835952Y-65301904D02*
X65883571Y-65349523D01*
X65883571Y-65349523D02*
X65931190Y-65444761D01*
X65931190Y-65444761D02*
X65931190Y-65635237D01*
X65931190Y-65635237D02*
X65978809Y-65730475D01*
X65978809Y-65730475D02*
X66026428Y-65778094D01*
X66026428Y-65778094D02*
X66121666Y-65825713D01*
X66121666Y-65825713D02*
X66312142Y-65825713D01*
X66312142Y-65825713D02*
X66407380Y-65778094D01*
X66407380Y-65778094D02*
X66455000Y-65730475D01*
X66455000Y-65730475D02*
X66502619Y-65635237D01*
X66502619Y-65635237D02*
X66502619Y-65444761D01*
X66502619Y-65444761D02*
X66455000Y-65349523D01*
X66455000Y-65349523D02*
X66407380Y-65301904D01*
X66407380Y-65301904D02*
X66312142Y-65254285D01*
X66312142Y-65254285D02*
X66121666Y-65254285D01*
X66121666Y-65254285D02*
X66026428Y-65301904D01*
X66026428Y-65301904D02*
X65978809Y-65349523D01*
X65978809Y-65349523D02*
X65931190Y-65444761D01*
%TO.C,J6*%
X101266666Y-117528619D02*
X101266666Y-118242904D01*
X101266666Y-118242904D02*
X101219047Y-118385761D01*
X101219047Y-118385761D02*
X101123809Y-118481000D01*
X101123809Y-118481000D02*
X100980952Y-118528619D01*
X100980952Y-118528619D02*
X100885714Y-118528619D01*
X102171428Y-117528619D02*
X101980952Y-117528619D01*
X101980952Y-117528619D02*
X101885714Y-117576238D01*
X101885714Y-117576238D02*
X101838095Y-117623857D01*
X101838095Y-117623857D02*
X101742857Y-117766714D01*
X101742857Y-117766714D02*
X101695238Y-117957190D01*
X101695238Y-117957190D02*
X101695238Y-118338142D01*
X101695238Y-118338142D02*
X101742857Y-118433380D01*
X101742857Y-118433380D02*
X101790476Y-118481000D01*
X101790476Y-118481000D02*
X101885714Y-118528619D01*
X101885714Y-118528619D02*
X102076190Y-118528619D01*
X102076190Y-118528619D02*
X102171428Y-118481000D01*
X102171428Y-118481000D02*
X102219047Y-118433380D01*
X102219047Y-118433380D02*
X102266666Y-118338142D01*
X102266666Y-118338142D02*
X102266666Y-118100047D01*
X102266666Y-118100047D02*
X102219047Y-118004809D01*
X102219047Y-118004809D02*
X102171428Y-117957190D01*
X102171428Y-117957190D02*
X102076190Y-117909571D01*
X102076190Y-117909571D02*
X101885714Y-117909571D01*
X101885714Y-117909571D02*
X101790476Y-117957190D01*
X101790476Y-117957190D02*
X101742857Y-118004809D01*
X101742857Y-118004809D02*
X101695238Y-118100047D01*
%TO.C,U5*%
X92228095Y-93152619D02*
X92228095Y-93962142D01*
X92228095Y-93962142D02*
X92275714Y-94057380D01*
X92275714Y-94057380D02*
X92323333Y-94105000D01*
X92323333Y-94105000D02*
X92418571Y-94152619D01*
X92418571Y-94152619D02*
X92609047Y-94152619D01*
X92609047Y-94152619D02*
X92704285Y-94105000D01*
X92704285Y-94105000D02*
X92751904Y-94057380D01*
X92751904Y-94057380D02*
X92799523Y-93962142D01*
X92799523Y-93962142D02*
X92799523Y-93152619D01*
X93751904Y-93152619D02*
X93275714Y-93152619D01*
X93275714Y-93152619D02*
X93228095Y-93628809D01*
X93228095Y-93628809D02*
X93275714Y-93581190D01*
X93275714Y-93581190D02*
X93370952Y-93533571D01*
X93370952Y-93533571D02*
X93609047Y-93533571D01*
X93609047Y-93533571D02*
X93704285Y-93581190D01*
X93704285Y-93581190D02*
X93751904Y-93628809D01*
X93751904Y-93628809D02*
X93799523Y-93724047D01*
X93799523Y-93724047D02*
X93799523Y-93962142D01*
X93799523Y-93962142D02*
X93751904Y-94057380D01*
X93751904Y-94057380D02*
X93704285Y-94105000D01*
X93704285Y-94105000D02*
X93609047Y-94152619D01*
X93609047Y-94152619D02*
X93370952Y-94152619D01*
X93370952Y-94152619D02*
X93275714Y-94105000D01*
X93275714Y-94105000D02*
X93228095Y-94057380D01*
%TO.C,U4*%
X74678195Y-94192619D02*
X74678195Y-95002142D01*
X74678195Y-95002142D02*
X74725814Y-95097380D01*
X74725814Y-95097380D02*
X74773433Y-95145000D01*
X74773433Y-95145000D02*
X74868671Y-95192619D01*
X74868671Y-95192619D02*
X75059147Y-95192619D01*
X75059147Y-95192619D02*
X75154385Y-95145000D01*
X75154385Y-95145000D02*
X75202004Y-95097380D01*
X75202004Y-95097380D02*
X75249623Y-95002142D01*
X75249623Y-95002142D02*
X75249623Y-94192619D01*
X76154385Y-94525952D02*
X76154385Y-95192619D01*
X75916290Y-94145000D02*
X75678195Y-94859285D01*
X75678195Y-94859285D02*
X76297242Y-94859285D01*
X73880100Y-95732619D02*
X73880100Y-95970714D01*
X73642005Y-95875476D02*
X73880100Y-95970714D01*
X73880100Y-95970714D02*
X74118195Y-95875476D01*
X73737243Y-96161190D02*
X73880100Y-95970714D01*
X73880100Y-95970714D02*
X74022957Y-96161190D01*
X73880100Y-95732619D02*
X73880100Y-95970714D01*
X73642005Y-95875476D02*
X73880100Y-95970714D01*
X73880100Y-95970714D02*
X74118195Y-95875476D01*
X73737243Y-96161190D02*
X73880100Y-95970714D01*
X73880100Y-95970714D02*
X74022957Y-96161190D01*
%TO.C,C1*%
X80387380Y-94146666D02*
X80435000Y-94194285D01*
X80435000Y-94194285D02*
X80482619Y-94337142D01*
X80482619Y-94337142D02*
X80482619Y-94432380D01*
X80482619Y-94432380D02*
X80435000Y-94575237D01*
X80435000Y-94575237D02*
X80339761Y-94670475D01*
X80339761Y-94670475D02*
X80244523Y-94718094D01*
X80244523Y-94718094D02*
X80054047Y-94765713D01*
X80054047Y-94765713D02*
X79911190Y-94765713D01*
X79911190Y-94765713D02*
X79720714Y-94718094D01*
X79720714Y-94718094D02*
X79625476Y-94670475D01*
X79625476Y-94670475D02*
X79530238Y-94575237D01*
X79530238Y-94575237D02*
X79482619Y-94432380D01*
X79482619Y-94432380D02*
X79482619Y-94337142D01*
X79482619Y-94337142D02*
X79530238Y-94194285D01*
X79530238Y-94194285D02*
X79577857Y-94146666D01*
X80482619Y-93194285D02*
X80482619Y-93765713D01*
X80482619Y-93479999D02*
X79482619Y-93479999D01*
X79482619Y-93479999D02*
X79625476Y-93575237D01*
X79625476Y-93575237D02*
X79720714Y-93670475D01*
X79720714Y-93670475D02*
X79768333Y-93765713D01*
%TO.C,U2*%
X68252619Y-107441904D02*
X69062142Y-107441904D01*
X69062142Y-107441904D02*
X69157380Y-107394285D01*
X69157380Y-107394285D02*
X69205000Y-107346666D01*
X69205000Y-107346666D02*
X69252619Y-107251428D01*
X69252619Y-107251428D02*
X69252619Y-107060952D01*
X69252619Y-107060952D02*
X69205000Y-106965714D01*
X69205000Y-106965714D02*
X69157380Y-106918095D01*
X69157380Y-106918095D02*
X69062142Y-106870476D01*
X69062142Y-106870476D02*
X68252619Y-106870476D01*
X68347857Y-106441904D02*
X68300238Y-106394285D01*
X68300238Y-106394285D02*
X68252619Y-106299047D01*
X68252619Y-106299047D02*
X68252619Y-106060952D01*
X68252619Y-106060952D02*
X68300238Y-105965714D01*
X68300238Y-105965714D02*
X68347857Y-105918095D01*
X68347857Y-105918095D02*
X68443095Y-105870476D01*
X68443095Y-105870476D02*
X68538333Y-105870476D01*
X68538333Y-105870476D02*
X68681190Y-105918095D01*
X68681190Y-105918095D02*
X69252619Y-106489523D01*
X69252619Y-106489523D02*
X69252619Y-105870476D01*
%TO.C,R9*%
X63962619Y-66206666D02*
X63486428Y-66539999D01*
X63962619Y-66778094D02*
X62962619Y-66778094D01*
X62962619Y-66778094D02*
X62962619Y-66397142D01*
X62962619Y-66397142D02*
X63010238Y-66301904D01*
X63010238Y-66301904D02*
X63057857Y-66254285D01*
X63057857Y-66254285D02*
X63153095Y-66206666D01*
X63153095Y-66206666D02*
X63295952Y-66206666D01*
X63295952Y-66206666D02*
X63391190Y-66254285D01*
X63391190Y-66254285D02*
X63438809Y-66301904D01*
X63438809Y-66301904D02*
X63486428Y-66397142D01*
X63486428Y-66397142D02*
X63486428Y-66778094D01*
X63962619Y-65730475D02*
X63962619Y-65539999D01*
X63962619Y-65539999D02*
X63915000Y-65444761D01*
X63915000Y-65444761D02*
X63867380Y-65397142D01*
X63867380Y-65397142D02*
X63724523Y-65301904D01*
X63724523Y-65301904D02*
X63534047Y-65254285D01*
X63534047Y-65254285D02*
X63153095Y-65254285D01*
X63153095Y-65254285D02*
X63057857Y-65301904D01*
X63057857Y-65301904D02*
X63010238Y-65349523D01*
X63010238Y-65349523D02*
X62962619Y-65444761D01*
X62962619Y-65444761D02*
X62962619Y-65635237D01*
X62962619Y-65635237D02*
X63010238Y-65730475D01*
X63010238Y-65730475D02*
X63057857Y-65778094D01*
X63057857Y-65778094D02*
X63153095Y-65825713D01*
X63153095Y-65825713D02*
X63391190Y-65825713D01*
X63391190Y-65825713D02*
X63486428Y-65778094D01*
X63486428Y-65778094D02*
X63534047Y-65730475D01*
X63534047Y-65730475D02*
X63581666Y-65635237D01*
X63581666Y-65635237D02*
X63581666Y-65444761D01*
X63581666Y-65444761D02*
X63534047Y-65349523D01*
X63534047Y-65349523D02*
X63486428Y-65301904D01*
X63486428Y-65301904D02*
X63391190Y-65254285D01*
%TO.C,J2*%
X101266666Y-70792619D02*
X101266666Y-71506904D01*
X101266666Y-71506904D02*
X101219047Y-71649761D01*
X101219047Y-71649761D02*
X101123809Y-71745000D01*
X101123809Y-71745000D02*
X100980952Y-71792619D01*
X100980952Y-71792619D02*
X100885714Y-71792619D01*
X101695238Y-70887857D02*
X101742857Y-70840238D01*
X101742857Y-70840238D02*
X101838095Y-70792619D01*
X101838095Y-70792619D02*
X102076190Y-70792619D01*
X102076190Y-70792619D02*
X102171428Y-70840238D01*
X102171428Y-70840238D02*
X102219047Y-70887857D01*
X102219047Y-70887857D02*
X102266666Y-70983095D01*
X102266666Y-70983095D02*
X102266666Y-71078333D01*
X102266666Y-71078333D02*
X102219047Y-71221190D01*
X102219047Y-71221190D02*
X101647619Y-71792619D01*
X101647619Y-71792619D02*
X102266666Y-71792619D01*
%TO.C,R13*%
X56436619Y-88526857D02*
X55960428Y-88860190D01*
X56436619Y-89098285D02*
X55436619Y-89098285D01*
X55436619Y-89098285D02*
X55436619Y-88717333D01*
X55436619Y-88717333D02*
X55484238Y-88622095D01*
X55484238Y-88622095D02*
X55531857Y-88574476D01*
X55531857Y-88574476D02*
X55627095Y-88526857D01*
X55627095Y-88526857D02*
X55769952Y-88526857D01*
X55769952Y-88526857D02*
X55865190Y-88574476D01*
X55865190Y-88574476D02*
X55912809Y-88622095D01*
X55912809Y-88622095D02*
X55960428Y-88717333D01*
X55960428Y-88717333D02*
X55960428Y-89098285D01*
X56436619Y-87574476D02*
X56436619Y-88145904D01*
X56436619Y-87860190D02*
X55436619Y-87860190D01*
X55436619Y-87860190D02*
X55579476Y-87955428D01*
X55579476Y-87955428D02*
X55674714Y-88050666D01*
X55674714Y-88050666D02*
X55722333Y-88145904D01*
X55436619Y-87241142D02*
X55436619Y-86622095D01*
X55436619Y-86622095D02*
X55817571Y-86955428D01*
X55817571Y-86955428D02*
X55817571Y-86812571D01*
X55817571Y-86812571D02*
X55865190Y-86717333D01*
X55865190Y-86717333D02*
X55912809Y-86669714D01*
X55912809Y-86669714D02*
X56008047Y-86622095D01*
X56008047Y-86622095D02*
X56246142Y-86622095D01*
X56246142Y-86622095D02*
X56341380Y-86669714D01*
X56341380Y-86669714D02*
X56389000Y-86717333D01*
X56389000Y-86717333D02*
X56436619Y-86812571D01*
X56436619Y-86812571D02*
X56436619Y-87098285D01*
X56436619Y-87098285D02*
X56389000Y-87193523D01*
X56389000Y-87193523D02*
X56341380Y-87241142D01*
%TO.C,J8*%
X78412619Y-129873333D02*
X79126904Y-129873333D01*
X79126904Y-129873333D02*
X79269761Y-129920952D01*
X79269761Y-129920952D02*
X79365000Y-130016190D01*
X79365000Y-130016190D02*
X79412619Y-130159047D01*
X79412619Y-130159047D02*
X79412619Y-130254285D01*
X78841190Y-129254285D02*
X78793571Y-129349523D01*
X78793571Y-129349523D02*
X78745952Y-129397142D01*
X78745952Y-129397142D02*
X78650714Y-129444761D01*
X78650714Y-129444761D02*
X78603095Y-129444761D01*
X78603095Y-129444761D02*
X78507857Y-129397142D01*
X78507857Y-129397142D02*
X78460238Y-129349523D01*
X78460238Y-129349523D02*
X78412619Y-129254285D01*
X78412619Y-129254285D02*
X78412619Y-129063809D01*
X78412619Y-129063809D02*
X78460238Y-128968571D01*
X78460238Y-128968571D02*
X78507857Y-128920952D01*
X78507857Y-128920952D02*
X78603095Y-128873333D01*
X78603095Y-128873333D02*
X78650714Y-128873333D01*
X78650714Y-128873333D02*
X78745952Y-128920952D01*
X78745952Y-128920952D02*
X78793571Y-128968571D01*
X78793571Y-128968571D02*
X78841190Y-129063809D01*
X78841190Y-129063809D02*
X78841190Y-129254285D01*
X78841190Y-129254285D02*
X78888809Y-129349523D01*
X78888809Y-129349523D02*
X78936428Y-129397142D01*
X78936428Y-129397142D02*
X79031666Y-129444761D01*
X79031666Y-129444761D02*
X79222142Y-129444761D01*
X79222142Y-129444761D02*
X79317380Y-129397142D01*
X79317380Y-129397142D02*
X79365000Y-129349523D01*
X79365000Y-129349523D02*
X79412619Y-129254285D01*
X79412619Y-129254285D02*
X79412619Y-129063809D01*
X79412619Y-129063809D02*
X79365000Y-128968571D01*
X79365000Y-128968571D02*
X79317380Y-128920952D01*
X79317380Y-128920952D02*
X79222142Y-128873333D01*
X79222142Y-128873333D02*
X79031666Y-128873333D01*
X79031666Y-128873333D02*
X78936428Y-128920952D01*
X78936428Y-128920952D02*
X78888809Y-128968571D01*
X78888809Y-128968571D02*
X78841190Y-129063809D01*
%TO.C,C14*%
X93337142Y-64727380D02*
X93289523Y-64775000D01*
X93289523Y-64775000D02*
X93146666Y-64822619D01*
X93146666Y-64822619D02*
X93051428Y-64822619D01*
X93051428Y-64822619D02*
X92908571Y-64775000D01*
X92908571Y-64775000D02*
X92813333Y-64679761D01*
X92813333Y-64679761D02*
X92765714Y-64584523D01*
X92765714Y-64584523D02*
X92718095Y-64394047D01*
X92718095Y-64394047D02*
X92718095Y-64251190D01*
X92718095Y-64251190D02*
X92765714Y-64060714D01*
X92765714Y-64060714D02*
X92813333Y-63965476D01*
X92813333Y-63965476D02*
X92908571Y-63870238D01*
X92908571Y-63870238D02*
X93051428Y-63822619D01*
X93051428Y-63822619D02*
X93146666Y-63822619D01*
X93146666Y-63822619D02*
X93289523Y-63870238D01*
X93289523Y-63870238D02*
X93337142Y-63917857D01*
X94289523Y-64822619D02*
X93718095Y-64822619D01*
X94003809Y-64822619D02*
X94003809Y-63822619D01*
X94003809Y-63822619D02*
X93908571Y-63965476D01*
X93908571Y-63965476D02*
X93813333Y-64060714D01*
X93813333Y-64060714D02*
X93718095Y-64108333D01*
X95146666Y-64155952D02*
X95146666Y-64822619D01*
X94908571Y-63775000D02*
X94670476Y-64489285D01*
X94670476Y-64489285D02*
X95289523Y-64489285D01*
%TO.C,C16*%
X94287142Y-87587380D02*
X94239523Y-87635000D01*
X94239523Y-87635000D02*
X94096666Y-87682619D01*
X94096666Y-87682619D02*
X94001428Y-87682619D01*
X94001428Y-87682619D02*
X93858571Y-87635000D01*
X93858571Y-87635000D02*
X93763333Y-87539761D01*
X93763333Y-87539761D02*
X93715714Y-87444523D01*
X93715714Y-87444523D02*
X93668095Y-87254047D01*
X93668095Y-87254047D02*
X93668095Y-87111190D01*
X93668095Y-87111190D02*
X93715714Y-86920714D01*
X93715714Y-86920714D02*
X93763333Y-86825476D01*
X93763333Y-86825476D02*
X93858571Y-86730238D01*
X93858571Y-86730238D02*
X94001428Y-86682619D01*
X94001428Y-86682619D02*
X94096666Y-86682619D01*
X94096666Y-86682619D02*
X94239523Y-86730238D01*
X94239523Y-86730238D02*
X94287142Y-86777857D01*
X95239523Y-87682619D02*
X94668095Y-87682619D01*
X94953809Y-87682619D02*
X94953809Y-86682619D01*
X94953809Y-86682619D02*
X94858571Y-86825476D01*
X94858571Y-86825476D02*
X94763333Y-86920714D01*
X94763333Y-86920714D02*
X94668095Y-86968333D01*
X96096666Y-86682619D02*
X95906190Y-86682619D01*
X95906190Y-86682619D02*
X95810952Y-86730238D01*
X95810952Y-86730238D02*
X95763333Y-86777857D01*
X95763333Y-86777857D02*
X95668095Y-86920714D01*
X95668095Y-86920714D02*
X95620476Y-87111190D01*
X95620476Y-87111190D02*
X95620476Y-87492142D01*
X95620476Y-87492142D02*
X95668095Y-87587380D01*
X95668095Y-87587380D02*
X95715714Y-87635000D01*
X95715714Y-87635000D02*
X95810952Y-87682619D01*
X95810952Y-87682619D02*
X96001428Y-87682619D01*
X96001428Y-87682619D02*
X96096666Y-87635000D01*
X96096666Y-87635000D02*
X96144285Y-87587380D01*
X96144285Y-87587380D02*
X96191904Y-87492142D01*
X96191904Y-87492142D02*
X96191904Y-87254047D01*
X96191904Y-87254047D02*
X96144285Y-87158809D01*
X96144285Y-87158809D02*
X96096666Y-87111190D01*
X96096666Y-87111190D02*
X96001428Y-87063571D01*
X96001428Y-87063571D02*
X95810952Y-87063571D01*
X95810952Y-87063571D02*
X95715714Y-87111190D01*
X95715714Y-87111190D02*
X95668095Y-87158809D01*
X95668095Y-87158809D02*
X95620476Y-87254047D01*
%TO.C,C5*%
X86727380Y-83986666D02*
X86775000Y-84034285D01*
X86775000Y-84034285D02*
X86822619Y-84177142D01*
X86822619Y-84177142D02*
X86822619Y-84272380D01*
X86822619Y-84272380D02*
X86775000Y-84415237D01*
X86775000Y-84415237D02*
X86679761Y-84510475D01*
X86679761Y-84510475D02*
X86584523Y-84558094D01*
X86584523Y-84558094D02*
X86394047Y-84605713D01*
X86394047Y-84605713D02*
X86251190Y-84605713D01*
X86251190Y-84605713D02*
X86060714Y-84558094D01*
X86060714Y-84558094D02*
X85965476Y-84510475D01*
X85965476Y-84510475D02*
X85870238Y-84415237D01*
X85870238Y-84415237D02*
X85822619Y-84272380D01*
X85822619Y-84272380D02*
X85822619Y-84177142D01*
X85822619Y-84177142D02*
X85870238Y-84034285D01*
X85870238Y-84034285D02*
X85917857Y-83986666D01*
X85822619Y-83081904D02*
X85822619Y-83558094D01*
X85822619Y-83558094D02*
X86298809Y-83605713D01*
X86298809Y-83605713D02*
X86251190Y-83558094D01*
X86251190Y-83558094D02*
X86203571Y-83462856D01*
X86203571Y-83462856D02*
X86203571Y-83224761D01*
X86203571Y-83224761D02*
X86251190Y-83129523D01*
X86251190Y-83129523D02*
X86298809Y-83081904D01*
X86298809Y-83081904D02*
X86394047Y-83034285D01*
X86394047Y-83034285D02*
X86632142Y-83034285D01*
X86632142Y-83034285D02*
X86727380Y-83081904D01*
X86727380Y-83081904D02*
X86775000Y-83129523D01*
X86775000Y-83129523D02*
X86822619Y-83224761D01*
X86822619Y-83224761D02*
X86822619Y-83462856D01*
X86822619Y-83462856D02*
X86775000Y-83558094D01*
X86775000Y-83558094D02*
X86727380Y-83605713D01*
%TO.C,J7*%
X101266666Y-106860619D02*
X101266666Y-107574904D01*
X101266666Y-107574904D02*
X101219047Y-107717761D01*
X101219047Y-107717761D02*
X101123809Y-107813000D01*
X101123809Y-107813000D02*
X100980952Y-107860619D01*
X100980952Y-107860619D02*
X100885714Y-107860619D01*
X101647619Y-106860619D02*
X102314285Y-106860619D01*
X102314285Y-106860619D02*
X101885714Y-107860619D01*
D11*
%TO.C,U6*%
X76633603Y-85052476D02*
X76633603Y-85441773D01*
X76633603Y-85441773D02*
X76656502Y-85487573D01*
X76656502Y-85487573D02*
X76679402Y-85510473D01*
X76679402Y-85510473D02*
X76725202Y-85533372D01*
X76725202Y-85533372D02*
X76816801Y-85533372D01*
X76816801Y-85533372D02*
X76862601Y-85510473D01*
X76862601Y-85510473D02*
X76885500Y-85487573D01*
X76885500Y-85487573D02*
X76908400Y-85441773D01*
X76908400Y-85441773D02*
X76908400Y-85052476D01*
X77343497Y-85052476D02*
X77251898Y-85052476D01*
X77251898Y-85052476D02*
X77206098Y-85075376D01*
X77206098Y-85075376D02*
X77183198Y-85098276D01*
X77183198Y-85098276D02*
X77137399Y-85166975D01*
X77137399Y-85166975D02*
X77114499Y-85258575D01*
X77114499Y-85258575D02*
X77114499Y-85441773D01*
X77114499Y-85441773D02*
X77137399Y-85487573D01*
X77137399Y-85487573D02*
X77160298Y-85510473D01*
X77160298Y-85510473D02*
X77206098Y-85533372D01*
X77206098Y-85533372D02*
X77297697Y-85533372D01*
X77297697Y-85533372D02*
X77343497Y-85510473D01*
X77343497Y-85510473D02*
X77366397Y-85487573D01*
X77366397Y-85487573D02*
X77389296Y-85441773D01*
X77389296Y-85441773D02*
X77389296Y-85327274D01*
X77389296Y-85327274D02*
X77366397Y-85281474D01*
X77366397Y-85281474D02*
X77343497Y-85258575D01*
X77343497Y-85258575D02*
X77297697Y-85235675D01*
X77297697Y-85235675D02*
X77206098Y-85235675D01*
X77206098Y-85235675D02*
X77160298Y-85258575D01*
X77160298Y-85258575D02*
X77137399Y-85281474D01*
X77137399Y-85281474D02*
X77114499Y-85327274D01*
D10*
%TO.C,C10*%
X79869380Y-70238857D02*
X79917000Y-70286476D01*
X79917000Y-70286476D02*
X79964619Y-70429333D01*
X79964619Y-70429333D02*
X79964619Y-70524571D01*
X79964619Y-70524571D02*
X79917000Y-70667428D01*
X79917000Y-70667428D02*
X79821761Y-70762666D01*
X79821761Y-70762666D02*
X79726523Y-70810285D01*
X79726523Y-70810285D02*
X79536047Y-70857904D01*
X79536047Y-70857904D02*
X79393190Y-70857904D01*
X79393190Y-70857904D02*
X79202714Y-70810285D01*
X79202714Y-70810285D02*
X79107476Y-70762666D01*
X79107476Y-70762666D02*
X79012238Y-70667428D01*
X79012238Y-70667428D02*
X78964619Y-70524571D01*
X78964619Y-70524571D02*
X78964619Y-70429333D01*
X78964619Y-70429333D02*
X79012238Y-70286476D01*
X79012238Y-70286476D02*
X79059857Y-70238857D01*
X79964619Y-69286476D02*
X79964619Y-69857904D01*
X79964619Y-69572190D02*
X78964619Y-69572190D01*
X78964619Y-69572190D02*
X79107476Y-69667428D01*
X79107476Y-69667428D02*
X79202714Y-69762666D01*
X79202714Y-69762666D02*
X79250333Y-69857904D01*
X78964619Y-68667428D02*
X78964619Y-68572190D01*
X78964619Y-68572190D02*
X79012238Y-68476952D01*
X79012238Y-68476952D02*
X79059857Y-68429333D01*
X79059857Y-68429333D02*
X79155095Y-68381714D01*
X79155095Y-68381714D02*
X79345571Y-68334095D01*
X79345571Y-68334095D02*
X79583666Y-68334095D01*
X79583666Y-68334095D02*
X79774142Y-68381714D01*
X79774142Y-68381714D02*
X79869380Y-68429333D01*
X79869380Y-68429333D02*
X79917000Y-68476952D01*
X79917000Y-68476952D02*
X79964619Y-68572190D01*
X79964619Y-68572190D02*
X79964619Y-68667428D01*
X79964619Y-68667428D02*
X79917000Y-68762666D01*
X79917000Y-68762666D02*
X79869380Y-68810285D01*
X79869380Y-68810285D02*
X79774142Y-68857904D01*
X79774142Y-68857904D02*
X79583666Y-68905523D01*
X79583666Y-68905523D02*
X79345571Y-68905523D01*
X79345571Y-68905523D02*
X79155095Y-68857904D01*
X79155095Y-68857904D02*
X79059857Y-68810285D01*
X79059857Y-68810285D02*
X79012238Y-68762666D01*
X79012238Y-68762666D02*
X78964619Y-68667428D01*
%TO.C,C9*%
X73265380Y-69254666D02*
X73313000Y-69302285D01*
X73313000Y-69302285D02*
X73360619Y-69445142D01*
X73360619Y-69445142D02*
X73360619Y-69540380D01*
X73360619Y-69540380D02*
X73313000Y-69683237D01*
X73313000Y-69683237D02*
X73217761Y-69778475D01*
X73217761Y-69778475D02*
X73122523Y-69826094D01*
X73122523Y-69826094D02*
X72932047Y-69873713D01*
X72932047Y-69873713D02*
X72789190Y-69873713D01*
X72789190Y-69873713D02*
X72598714Y-69826094D01*
X72598714Y-69826094D02*
X72503476Y-69778475D01*
X72503476Y-69778475D02*
X72408238Y-69683237D01*
X72408238Y-69683237D02*
X72360619Y-69540380D01*
X72360619Y-69540380D02*
X72360619Y-69445142D01*
X72360619Y-69445142D02*
X72408238Y-69302285D01*
X72408238Y-69302285D02*
X72455857Y-69254666D01*
X73360619Y-68778475D02*
X73360619Y-68587999D01*
X73360619Y-68587999D02*
X73313000Y-68492761D01*
X73313000Y-68492761D02*
X73265380Y-68445142D01*
X73265380Y-68445142D02*
X73122523Y-68349904D01*
X73122523Y-68349904D02*
X72932047Y-68302285D01*
X72932047Y-68302285D02*
X72551095Y-68302285D01*
X72551095Y-68302285D02*
X72455857Y-68349904D01*
X72455857Y-68349904D02*
X72408238Y-68397523D01*
X72408238Y-68397523D02*
X72360619Y-68492761D01*
X72360619Y-68492761D02*
X72360619Y-68683237D01*
X72360619Y-68683237D02*
X72408238Y-68778475D01*
X72408238Y-68778475D02*
X72455857Y-68826094D01*
X72455857Y-68826094D02*
X72551095Y-68873713D01*
X72551095Y-68873713D02*
X72789190Y-68873713D01*
X72789190Y-68873713D02*
X72884428Y-68826094D01*
X72884428Y-68826094D02*
X72932047Y-68778475D01*
X72932047Y-68778475D02*
X72979666Y-68683237D01*
X72979666Y-68683237D02*
X72979666Y-68492761D01*
X72979666Y-68492761D02*
X72932047Y-68397523D01*
X72932047Y-68397523D02*
X72884428Y-68349904D01*
X72884428Y-68349904D02*
X72789190Y-68302285D01*
D12*
%TO.C,IC1*%
X63022237Y-73231526D02*
X63022237Y-71961526D01*
X64352714Y-73110573D02*
X64292238Y-73171050D01*
X64292238Y-73171050D02*
X64110809Y-73231526D01*
X64110809Y-73231526D02*
X63989857Y-73231526D01*
X63989857Y-73231526D02*
X63808428Y-73171050D01*
X63808428Y-73171050D02*
X63687476Y-73050097D01*
X63687476Y-73050097D02*
X63626999Y-72929145D01*
X63626999Y-72929145D02*
X63566523Y-72687240D01*
X63566523Y-72687240D02*
X63566523Y-72505811D01*
X63566523Y-72505811D02*
X63626999Y-72263907D01*
X63626999Y-72263907D02*
X63687476Y-72142954D01*
X63687476Y-72142954D02*
X63808428Y-72022002D01*
X63808428Y-72022002D02*
X63989857Y-71961526D01*
X63989857Y-71961526D02*
X64110809Y-71961526D01*
X64110809Y-71961526D02*
X64292238Y-72022002D01*
X64292238Y-72022002D02*
X64352714Y-72082478D01*
X65562238Y-73231526D02*
X64836523Y-73231526D01*
X65199380Y-73231526D02*
X65199380Y-71961526D01*
X65199380Y-71961526D02*
X65078428Y-72142954D01*
X65078428Y-72142954D02*
X64957476Y-72263907D01*
X64957476Y-72263907D02*
X64836523Y-72324383D01*
D10*
%TO.C,C8*%
X80123380Y-73760666D02*
X80171000Y-73808285D01*
X80171000Y-73808285D02*
X80218619Y-73951142D01*
X80218619Y-73951142D02*
X80218619Y-74046380D01*
X80218619Y-74046380D02*
X80171000Y-74189237D01*
X80171000Y-74189237D02*
X80075761Y-74284475D01*
X80075761Y-74284475D02*
X79980523Y-74332094D01*
X79980523Y-74332094D02*
X79790047Y-74379713D01*
X79790047Y-74379713D02*
X79647190Y-74379713D01*
X79647190Y-74379713D02*
X79456714Y-74332094D01*
X79456714Y-74332094D02*
X79361476Y-74284475D01*
X79361476Y-74284475D02*
X79266238Y-74189237D01*
X79266238Y-74189237D02*
X79218619Y-74046380D01*
X79218619Y-74046380D02*
X79218619Y-73951142D01*
X79218619Y-73951142D02*
X79266238Y-73808285D01*
X79266238Y-73808285D02*
X79313857Y-73760666D01*
X79647190Y-73189237D02*
X79599571Y-73284475D01*
X79599571Y-73284475D02*
X79551952Y-73332094D01*
X79551952Y-73332094D02*
X79456714Y-73379713D01*
X79456714Y-73379713D02*
X79409095Y-73379713D01*
X79409095Y-73379713D02*
X79313857Y-73332094D01*
X79313857Y-73332094D02*
X79266238Y-73284475D01*
X79266238Y-73284475D02*
X79218619Y-73189237D01*
X79218619Y-73189237D02*
X79218619Y-72998761D01*
X79218619Y-72998761D02*
X79266238Y-72903523D01*
X79266238Y-72903523D02*
X79313857Y-72855904D01*
X79313857Y-72855904D02*
X79409095Y-72808285D01*
X79409095Y-72808285D02*
X79456714Y-72808285D01*
X79456714Y-72808285D02*
X79551952Y-72855904D01*
X79551952Y-72855904D02*
X79599571Y-72903523D01*
X79599571Y-72903523D02*
X79647190Y-72998761D01*
X79647190Y-72998761D02*
X79647190Y-73189237D01*
X79647190Y-73189237D02*
X79694809Y-73284475D01*
X79694809Y-73284475D02*
X79742428Y-73332094D01*
X79742428Y-73332094D02*
X79837666Y-73379713D01*
X79837666Y-73379713D02*
X80028142Y-73379713D01*
X80028142Y-73379713D02*
X80123380Y-73332094D01*
X80123380Y-73332094D02*
X80171000Y-73284475D01*
X80171000Y-73284475D02*
X80218619Y-73189237D01*
X80218619Y-73189237D02*
X80218619Y-72998761D01*
X80218619Y-72998761D02*
X80171000Y-72903523D01*
X80171000Y-72903523D02*
X80123380Y-72855904D01*
X80123380Y-72855904D02*
X80028142Y-72808285D01*
X80028142Y-72808285D02*
X79837666Y-72808285D01*
X79837666Y-72808285D02*
X79742428Y-72855904D01*
X79742428Y-72855904D02*
X79694809Y-72903523D01*
X79694809Y-72903523D02*
X79647190Y-72998761D01*
%TO.C,J9*%
X56837619Y-58753333D02*
X57551904Y-58753333D01*
X57551904Y-58753333D02*
X57694761Y-58800952D01*
X57694761Y-58800952D02*
X57790000Y-58896190D01*
X57790000Y-58896190D02*
X57837619Y-59039047D01*
X57837619Y-59039047D02*
X57837619Y-59134285D01*
X57837619Y-58229523D02*
X57837619Y-58039047D01*
X57837619Y-58039047D02*
X57790000Y-57943809D01*
X57790000Y-57943809D02*
X57742380Y-57896190D01*
X57742380Y-57896190D02*
X57599523Y-57800952D01*
X57599523Y-57800952D02*
X57409047Y-57753333D01*
X57409047Y-57753333D02*
X57028095Y-57753333D01*
X57028095Y-57753333D02*
X56932857Y-57800952D01*
X56932857Y-57800952D02*
X56885238Y-57848571D01*
X56885238Y-57848571D02*
X56837619Y-57943809D01*
X56837619Y-57943809D02*
X56837619Y-58134285D01*
X56837619Y-58134285D02*
X56885238Y-58229523D01*
X56885238Y-58229523D02*
X56932857Y-58277142D01*
X56932857Y-58277142D02*
X57028095Y-58324761D01*
X57028095Y-58324761D02*
X57266190Y-58324761D01*
X57266190Y-58324761D02*
X57361428Y-58277142D01*
X57361428Y-58277142D02*
X57409047Y-58229523D01*
X57409047Y-58229523D02*
X57456666Y-58134285D01*
X57456666Y-58134285D02*
X57456666Y-57943809D01*
X57456666Y-57943809D02*
X57409047Y-57848571D01*
X57409047Y-57848571D02*
X57361428Y-57800952D01*
X57361428Y-57800952D02*
X57266190Y-57753333D01*
%TO.C,R5*%
X74122619Y-66206666D02*
X73646428Y-66539999D01*
X74122619Y-66778094D02*
X73122619Y-66778094D01*
X73122619Y-66778094D02*
X73122619Y-66397142D01*
X73122619Y-66397142D02*
X73170238Y-66301904D01*
X73170238Y-66301904D02*
X73217857Y-66254285D01*
X73217857Y-66254285D02*
X73313095Y-66206666D01*
X73313095Y-66206666D02*
X73455952Y-66206666D01*
X73455952Y-66206666D02*
X73551190Y-66254285D01*
X73551190Y-66254285D02*
X73598809Y-66301904D01*
X73598809Y-66301904D02*
X73646428Y-66397142D01*
X73646428Y-66397142D02*
X73646428Y-66778094D01*
X73122619Y-65301904D02*
X73122619Y-65778094D01*
X73122619Y-65778094D02*
X73598809Y-65825713D01*
X73598809Y-65825713D02*
X73551190Y-65778094D01*
X73551190Y-65778094D02*
X73503571Y-65682856D01*
X73503571Y-65682856D02*
X73503571Y-65444761D01*
X73503571Y-65444761D02*
X73551190Y-65349523D01*
X73551190Y-65349523D02*
X73598809Y-65301904D01*
X73598809Y-65301904D02*
X73694047Y-65254285D01*
X73694047Y-65254285D02*
X73932142Y-65254285D01*
X73932142Y-65254285D02*
X74027380Y-65301904D01*
X74027380Y-65301904D02*
X74075000Y-65349523D01*
X74075000Y-65349523D02*
X74122619Y-65444761D01*
X74122619Y-65444761D02*
X74122619Y-65682856D01*
X74122619Y-65682856D02*
X74075000Y-65778094D01*
X74075000Y-65778094D02*
X74027380Y-65825713D01*
%TO.C,C17*%
X86637380Y-117482857D02*
X86685000Y-117530476D01*
X86685000Y-117530476D02*
X86732619Y-117673333D01*
X86732619Y-117673333D02*
X86732619Y-117768571D01*
X86732619Y-117768571D02*
X86685000Y-117911428D01*
X86685000Y-117911428D02*
X86589761Y-118006666D01*
X86589761Y-118006666D02*
X86494523Y-118054285D01*
X86494523Y-118054285D02*
X86304047Y-118101904D01*
X86304047Y-118101904D02*
X86161190Y-118101904D01*
X86161190Y-118101904D02*
X85970714Y-118054285D01*
X85970714Y-118054285D02*
X85875476Y-118006666D01*
X85875476Y-118006666D02*
X85780238Y-117911428D01*
X85780238Y-117911428D02*
X85732619Y-117768571D01*
X85732619Y-117768571D02*
X85732619Y-117673333D01*
X85732619Y-117673333D02*
X85780238Y-117530476D01*
X85780238Y-117530476D02*
X85827857Y-117482857D01*
X86732619Y-116530476D02*
X86732619Y-117101904D01*
X86732619Y-116816190D02*
X85732619Y-116816190D01*
X85732619Y-116816190D02*
X85875476Y-116911428D01*
X85875476Y-116911428D02*
X85970714Y-117006666D01*
X85970714Y-117006666D02*
X86018333Y-117101904D01*
X85732619Y-116197142D02*
X85732619Y-115530476D01*
X85732619Y-115530476D02*
X86732619Y-115959047D01*
%TO.C,C18*%
X93337142Y-110447380D02*
X93289523Y-110495000D01*
X93289523Y-110495000D02*
X93146666Y-110542619D01*
X93146666Y-110542619D02*
X93051428Y-110542619D01*
X93051428Y-110542619D02*
X92908571Y-110495000D01*
X92908571Y-110495000D02*
X92813333Y-110399761D01*
X92813333Y-110399761D02*
X92765714Y-110304523D01*
X92765714Y-110304523D02*
X92718095Y-110114047D01*
X92718095Y-110114047D02*
X92718095Y-109971190D01*
X92718095Y-109971190D02*
X92765714Y-109780714D01*
X92765714Y-109780714D02*
X92813333Y-109685476D01*
X92813333Y-109685476D02*
X92908571Y-109590238D01*
X92908571Y-109590238D02*
X93051428Y-109542619D01*
X93051428Y-109542619D02*
X93146666Y-109542619D01*
X93146666Y-109542619D02*
X93289523Y-109590238D01*
X93289523Y-109590238D02*
X93337142Y-109637857D01*
X94289523Y-110542619D02*
X93718095Y-110542619D01*
X94003809Y-110542619D02*
X94003809Y-109542619D01*
X94003809Y-109542619D02*
X93908571Y-109685476D01*
X93908571Y-109685476D02*
X93813333Y-109780714D01*
X93813333Y-109780714D02*
X93718095Y-109828333D01*
X94860952Y-109971190D02*
X94765714Y-109923571D01*
X94765714Y-109923571D02*
X94718095Y-109875952D01*
X94718095Y-109875952D02*
X94670476Y-109780714D01*
X94670476Y-109780714D02*
X94670476Y-109733095D01*
X94670476Y-109733095D02*
X94718095Y-109637857D01*
X94718095Y-109637857D02*
X94765714Y-109590238D01*
X94765714Y-109590238D02*
X94860952Y-109542619D01*
X94860952Y-109542619D02*
X95051428Y-109542619D01*
X95051428Y-109542619D02*
X95146666Y-109590238D01*
X95146666Y-109590238D02*
X95194285Y-109637857D01*
X95194285Y-109637857D02*
X95241904Y-109733095D01*
X95241904Y-109733095D02*
X95241904Y-109780714D01*
X95241904Y-109780714D02*
X95194285Y-109875952D01*
X95194285Y-109875952D02*
X95146666Y-109923571D01*
X95146666Y-109923571D02*
X95051428Y-109971190D01*
X95051428Y-109971190D02*
X94860952Y-109971190D01*
X94860952Y-109971190D02*
X94765714Y-110018809D01*
X94765714Y-110018809D02*
X94718095Y-110066428D01*
X94718095Y-110066428D02*
X94670476Y-110161666D01*
X94670476Y-110161666D02*
X94670476Y-110352142D01*
X94670476Y-110352142D02*
X94718095Y-110447380D01*
X94718095Y-110447380D02*
X94765714Y-110495000D01*
X94765714Y-110495000D02*
X94860952Y-110542619D01*
X94860952Y-110542619D02*
X95051428Y-110542619D01*
X95051428Y-110542619D02*
X95146666Y-110495000D01*
X95146666Y-110495000D02*
X95194285Y-110447380D01*
X95194285Y-110447380D02*
X95241904Y-110352142D01*
X95241904Y-110352142D02*
X95241904Y-110161666D01*
X95241904Y-110161666D02*
X95194285Y-110066428D01*
X95194285Y-110066428D02*
X95146666Y-110018809D01*
X95146666Y-110018809D02*
X95051428Y-109971190D01*
%TO.C,C12*%
X79425380Y-78300857D02*
X79473000Y-78348476D01*
X79473000Y-78348476D02*
X79520619Y-78491333D01*
X79520619Y-78491333D02*
X79520619Y-78586571D01*
X79520619Y-78586571D02*
X79473000Y-78729428D01*
X79473000Y-78729428D02*
X79377761Y-78824666D01*
X79377761Y-78824666D02*
X79282523Y-78872285D01*
X79282523Y-78872285D02*
X79092047Y-78919904D01*
X79092047Y-78919904D02*
X78949190Y-78919904D01*
X78949190Y-78919904D02*
X78758714Y-78872285D01*
X78758714Y-78872285D02*
X78663476Y-78824666D01*
X78663476Y-78824666D02*
X78568238Y-78729428D01*
X78568238Y-78729428D02*
X78520619Y-78586571D01*
X78520619Y-78586571D02*
X78520619Y-78491333D01*
X78520619Y-78491333D02*
X78568238Y-78348476D01*
X78568238Y-78348476D02*
X78615857Y-78300857D01*
X79520619Y-77348476D02*
X79520619Y-77919904D01*
X79520619Y-77634190D02*
X78520619Y-77634190D01*
X78520619Y-77634190D02*
X78663476Y-77729428D01*
X78663476Y-77729428D02*
X78758714Y-77824666D01*
X78758714Y-77824666D02*
X78806333Y-77919904D01*
X78615857Y-76967523D02*
X78568238Y-76919904D01*
X78568238Y-76919904D02*
X78520619Y-76824666D01*
X78520619Y-76824666D02*
X78520619Y-76586571D01*
X78520619Y-76586571D02*
X78568238Y-76491333D01*
X78568238Y-76491333D02*
X78615857Y-76443714D01*
X78615857Y-76443714D02*
X78711095Y-76396095D01*
X78711095Y-76396095D02*
X78806333Y-76396095D01*
X78806333Y-76396095D02*
X78949190Y-76443714D01*
X78949190Y-76443714D02*
X79520619Y-77015142D01*
X79520619Y-77015142D02*
X79520619Y-76396095D01*
%TO.C,R15*%
X73012619Y-89542857D02*
X72536428Y-89876190D01*
X73012619Y-90114285D02*
X72012619Y-90114285D01*
X72012619Y-90114285D02*
X72012619Y-89733333D01*
X72012619Y-89733333D02*
X72060238Y-89638095D01*
X72060238Y-89638095D02*
X72107857Y-89590476D01*
X72107857Y-89590476D02*
X72203095Y-89542857D01*
X72203095Y-89542857D02*
X72345952Y-89542857D01*
X72345952Y-89542857D02*
X72441190Y-89590476D01*
X72441190Y-89590476D02*
X72488809Y-89638095D01*
X72488809Y-89638095D02*
X72536428Y-89733333D01*
X72536428Y-89733333D02*
X72536428Y-90114285D01*
X73012619Y-88590476D02*
X73012619Y-89161904D01*
X73012619Y-88876190D02*
X72012619Y-88876190D01*
X72012619Y-88876190D02*
X72155476Y-88971428D01*
X72155476Y-88971428D02*
X72250714Y-89066666D01*
X72250714Y-89066666D02*
X72298333Y-89161904D01*
X72012619Y-87685714D02*
X72012619Y-88161904D01*
X72012619Y-88161904D02*
X72488809Y-88209523D01*
X72488809Y-88209523D02*
X72441190Y-88161904D01*
X72441190Y-88161904D02*
X72393571Y-88066666D01*
X72393571Y-88066666D02*
X72393571Y-87828571D01*
X72393571Y-87828571D02*
X72441190Y-87733333D01*
X72441190Y-87733333D02*
X72488809Y-87685714D01*
X72488809Y-87685714D02*
X72584047Y-87638095D01*
X72584047Y-87638095D02*
X72822142Y-87638095D01*
X72822142Y-87638095D02*
X72917380Y-87685714D01*
X72917380Y-87685714D02*
X72965000Y-87733333D01*
X72965000Y-87733333D02*
X73012619Y-87828571D01*
X73012619Y-87828571D02*
X73012619Y-88066666D01*
X73012619Y-88066666D02*
X72965000Y-88161904D01*
X72965000Y-88161904D02*
X72917380Y-88209523D01*
%TO.C,C7*%
X73011380Y-73760666D02*
X73059000Y-73808285D01*
X73059000Y-73808285D02*
X73106619Y-73951142D01*
X73106619Y-73951142D02*
X73106619Y-74046380D01*
X73106619Y-74046380D02*
X73059000Y-74189237D01*
X73059000Y-74189237D02*
X72963761Y-74284475D01*
X72963761Y-74284475D02*
X72868523Y-74332094D01*
X72868523Y-74332094D02*
X72678047Y-74379713D01*
X72678047Y-74379713D02*
X72535190Y-74379713D01*
X72535190Y-74379713D02*
X72344714Y-74332094D01*
X72344714Y-74332094D02*
X72249476Y-74284475D01*
X72249476Y-74284475D02*
X72154238Y-74189237D01*
X72154238Y-74189237D02*
X72106619Y-74046380D01*
X72106619Y-74046380D02*
X72106619Y-73951142D01*
X72106619Y-73951142D02*
X72154238Y-73808285D01*
X72154238Y-73808285D02*
X72201857Y-73760666D01*
X72106619Y-73427332D02*
X72106619Y-72760666D01*
X72106619Y-72760666D02*
X73106619Y-73189237D01*
%TO.C,J5*%
X101266666Y-82999619D02*
X101266666Y-83713904D01*
X101266666Y-83713904D02*
X101219047Y-83856761D01*
X101219047Y-83856761D02*
X101123809Y-83952000D01*
X101123809Y-83952000D02*
X100980952Y-83999619D01*
X100980952Y-83999619D02*
X100885714Y-83999619D01*
X102219047Y-82999619D02*
X101742857Y-82999619D01*
X101742857Y-82999619D02*
X101695238Y-83475809D01*
X101695238Y-83475809D02*
X101742857Y-83428190D01*
X101742857Y-83428190D02*
X101838095Y-83380571D01*
X101838095Y-83380571D02*
X102076190Y-83380571D01*
X102076190Y-83380571D02*
X102171428Y-83428190D01*
X102171428Y-83428190D02*
X102219047Y-83475809D01*
X102219047Y-83475809D02*
X102266666Y-83571047D01*
X102266666Y-83571047D02*
X102266666Y-83809142D01*
X102266666Y-83809142D02*
X102219047Y-83904380D01*
X102219047Y-83904380D02*
X102171428Y-83952000D01*
X102171428Y-83952000D02*
X102076190Y-83999619D01*
X102076190Y-83999619D02*
X101838095Y-83999619D01*
X101838095Y-83999619D02*
X101742857Y-83952000D01*
X101742857Y-83952000D02*
X101695238Y-83904380D01*
%TO.C,R14*%
X70152619Y-94622857D02*
X69676428Y-94956190D01*
X70152619Y-95194285D02*
X69152619Y-95194285D01*
X69152619Y-95194285D02*
X69152619Y-94813333D01*
X69152619Y-94813333D02*
X69200238Y-94718095D01*
X69200238Y-94718095D02*
X69247857Y-94670476D01*
X69247857Y-94670476D02*
X69343095Y-94622857D01*
X69343095Y-94622857D02*
X69485952Y-94622857D01*
X69485952Y-94622857D02*
X69581190Y-94670476D01*
X69581190Y-94670476D02*
X69628809Y-94718095D01*
X69628809Y-94718095D02*
X69676428Y-94813333D01*
X69676428Y-94813333D02*
X69676428Y-95194285D01*
X70152619Y-93670476D02*
X70152619Y-94241904D01*
X70152619Y-93956190D02*
X69152619Y-93956190D01*
X69152619Y-93956190D02*
X69295476Y-94051428D01*
X69295476Y-94051428D02*
X69390714Y-94146666D01*
X69390714Y-94146666D02*
X69438333Y-94241904D01*
X69485952Y-92813333D02*
X70152619Y-92813333D01*
X69105000Y-93051428D02*
X69819285Y-93289523D01*
X69819285Y-93289523D02*
X69819285Y-92670476D01*
%TO.C,U7*%
X93218095Y-117790619D02*
X93218095Y-118600142D01*
X93218095Y-118600142D02*
X93265714Y-118695380D01*
X93265714Y-118695380D02*
X93313333Y-118743000D01*
X93313333Y-118743000D02*
X93408571Y-118790619D01*
X93408571Y-118790619D02*
X93599047Y-118790619D01*
X93599047Y-118790619D02*
X93694285Y-118743000D01*
X93694285Y-118743000D02*
X93741904Y-118695380D01*
X93741904Y-118695380D02*
X93789523Y-118600142D01*
X93789523Y-118600142D02*
X93789523Y-117790619D01*
X94170476Y-117790619D02*
X94837142Y-117790619D01*
X94837142Y-117790619D02*
X94408571Y-118790619D01*
%TO.C,C4*%
X79967380Y-83986666D02*
X80015000Y-84034285D01*
X80015000Y-84034285D02*
X80062619Y-84177142D01*
X80062619Y-84177142D02*
X80062619Y-84272380D01*
X80062619Y-84272380D02*
X80015000Y-84415237D01*
X80015000Y-84415237D02*
X79919761Y-84510475D01*
X79919761Y-84510475D02*
X79824523Y-84558094D01*
X79824523Y-84558094D02*
X79634047Y-84605713D01*
X79634047Y-84605713D02*
X79491190Y-84605713D01*
X79491190Y-84605713D02*
X79300714Y-84558094D01*
X79300714Y-84558094D02*
X79205476Y-84510475D01*
X79205476Y-84510475D02*
X79110238Y-84415237D01*
X79110238Y-84415237D02*
X79062619Y-84272380D01*
X79062619Y-84272380D02*
X79062619Y-84177142D01*
X79062619Y-84177142D02*
X79110238Y-84034285D01*
X79110238Y-84034285D02*
X79157857Y-83986666D01*
X79395952Y-83129523D02*
X80062619Y-83129523D01*
X79015000Y-83367618D02*
X79729285Y-83605713D01*
X79729285Y-83605713D02*
X79729285Y-82986666D01*
%TO.C,R4*%
X76662619Y-66206666D02*
X76186428Y-66539999D01*
X76662619Y-66778094D02*
X75662619Y-66778094D01*
X75662619Y-66778094D02*
X75662619Y-66397142D01*
X75662619Y-66397142D02*
X75710238Y-66301904D01*
X75710238Y-66301904D02*
X75757857Y-66254285D01*
X75757857Y-66254285D02*
X75853095Y-66206666D01*
X75853095Y-66206666D02*
X75995952Y-66206666D01*
X75995952Y-66206666D02*
X76091190Y-66254285D01*
X76091190Y-66254285D02*
X76138809Y-66301904D01*
X76138809Y-66301904D02*
X76186428Y-66397142D01*
X76186428Y-66397142D02*
X76186428Y-66778094D01*
X75995952Y-65349523D02*
X76662619Y-65349523D01*
X75615000Y-65587618D02*
X76329285Y-65825713D01*
X76329285Y-65825713D02*
X76329285Y-65206666D01*
%TO.C,R12*%
X56436619Y-84970857D02*
X55960428Y-85304190D01*
X56436619Y-85542285D02*
X55436619Y-85542285D01*
X55436619Y-85542285D02*
X55436619Y-85161333D01*
X55436619Y-85161333D02*
X55484238Y-85066095D01*
X55484238Y-85066095D02*
X55531857Y-85018476D01*
X55531857Y-85018476D02*
X55627095Y-84970857D01*
X55627095Y-84970857D02*
X55769952Y-84970857D01*
X55769952Y-84970857D02*
X55865190Y-85018476D01*
X55865190Y-85018476D02*
X55912809Y-85066095D01*
X55912809Y-85066095D02*
X55960428Y-85161333D01*
X55960428Y-85161333D02*
X55960428Y-85542285D01*
X56436619Y-84018476D02*
X56436619Y-84589904D01*
X56436619Y-84304190D02*
X55436619Y-84304190D01*
X55436619Y-84304190D02*
X55579476Y-84399428D01*
X55579476Y-84399428D02*
X55674714Y-84494666D01*
X55674714Y-84494666D02*
X55722333Y-84589904D01*
X55531857Y-83637523D02*
X55484238Y-83589904D01*
X55484238Y-83589904D02*
X55436619Y-83494666D01*
X55436619Y-83494666D02*
X55436619Y-83256571D01*
X55436619Y-83256571D02*
X55484238Y-83161333D01*
X55484238Y-83161333D02*
X55531857Y-83113714D01*
X55531857Y-83113714D02*
X55627095Y-83066095D01*
X55627095Y-83066095D02*
X55722333Y-83066095D01*
X55722333Y-83066095D02*
X55865190Y-83113714D01*
X55865190Y-83113714D02*
X56436619Y-83685142D01*
X56436619Y-83685142D02*
X56436619Y-83066095D01*
%TO.C,J3*%
X101266666Y-58600619D02*
X101266666Y-59314904D01*
X101266666Y-59314904D02*
X101219047Y-59457761D01*
X101219047Y-59457761D02*
X101123809Y-59553000D01*
X101123809Y-59553000D02*
X100980952Y-59600619D01*
X100980952Y-59600619D02*
X100885714Y-59600619D01*
X101647619Y-58600619D02*
X102266666Y-58600619D01*
X102266666Y-58600619D02*
X101933333Y-58981571D01*
X101933333Y-58981571D02*
X102076190Y-58981571D01*
X102076190Y-58981571D02*
X102171428Y-59029190D01*
X102171428Y-59029190D02*
X102219047Y-59076809D01*
X102219047Y-59076809D02*
X102266666Y-59172047D01*
X102266666Y-59172047D02*
X102266666Y-59410142D01*
X102266666Y-59410142D02*
X102219047Y-59505380D01*
X102219047Y-59505380D02*
X102171428Y-59553000D01*
X102171428Y-59553000D02*
X102076190Y-59600619D01*
X102076190Y-59600619D02*
X101790476Y-59600619D01*
X101790476Y-59600619D02*
X101695238Y-59553000D01*
X101695238Y-59553000D02*
X101647619Y-59505380D01*
%TO.C,C15*%
X85047380Y-93032857D02*
X85095000Y-93080476D01*
X85095000Y-93080476D02*
X85142619Y-93223333D01*
X85142619Y-93223333D02*
X85142619Y-93318571D01*
X85142619Y-93318571D02*
X85095000Y-93461428D01*
X85095000Y-93461428D02*
X84999761Y-93556666D01*
X84999761Y-93556666D02*
X84904523Y-93604285D01*
X84904523Y-93604285D02*
X84714047Y-93651904D01*
X84714047Y-93651904D02*
X84571190Y-93651904D01*
X84571190Y-93651904D02*
X84380714Y-93604285D01*
X84380714Y-93604285D02*
X84285476Y-93556666D01*
X84285476Y-93556666D02*
X84190238Y-93461428D01*
X84190238Y-93461428D02*
X84142619Y-93318571D01*
X84142619Y-93318571D02*
X84142619Y-93223333D01*
X84142619Y-93223333D02*
X84190238Y-93080476D01*
X84190238Y-93080476D02*
X84237857Y-93032857D01*
X85142619Y-92080476D02*
X85142619Y-92651904D01*
X85142619Y-92366190D02*
X84142619Y-92366190D01*
X84142619Y-92366190D02*
X84285476Y-92461428D01*
X84285476Y-92461428D02*
X84380714Y-92556666D01*
X84380714Y-92556666D02*
X84428333Y-92651904D01*
X84142619Y-91175714D02*
X84142619Y-91651904D01*
X84142619Y-91651904D02*
X84618809Y-91699523D01*
X84618809Y-91699523D02*
X84571190Y-91651904D01*
X84571190Y-91651904D02*
X84523571Y-91556666D01*
X84523571Y-91556666D02*
X84523571Y-91318571D01*
X84523571Y-91318571D02*
X84571190Y-91223333D01*
X84571190Y-91223333D02*
X84618809Y-91175714D01*
X84618809Y-91175714D02*
X84714047Y-91128095D01*
X84714047Y-91128095D02*
X84952142Y-91128095D01*
X84952142Y-91128095D02*
X85047380Y-91175714D01*
X85047380Y-91175714D02*
X85095000Y-91223333D01*
X85095000Y-91223333D02*
X85142619Y-91318571D01*
X85142619Y-91318571D02*
X85142619Y-91556666D01*
X85142619Y-91556666D02*
X85095000Y-91651904D01*
X85095000Y-91651904D02*
X85047380Y-91699523D01*
%TO.C,R6*%
X71582619Y-66206666D02*
X71106428Y-66539999D01*
X71582619Y-66778094D02*
X70582619Y-66778094D01*
X70582619Y-66778094D02*
X70582619Y-66397142D01*
X70582619Y-66397142D02*
X70630238Y-66301904D01*
X70630238Y-66301904D02*
X70677857Y-66254285D01*
X70677857Y-66254285D02*
X70773095Y-66206666D01*
X70773095Y-66206666D02*
X70915952Y-66206666D01*
X70915952Y-66206666D02*
X71011190Y-66254285D01*
X71011190Y-66254285D02*
X71058809Y-66301904D01*
X71058809Y-66301904D02*
X71106428Y-66397142D01*
X71106428Y-66397142D02*
X71106428Y-66778094D01*
X70582619Y-65349523D02*
X70582619Y-65539999D01*
X70582619Y-65539999D02*
X70630238Y-65635237D01*
X70630238Y-65635237D02*
X70677857Y-65682856D01*
X70677857Y-65682856D02*
X70820714Y-65778094D01*
X70820714Y-65778094D02*
X71011190Y-65825713D01*
X71011190Y-65825713D02*
X71392142Y-65825713D01*
X71392142Y-65825713D02*
X71487380Y-65778094D01*
X71487380Y-65778094D02*
X71535000Y-65730475D01*
X71535000Y-65730475D02*
X71582619Y-65635237D01*
X71582619Y-65635237D02*
X71582619Y-65444761D01*
X71582619Y-65444761D02*
X71535000Y-65349523D01*
X71535000Y-65349523D02*
X71487380Y-65301904D01*
X71487380Y-65301904D02*
X71392142Y-65254285D01*
X71392142Y-65254285D02*
X71154047Y-65254285D01*
X71154047Y-65254285D02*
X71058809Y-65301904D01*
X71058809Y-65301904D02*
X71011190Y-65349523D01*
X71011190Y-65349523D02*
X70963571Y-65444761D01*
X70963571Y-65444761D02*
X70963571Y-65635237D01*
X70963571Y-65635237D02*
X71011190Y-65730475D01*
X71011190Y-65730475D02*
X71058809Y-65778094D01*
X71058809Y-65778094D02*
X71154047Y-65825713D01*
%TO.C,C6*%
X80163333Y-87587380D02*
X80115714Y-87635000D01*
X80115714Y-87635000D02*
X79972857Y-87682619D01*
X79972857Y-87682619D02*
X79877619Y-87682619D01*
X79877619Y-87682619D02*
X79734762Y-87635000D01*
X79734762Y-87635000D02*
X79639524Y-87539761D01*
X79639524Y-87539761D02*
X79591905Y-87444523D01*
X79591905Y-87444523D02*
X79544286Y-87254047D01*
X79544286Y-87254047D02*
X79544286Y-87111190D01*
X79544286Y-87111190D02*
X79591905Y-86920714D01*
X79591905Y-86920714D02*
X79639524Y-86825476D01*
X79639524Y-86825476D02*
X79734762Y-86730238D01*
X79734762Y-86730238D02*
X79877619Y-86682619D01*
X79877619Y-86682619D02*
X79972857Y-86682619D01*
X79972857Y-86682619D02*
X80115714Y-86730238D01*
X80115714Y-86730238D02*
X80163333Y-86777857D01*
X81020476Y-86682619D02*
X80830000Y-86682619D01*
X80830000Y-86682619D02*
X80734762Y-86730238D01*
X80734762Y-86730238D02*
X80687143Y-86777857D01*
X80687143Y-86777857D02*
X80591905Y-86920714D01*
X80591905Y-86920714D02*
X80544286Y-87111190D01*
X80544286Y-87111190D02*
X80544286Y-87492142D01*
X80544286Y-87492142D02*
X80591905Y-87587380D01*
X80591905Y-87587380D02*
X80639524Y-87635000D01*
X80639524Y-87635000D02*
X80734762Y-87682619D01*
X80734762Y-87682619D02*
X80925238Y-87682619D01*
X80925238Y-87682619D02*
X81020476Y-87635000D01*
X81020476Y-87635000D02*
X81068095Y-87587380D01*
X81068095Y-87587380D02*
X81115714Y-87492142D01*
X81115714Y-87492142D02*
X81115714Y-87254047D01*
X81115714Y-87254047D02*
X81068095Y-87158809D01*
X81068095Y-87158809D02*
X81020476Y-87111190D01*
X81020476Y-87111190D02*
X80925238Y-87063571D01*
X80925238Y-87063571D02*
X80734762Y-87063571D01*
X80734762Y-87063571D02*
X80639524Y-87111190D01*
X80639524Y-87111190D02*
X80591905Y-87158809D01*
X80591905Y-87158809D02*
X80544286Y-87254047D01*
%TO.C,R10*%
X61422619Y-66682857D02*
X60946428Y-67016190D01*
X61422619Y-67254285D02*
X60422619Y-67254285D01*
X60422619Y-67254285D02*
X60422619Y-66873333D01*
X60422619Y-66873333D02*
X60470238Y-66778095D01*
X60470238Y-66778095D02*
X60517857Y-66730476D01*
X60517857Y-66730476D02*
X60613095Y-66682857D01*
X60613095Y-66682857D02*
X60755952Y-66682857D01*
X60755952Y-66682857D02*
X60851190Y-66730476D01*
X60851190Y-66730476D02*
X60898809Y-66778095D01*
X60898809Y-66778095D02*
X60946428Y-66873333D01*
X60946428Y-66873333D02*
X60946428Y-67254285D01*
X61422619Y-65730476D02*
X61422619Y-66301904D01*
X61422619Y-66016190D02*
X60422619Y-66016190D01*
X60422619Y-66016190D02*
X60565476Y-66111428D01*
X60565476Y-66111428D02*
X60660714Y-66206666D01*
X60660714Y-66206666D02*
X60708333Y-66301904D01*
X60422619Y-65111428D02*
X60422619Y-65016190D01*
X60422619Y-65016190D02*
X60470238Y-64920952D01*
X60470238Y-64920952D02*
X60517857Y-64873333D01*
X60517857Y-64873333D02*
X60613095Y-64825714D01*
X60613095Y-64825714D02*
X60803571Y-64778095D01*
X60803571Y-64778095D02*
X61041666Y-64778095D01*
X61041666Y-64778095D02*
X61232142Y-64825714D01*
X61232142Y-64825714D02*
X61327380Y-64873333D01*
X61327380Y-64873333D02*
X61375000Y-64920952D01*
X61375000Y-64920952D02*
X61422619Y-65016190D01*
X61422619Y-65016190D02*
X61422619Y-65111428D01*
X61422619Y-65111428D02*
X61375000Y-65206666D01*
X61375000Y-65206666D02*
X61327380Y-65254285D01*
X61327380Y-65254285D02*
X61232142Y-65301904D01*
X61232142Y-65301904D02*
X61041666Y-65349523D01*
X61041666Y-65349523D02*
X60803571Y-65349523D01*
X60803571Y-65349523D02*
X60613095Y-65301904D01*
X60613095Y-65301904D02*
X60517857Y-65254285D01*
X60517857Y-65254285D02*
X60470238Y-65206666D01*
X60470238Y-65206666D02*
X60422619Y-65111428D01*
%TO.C,U3*%
X80952619Y-107441904D02*
X81762142Y-107441904D01*
X81762142Y-107441904D02*
X81857380Y-107394285D01*
X81857380Y-107394285D02*
X81905000Y-107346666D01*
X81905000Y-107346666D02*
X81952619Y-107251428D01*
X81952619Y-107251428D02*
X81952619Y-107060952D01*
X81952619Y-107060952D02*
X81905000Y-106965714D01*
X81905000Y-106965714D02*
X81857380Y-106918095D01*
X81857380Y-106918095D02*
X81762142Y-106870476D01*
X81762142Y-106870476D02*
X80952619Y-106870476D01*
X80952619Y-106489523D02*
X80952619Y-105870476D01*
X80952619Y-105870476D02*
X81333571Y-106203809D01*
X81333571Y-106203809D02*
X81333571Y-106060952D01*
X81333571Y-106060952D02*
X81381190Y-105965714D01*
X81381190Y-105965714D02*
X81428809Y-105918095D01*
X81428809Y-105918095D02*
X81524047Y-105870476D01*
X81524047Y-105870476D02*
X81762142Y-105870476D01*
X81762142Y-105870476D02*
X81857380Y-105918095D01*
X81857380Y-105918095D02*
X81905000Y-105965714D01*
X81905000Y-105965714D02*
X81952619Y-106060952D01*
X81952619Y-106060952D02*
X81952619Y-106346666D01*
X81952619Y-106346666D02*
X81905000Y-106441904D01*
X81905000Y-106441904D02*
X81857380Y-106489523D01*
%TO.C,C2*%
X92863333Y-126507380D02*
X92815714Y-126555000D01*
X92815714Y-126555000D02*
X92672857Y-126602619D01*
X92672857Y-126602619D02*
X92577619Y-126602619D01*
X92577619Y-126602619D02*
X92434762Y-126555000D01*
X92434762Y-126555000D02*
X92339524Y-126459761D01*
X92339524Y-126459761D02*
X92291905Y-126364523D01*
X92291905Y-126364523D02*
X92244286Y-126174047D01*
X92244286Y-126174047D02*
X92244286Y-126031190D01*
X92244286Y-126031190D02*
X92291905Y-125840714D01*
X92291905Y-125840714D02*
X92339524Y-125745476D01*
X92339524Y-125745476D02*
X92434762Y-125650238D01*
X92434762Y-125650238D02*
X92577619Y-125602619D01*
X92577619Y-125602619D02*
X92672857Y-125602619D01*
X92672857Y-125602619D02*
X92815714Y-125650238D01*
X92815714Y-125650238D02*
X92863333Y-125697857D01*
X93244286Y-125697857D02*
X93291905Y-125650238D01*
X93291905Y-125650238D02*
X93387143Y-125602619D01*
X93387143Y-125602619D02*
X93625238Y-125602619D01*
X93625238Y-125602619D02*
X93720476Y-125650238D01*
X93720476Y-125650238D02*
X93768095Y-125697857D01*
X93768095Y-125697857D02*
X93815714Y-125793095D01*
X93815714Y-125793095D02*
X93815714Y-125888333D01*
X93815714Y-125888333D02*
X93768095Y-126031190D01*
X93768095Y-126031190D02*
X93196667Y-126602619D01*
X93196667Y-126602619D02*
X93815714Y-126602619D01*
%TO.C,R1*%
X87018333Y-113652619D02*
X86685000Y-113176428D01*
X86446905Y-113652619D02*
X86446905Y-112652619D01*
X86446905Y-112652619D02*
X86827857Y-112652619D01*
X86827857Y-112652619D02*
X86923095Y-112700238D01*
X86923095Y-112700238D02*
X86970714Y-112747857D01*
X86970714Y-112747857D02*
X87018333Y-112843095D01*
X87018333Y-112843095D02*
X87018333Y-112985952D01*
X87018333Y-112985952D02*
X86970714Y-113081190D01*
X86970714Y-113081190D02*
X86923095Y-113128809D01*
X86923095Y-113128809D02*
X86827857Y-113176428D01*
X86827857Y-113176428D02*
X86446905Y-113176428D01*
X87970714Y-113652619D02*
X87399286Y-113652619D01*
X87685000Y-113652619D02*
X87685000Y-112652619D01*
X87685000Y-112652619D02*
X87589762Y-112795476D01*
X87589762Y-112795476D02*
X87494524Y-112890714D01*
X87494524Y-112890714D02*
X87399286Y-112938333D01*
%TO.C,C11*%
X73363380Y-78300857D02*
X73411000Y-78348476D01*
X73411000Y-78348476D02*
X73458619Y-78491333D01*
X73458619Y-78491333D02*
X73458619Y-78586571D01*
X73458619Y-78586571D02*
X73411000Y-78729428D01*
X73411000Y-78729428D02*
X73315761Y-78824666D01*
X73315761Y-78824666D02*
X73220523Y-78872285D01*
X73220523Y-78872285D02*
X73030047Y-78919904D01*
X73030047Y-78919904D02*
X72887190Y-78919904D01*
X72887190Y-78919904D02*
X72696714Y-78872285D01*
X72696714Y-78872285D02*
X72601476Y-78824666D01*
X72601476Y-78824666D02*
X72506238Y-78729428D01*
X72506238Y-78729428D02*
X72458619Y-78586571D01*
X72458619Y-78586571D02*
X72458619Y-78491333D01*
X72458619Y-78491333D02*
X72506238Y-78348476D01*
X72506238Y-78348476D02*
X72553857Y-78300857D01*
X73458619Y-77348476D02*
X73458619Y-77919904D01*
X73458619Y-77634190D02*
X72458619Y-77634190D01*
X72458619Y-77634190D02*
X72601476Y-77729428D01*
X72601476Y-77729428D02*
X72696714Y-77824666D01*
X72696714Y-77824666D02*
X72744333Y-77919904D01*
X73458619Y-76396095D02*
X73458619Y-76967523D01*
X73458619Y-76681809D02*
X72458619Y-76681809D01*
X72458619Y-76681809D02*
X72601476Y-76777047D01*
X72601476Y-76777047D02*
X72696714Y-76872285D01*
X72696714Y-76872285D02*
X72744333Y-76967523D01*
%TO.C,R7*%
X69042619Y-66206666D02*
X68566428Y-66539999D01*
X69042619Y-66778094D02*
X68042619Y-66778094D01*
X68042619Y-66778094D02*
X68042619Y-66397142D01*
X68042619Y-66397142D02*
X68090238Y-66301904D01*
X68090238Y-66301904D02*
X68137857Y-66254285D01*
X68137857Y-66254285D02*
X68233095Y-66206666D01*
X68233095Y-66206666D02*
X68375952Y-66206666D01*
X68375952Y-66206666D02*
X68471190Y-66254285D01*
X68471190Y-66254285D02*
X68518809Y-66301904D01*
X68518809Y-66301904D02*
X68566428Y-66397142D01*
X68566428Y-66397142D02*
X68566428Y-66778094D01*
X68042619Y-65873332D02*
X68042619Y-65206666D01*
X68042619Y-65206666D02*
X69042619Y-65635237D01*
%TO.C,C13*%
X79357142Y-113687380D02*
X79309523Y-113735000D01*
X79309523Y-113735000D02*
X79166666Y-113782619D01*
X79166666Y-113782619D02*
X79071428Y-113782619D01*
X79071428Y-113782619D02*
X78928571Y-113735000D01*
X78928571Y-113735000D02*
X78833333Y-113639761D01*
X78833333Y-113639761D02*
X78785714Y-113544523D01*
X78785714Y-113544523D02*
X78738095Y-113354047D01*
X78738095Y-113354047D02*
X78738095Y-113211190D01*
X78738095Y-113211190D02*
X78785714Y-113020714D01*
X78785714Y-113020714D02*
X78833333Y-112925476D01*
X78833333Y-112925476D02*
X78928571Y-112830238D01*
X78928571Y-112830238D02*
X79071428Y-112782619D01*
X79071428Y-112782619D02*
X79166666Y-112782619D01*
X79166666Y-112782619D02*
X79309523Y-112830238D01*
X79309523Y-112830238D02*
X79357142Y-112877857D01*
X80309523Y-113782619D02*
X79738095Y-113782619D01*
X80023809Y-113782619D02*
X80023809Y-112782619D01*
X80023809Y-112782619D02*
X79928571Y-112925476D01*
X79928571Y-112925476D02*
X79833333Y-113020714D01*
X79833333Y-113020714D02*
X79738095Y-113068333D01*
X80642857Y-112782619D02*
X81261904Y-112782619D01*
X81261904Y-112782619D02*
X80928571Y-113163571D01*
X80928571Y-113163571D02*
X81071428Y-113163571D01*
X81071428Y-113163571D02*
X81166666Y-113211190D01*
X81166666Y-113211190D02*
X81214285Y-113258809D01*
X81214285Y-113258809D02*
X81261904Y-113354047D01*
X81261904Y-113354047D02*
X81261904Y-113592142D01*
X81261904Y-113592142D02*
X81214285Y-113687380D01*
X81214285Y-113687380D02*
X81166666Y-113735000D01*
X81166666Y-113735000D02*
X81071428Y-113782619D01*
X81071428Y-113782619D02*
X80785714Y-113782619D01*
X80785714Y-113782619D02*
X80690476Y-113735000D01*
X80690476Y-113735000D02*
X80642857Y-113687380D01*
%TO.C,R11*%
X61836619Y-73794857D02*
X61360428Y-74128190D01*
X61836619Y-74366285D02*
X60836619Y-74366285D01*
X60836619Y-74366285D02*
X60836619Y-73985333D01*
X60836619Y-73985333D02*
X60884238Y-73890095D01*
X60884238Y-73890095D02*
X60931857Y-73842476D01*
X60931857Y-73842476D02*
X61027095Y-73794857D01*
X61027095Y-73794857D02*
X61169952Y-73794857D01*
X61169952Y-73794857D02*
X61265190Y-73842476D01*
X61265190Y-73842476D02*
X61312809Y-73890095D01*
X61312809Y-73890095D02*
X61360428Y-73985333D01*
X61360428Y-73985333D02*
X61360428Y-74366285D01*
X61836619Y-72842476D02*
X61836619Y-73413904D01*
X61836619Y-73128190D02*
X60836619Y-73128190D01*
X60836619Y-73128190D02*
X60979476Y-73223428D01*
X60979476Y-73223428D02*
X61074714Y-73318666D01*
X61074714Y-73318666D02*
X61122333Y-73413904D01*
X61836619Y-71890095D02*
X61836619Y-72461523D01*
X61836619Y-72175809D02*
X60836619Y-72175809D01*
X60836619Y-72175809D02*
X60979476Y-72271047D01*
X60979476Y-72271047D02*
X61074714Y-72366285D01*
X61074714Y-72366285D02*
X61122333Y-72461523D01*
%TO.C,C3*%
X76033333Y-81999380D02*
X75985714Y-82047000D01*
X75985714Y-82047000D02*
X75842857Y-82094619D01*
X75842857Y-82094619D02*
X75747619Y-82094619D01*
X75747619Y-82094619D02*
X75604762Y-82047000D01*
X75604762Y-82047000D02*
X75509524Y-81951761D01*
X75509524Y-81951761D02*
X75461905Y-81856523D01*
X75461905Y-81856523D02*
X75414286Y-81666047D01*
X75414286Y-81666047D02*
X75414286Y-81523190D01*
X75414286Y-81523190D02*
X75461905Y-81332714D01*
X75461905Y-81332714D02*
X75509524Y-81237476D01*
X75509524Y-81237476D02*
X75604762Y-81142238D01*
X75604762Y-81142238D02*
X75747619Y-81094619D01*
X75747619Y-81094619D02*
X75842857Y-81094619D01*
X75842857Y-81094619D02*
X75985714Y-81142238D01*
X75985714Y-81142238D02*
X76033333Y-81189857D01*
X76366667Y-81094619D02*
X76985714Y-81094619D01*
X76985714Y-81094619D02*
X76652381Y-81475571D01*
X76652381Y-81475571D02*
X76795238Y-81475571D01*
X76795238Y-81475571D02*
X76890476Y-81523190D01*
X76890476Y-81523190D02*
X76938095Y-81570809D01*
X76938095Y-81570809D02*
X76985714Y-81666047D01*
X76985714Y-81666047D02*
X76985714Y-81904142D01*
X76985714Y-81904142D02*
X76938095Y-81999380D01*
X76938095Y-81999380D02*
X76890476Y-82047000D01*
X76890476Y-82047000D02*
X76795238Y-82094619D01*
X76795238Y-82094619D02*
X76509524Y-82094619D01*
X76509524Y-82094619D02*
X76414286Y-82047000D01*
X76414286Y-82047000D02*
X76366667Y-81999380D01*
%TO.C,R3*%
X79202619Y-66206666D02*
X78726428Y-66539999D01*
X79202619Y-66778094D02*
X78202619Y-66778094D01*
X78202619Y-66778094D02*
X78202619Y-66397142D01*
X78202619Y-66397142D02*
X78250238Y-66301904D01*
X78250238Y-66301904D02*
X78297857Y-66254285D01*
X78297857Y-66254285D02*
X78393095Y-66206666D01*
X78393095Y-66206666D02*
X78535952Y-66206666D01*
X78535952Y-66206666D02*
X78631190Y-66254285D01*
X78631190Y-66254285D02*
X78678809Y-66301904D01*
X78678809Y-66301904D02*
X78726428Y-66397142D01*
X78726428Y-66397142D02*
X78726428Y-66778094D01*
X78202619Y-65873332D02*
X78202619Y-65254285D01*
X78202619Y-65254285D02*
X78583571Y-65587618D01*
X78583571Y-65587618D02*
X78583571Y-65444761D01*
X78583571Y-65444761D02*
X78631190Y-65349523D01*
X78631190Y-65349523D02*
X78678809Y-65301904D01*
X78678809Y-65301904D02*
X78774047Y-65254285D01*
X78774047Y-65254285D02*
X79012142Y-65254285D01*
X79012142Y-65254285D02*
X79107380Y-65301904D01*
X79107380Y-65301904D02*
X79155000Y-65349523D01*
X79155000Y-65349523D02*
X79202619Y-65444761D01*
X79202619Y-65444761D02*
X79202619Y-65730475D01*
X79202619Y-65730475D02*
X79155000Y-65825713D01*
X79155000Y-65825713D02*
X79107380Y-65873332D01*
%TO.C,J4*%
X101266666Y-93652619D02*
X101266666Y-94366904D01*
X101266666Y-94366904D02*
X101219047Y-94509761D01*
X101219047Y-94509761D02*
X101123809Y-94605000D01*
X101123809Y-94605000D02*
X100980952Y-94652619D01*
X100980952Y-94652619D02*
X100885714Y-94652619D01*
X102171428Y-93985952D02*
X102171428Y-94652619D01*
X101933333Y-93605000D02*
X101695238Y-94319285D01*
X101695238Y-94319285D02*
X102314285Y-94319285D01*
D13*
%TO.C,U1*%
X91890000Y-71356400D02*
X94890000Y-71356400D01*
X91890000Y-69156400D02*
X94090000Y-69156400D01*
%TO.C,R2*%
X73072258Y-112282500D02*
X72597742Y-112282500D01*
X73072258Y-111237500D02*
X72597742Y-111237500D01*
%TO.C,R8*%
X65517500Y-62912258D02*
X65517500Y-62437742D01*
X66562500Y-62912258D02*
X66562500Y-62437742D01*
%TO.C,J6*%
X100270000Y-119066000D02*
X101600000Y-119066000D01*
X100270000Y-120396000D02*
X100270000Y-119066000D01*
X100270000Y-121666000D02*
X100270000Y-126806000D01*
X100270000Y-121666000D02*
X102930000Y-121666000D01*
X100270000Y-126806000D02*
X102930000Y-126806000D01*
X102930000Y-121666000D02*
X102930000Y-126806000D01*
%TO.C,U5*%
X91890000Y-92790000D02*
X94890000Y-92790000D01*
X91890000Y-90590000D02*
X94090000Y-90590000D01*
%TO.C,U4*%
G36*
X76873099Y-96710499D02*
G01*
X76619099Y-96710499D01*
X76619099Y-96329499D01*
X76873099Y-96329499D01*
X76873099Y-96710499D01*
G37*
%TO.C,C1*%
X78005000Y-96781252D02*
X78005000Y-96258748D01*
X79475000Y-96781252D02*
X79475000Y-96258748D01*
%TO.C,U2*%
X69790000Y-108010000D02*
X69790000Y-106680000D01*
X71120000Y-108010000D02*
X69790000Y-108010000D01*
X72390000Y-108010000D02*
X77530000Y-108010000D01*
X72390000Y-108010000D02*
X72390000Y-105350000D01*
X77530000Y-108010000D02*
X77530000Y-105350000D01*
X72390000Y-105350000D02*
X77530000Y-105350000D01*
%TO.C,R9*%
X62977500Y-62912258D02*
X62977500Y-62437742D01*
X64022500Y-62912258D02*
X64022500Y-62437742D01*
%TO.C,J2*%
X100270000Y-72330000D02*
X101600000Y-72330000D01*
X100270000Y-73660000D02*
X100270000Y-72330000D01*
X100270000Y-74930000D02*
X100270000Y-80070000D01*
X100270000Y-74930000D02*
X102930000Y-74930000D01*
X100270000Y-80070000D02*
X102930000Y-80070000D01*
X102930000Y-74930000D02*
X102930000Y-80070000D01*
%TO.C,R13*%
X56881500Y-88121258D02*
X56881500Y-87646742D01*
X57926500Y-88121258D02*
X57926500Y-87646742D01*
%TO.C,J8*%
X79950000Y-130870000D02*
X79950000Y-129540000D01*
X81280000Y-130870000D02*
X79950000Y-130870000D01*
X82550000Y-130870000D02*
X95310000Y-130870000D01*
X82550000Y-130870000D02*
X82550000Y-128210000D01*
X95310000Y-130870000D02*
X95310000Y-128210000D01*
X82550000Y-128210000D02*
X95310000Y-128210000D01*
%TO.C,C14*%
X93718748Y-65305000D02*
X94241252Y-65305000D01*
X93718748Y-66775000D02*
X94241252Y-66775000D01*
%TO.C,C16*%
X94668748Y-88165000D02*
X95191252Y-88165000D01*
X94668748Y-89635000D02*
X95191252Y-89635000D01*
%TO.C,C5*%
X83085000Y-84081252D02*
X83085000Y-83558748D01*
X84555000Y-84081252D02*
X84555000Y-83558748D01*
%TO.C,J7*%
X100270000Y-108398000D02*
X101600000Y-108398000D01*
X100270000Y-109728000D02*
X100270000Y-108398000D01*
X100270000Y-110998000D02*
X100270000Y-116138000D01*
X100270000Y-110998000D02*
X102930000Y-110998000D01*
X100270000Y-116138000D02*
X102930000Y-116138000D01*
X102930000Y-110998000D02*
X102930000Y-116138000D01*
D14*
%TO.C,U6*%
X74150000Y-86070000D02*
X74800000Y-86070000D01*
X74150000Y-86220000D02*
X74150000Y-86070000D01*
X74150000Y-89020000D02*
X74150000Y-89170000D01*
X74150000Y-89170000D02*
X74800000Y-89170000D01*
X76600000Y-86070000D02*
X77250000Y-86070000D01*
X76600000Y-89170000D02*
X77250000Y-89170000D01*
X77250000Y-86070000D02*
X77250000Y-86220000D01*
X77250000Y-89170000D02*
X77250000Y-89020000D01*
D15*
X73750000Y-86620000D02*
G75*
G03*
X73750000Y-86620000I-50000J0D01*
G01*
D13*
%TO.C,C10*%
X76481000Y-69923252D02*
X76481000Y-69400748D01*
X77951000Y-69923252D02*
X77951000Y-69400748D01*
%TO.C,C9*%
X73941000Y-69923252D02*
X73941000Y-69400748D01*
X75411000Y-69923252D02*
X75411000Y-69400748D01*
D16*
%TO.C,IC1*%
X70326000Y-73536000D02*
G75*
G03*
X70326000Y-73536000I-100000J0D01*
G01*
D13*
%TO.C,C8*%
X76481000Y-73855252D02*
X76481000Y-73332748D01*
X77951000Y-73855252D02*
X77951000Y-73332748D01*
%TO.C,J9*%
X58375000Y-59750000D02*
X58375000Y-58420000D01*
X59705000Y-59750000D02*
X58375000Y-59750000D01*
X60975000Y-59750000D02*
X78815000Y-59750000D01*
X60975000Y-59750000D02*
X60975000Y-57090000D01*
X78815000Y-59750000D02*
X78815000Y-57090000D01*
X60975000Y-57090000D02*
X78815000Y-57090000D01*
%TO.C,R5*%
X73137500Y-62912258D02*
X73137500Y-62437742D01*
X74182500Y-62912258D02*
X74182500Y-62437742D01*
%TO.C,C17*%
X87215000Y-117101252D02*
X87215000Y-116578748D01*
X88685000Y-117101252D02*
X88685000Y-116578748D01*
%TO.C,C18*%
X93718748Y-111025000D02*
X94241252Y-111025000D01*
X93718748Y-112495000D02*
X94241252Y-112495000D01*
%TO.C,C12*%
X76481000Y-77919252D02*
X76481000Y-77396748D01*
X77951000Y-77919252D02*
X77951000Y-77396748D01*
%TO.C,R15*%
X71642500Y-88662742D02*
X71642500Y-89137258D01*
X70597500Y-88662742D02*
X70597500Y-89137258D01*
%TO.C,C7*%
X73941000Y-73855252D02*
X73941000Y-73332748D01*
X75411000Y-73855252D02*
X75411000Y-73332748D01*
%TO.C,J5*%
X100270000Y-84537000D02*
X101600000Y-84537000D01*
X100270000Y-85867000D02*
X100270000Y-84537000D01*
X100270000Y-87137000D02*
X100270000Y-92277000D01*
X100270000Y-87137000D02*
X102930000Y-87137000D01*
X100270000Y-92277000D02*
X102930000Y-92277000D01*
X102930000Y-87137000D02*
X102930000Y-92277000D01*
%TO.C,R14*%
X70597500Y-94217258D02*
X70597500Y-93742742D01*
X71642500Y-94217258D02*
X71642500Y-93742742D01*
%TO.C,U7*%
X92880000Y-117428000D02*
X95880000Y-117428000D01*
X92880000Y-115228000D02*
X95080000Y-115228000D01*
%TO.C,C4*%
X80545000Y-84081252D02*
X80545000Y-83558748D01*
X82015000Y-84081252D02*
X82015000Y-83558748D01*
%TO.C,R4*%
X75677500Y-62912258D02*
X75677500Y-62437742D01*
X76722500Y-62912258D02*
X76722500Y-62437742D01*
%TO.C,R12*%
X56881500Y-84565258D02*
X56881500Y-84090742D01*
X57926500Y-84565258D02*
X57926500Y-84090742D01*
%TO.C,J3*%
X100270000Y-60138000D02*
X101600000Y-60138000D01*
X100270000Y-61468000D02*
X100270000Y-60138000D01*
X100270000Y-62738000D02*
X100270000Y-67878000D01*
X100270000Y-62738000D02*
X102930000Y-62738000D01*
X100270000Y-67878000D02*
X102930000Y-67878000D01*
X102930000Y-62738000D02*
X102930000Y-67878000D01*
%TO.C,C15*%
X85625000Y-92651252D02*
X85625000Y-92128748D01*
X87095000Y-92651252D02*
X87095000Y-92128748D01*
%TO.C,R6*%
X70597500Y-62912258D02*
X70597500Y-62437742D01*
X71642500Y-62912258D02*
X71642500Y-62437742D01*
%TO.C,C6*%
X80068748Y-88165000D02*
X80591252Y-88165000D01*
X80068748Y-89635000D02*
X80591252Y-89635000D01*
%TO.C,R10*%
X60437500Y-62912258D02*
X60437500Y-62437742D01*
X61482500Y-62912258D02*
X61482500Y-62437742D01*
%TO.C,U3*%
X82490000Y-108010000D02*
X82490000Y-106680000D01*
X83820000Y-108010000D02*
X82490000Y-108010000D01*
X85090000Y-108010000D02*
X90230000Y-108010000D01*
X85090000Y-108010000D02*
X85090000Y-105350000D01*
X90230000Y-108010000D02*
X90230000Y-105350000D01*
X85090000Y-105350000D02*
X90230000Y-105350000D01*
%TO.C,C2*%
X93291252Y-125195000D02*
X92768748Y-125195000D01*
X93291252Y-123725000D02*
X92768748Y-123725000D01*
%TO.C,R1*%
X87422258Y-112282500D02*
X86947742Y-112282500D01*
X87422258Y-111237500D02*
X86947742Y-111237500D01*
%TO.C,C11*%
X73941000Y-77919252D02*
X73941000Y-77396748D01*
X75411000Y-77919252D02*
X75411000Y-77396748D01*
%TO.C,R7*%
X68057500Y-62912258D02*
X68057500Y-62437742D01*
X69102500Y-62912258D02*
X69102500Y-62437742D01*
%TO.C,C13*%
X79738748Y-114265000D02*
X80261252Y-114265000D01*
X79738748Y-115735000D02*
X80261252Y-115735000D01*
%TO.C,R11*%
X60466500Y-72914742D02*
X60466500Y-73389258D01*
X59421500Y-72914742D02*
X59421500Y-73389258D01*
%TO.C,C3*%
X75938748Y-82577000D02*
X76461252Y-82577000D01*
X75938748Y-84047000D02*
X76461252Y-84047000D01*
%TO.C,R3*%
X78217500Y-62912258D02*
X78217500Y-62437742D01*
X79262500Y-62912258D02*
X79262500Y-62437742D01*
%TO.C,J4*%
X100270000Y-95190000D02*
X101600000Y-95190000D01*
X100270000Y-96520000D02*
X100270000Y-95190000D01*
X100270000Y-97790000D02*
X100270000Y-102930000D01*
X100270000Y-97790000D02*
X102930000Y-97790000D01*
X100270000Y-102930000D02*
X102930000Y-102930000D01*
X102930000Y-97790000D02*
X102930000Y-102930000D01*
%TD*%
%LPC*%
D17*
%TO.C,U1*%
X94540000Y-71006400D03*
X94540000Y-70506400D03*
X94540000Y-70006400D03*
X94540000Y-69506400D03*
X91440000Y-69506400D03*
X91440000Y-70006400D03*
X91440000Y-70506400D03*
X91440000Y-71006400D03*
%TD*%
D18*
%TO.C,R2*%
X73660000Y-111760000D03*
X72010000Y-111760000D03*
%TD*%
D19*
%TO.C,R8*%
X66040000Y-63500000D03*
X66040000Y-61850000D03*
%TD*%
D20*
%TO.C,J6*%
X101600000Y-120396000D03*
D21*
X101600000Y-122936000D03*
X101600000Y-125476000D03*
%TD*%
D17*
%TO.C,U5*%
X94540000Y-92440000D03*
X94540000Y-91940000D03*
X94540000Y-91440000D03*
X94540000Y-90940000D03*
X91440000Y-90940000D03*
X91440000Y-91440000D03*
X91440000Y-91940000D03*
X91440000Y-92440000D03*
%TD*%
D22*
%TO.C,U4*%
X74680201Y-96519999D03*
X74680201Y-97020000D03*
X74680201Y-97520000D03*
X74680201Y-98020001D03*
D23*
X75190100Y-98029899D03*
X75690100Y-98029899D03*
D22*
X76199999Y-98020001D03*
X76199999Y-97520000D03*
X76199999Y-97020000D03*
X76199999Y-96519999D03*
D23*
X75690100Y-96510101D03*
X75190100Y-96510101D03*
%TD*%
D24*
%TO.C,C1*%
X78740000Y-97470000D03*
X78740000Y-95570000D03*
%TD*%
D20*
%TO.C,U2*%
X71120000Y-106680000D03*
D21*
X73660000Y-106680000D03*
X76200000Y-106680000D03*
%TD*%
D19*
%TO.C,R9*%
X63500000Y-63500000D03*
X63500000Y-61850000D03*
%TD*%
D20*
%TO.C,J2*%
X101600000Y-73660000D03*
D21*
X101600000Y-76200000D03*
X101600000Y-78740000D03*
%TD*%
D19*
%TO.C,R13*%
X57404000Y-88709000D03*
X57404000Y-87059000D03*
%TD*%
D20*
%TO.C,J8*%
X81280000Y-129540000D03*
D21*
X83820000Y-129540000D03*
X86360000Y-129540000D03*
X88900000Y-129540000D03*
X91440000Y-129540000D03*
X93980000Y-129540000D03*
%TD*%
D25*
%TO.C,C14*%
X93030000Y-66040000D03*
X94930000Y-66040000D03*
%TD*%
%TO.C,C16*%
X93980000Y-88900000D03*
X95880000Y-88900000D03*
%TD*%
D24*
%TO.C,C5*%
X83820000Y-84770000D03*
X83820000Y-82870000D03*
%TD*%
D20*
%TO.C,J7*%
X101600000Y-109728000D03*
D21*
X101600000Y-112268000D03*
X101600000Y-114808000D03*
%TD*%
D26*
%TO.C,U6*%
X74440000Y-86620000D03*
X74440000Y-87120000D03*
X74440000Y-87620000D03*
X74440000Y-88120000D03*
X74440000Y-88620000D03*
D27*
X75200000Y-88880000D03*
X75700000Y-88880000D03*
X76200000Y-88880000D03*
D28*
X76960000Y-88620000D03*
X76960000Y-88120000D03*
X76960000Y-87620000D03*
X76960000Y-87120000D03*
X76960000Y-86620000D03*
D29*
X76200000Y-86360000D03*
X75700000Y-86360000D03*
X75200000Y-86360000D03*
%TD*%
D24*
%TO.C,C10*%
X77216000Y-70612000D03*
X77216000Y-68712000D03*
%TD*%
%TO.C,C9*%
X74676000Y-70612000D03*
X74676000Y-68712000D03*
%TD*%
D30*
%TO.C,IC1*%
X69826000Y-72936000D03*
X69826000Y-72536000D03*
X69826000Y-72136000D03*
X69826000Y-71736000D03*
X69826000Y-71336000D03*
D31*
X69126000Y-70636000D03*
X68726000Y-70636000D03*
X68326000Y-70636000D03*
X67926000Y-70636000D03*
X67526000Y-70636000D03*
D30*
X66826000Y-71336000D03*
X66826000Y-71736000D03*
X66826000Y-72136000D03*
X66826000Y-72536000D03*
X66826000Y-72936000D03*
D31*
X67526000Y-73636000D03*
X67926000Y-73636000D03*
X68326000Y-73636000D03*
X68726000Y-73636000D03*
X69126000Y-73636000D03*
D32*
X68326000Y-72136000D03*
%TD*%
D24*
%TO.C,C8*%
X77216000Y-74544000D03*
X77216000Y-72644000D03*
%TD*%
D20*
%TO.C,J9*%
X59705000Y-58420000D03*
D21*
X62245000Y-58420000D03*
X64785000Y-58420000D03*
X67325000Y-58420000D03*
X69865000Y-58420000D03*
X72405000Y-58420000D03*
X74945000Y-58420000D03*
X77485000Y-58420000D03*
%TD*%
D19*
%TO.C,R5*%
X73660000Y-63500000D03*
X73660000Y-61850000D03*
%TD*%
D24*
%TO.C,C17*%
X87950000Y-117790000D03*
X87950000Y-115890000D03*
%TD*%
D25*
%TO.C,C18*%
X93030000Y-111760000D03*
X94930000Y-111760000D03*
%TD*%
D24*
%TO.C,C12*%
X77216000Y-78608000D03*
X77216000Y-76708000D03*
%TD*%
D33*
%TO.C,R15*%
X71120000Y-88075000D03*
X71120000Y-89725000D03*
%TD*%
D24*
%TO.C,C7*%
X74676000Y-74544000D03*
X74676000Y-72644000D03*
%TD*%
D20*
%TO.C,J5*%
X101600000Y-85867000D03*
D21*
X101600000Y-88407000D03*
X101600000Y-90947000D03*
%TD*%
D19*
%TO.C,R14*%
X71120000Y-94805000D03*
X71120000Y-93155000D03*
%TD*%
D17*
%TO.C,U7*%
X95530000Y-117078000D03*
X95530000Y-116578000D03*
X95530000Y-116078000D03*
X95530000Y-115578000D03*
X92430000Y-115578000D03*
X92430000Y-116078000D03*
X92430000Y-116578000D03*
X92430000Y-117078000D03*
%TD*%
D24*
%TO.C,C4*%
X81280000Y-84770000D03*
X81280000Y-82870000D03*
%TD*%
D19*
%TO.C,R4*%
X76200000Y-63500000D03*
X76200000Y-61850000D03*
%TD*%
%TO.C,R12*%
X57404000Y-85153000D03*
X57404000Y-83503000D03*
%TD*%
D20*
%TO.C,J3*%
X101600000Y-61468000D03*
D21*
X101600000Y-64008000D03*
X101600000Y-66548000D03*
%TD*%
D24*
%TO.C,C15*%
X86360000Y-93340000D03*
X86360000Y-91440000D03*
%TD*%
D19*
%TO.C,R6*%
X71120000Y-63500000D03*
X71120000Y-61850000D03*
%TD*%
D25*
%TO.C,C6*%
X79380000Y-88900000D03*
X81280000Y-88900000D03*
%TD*%
D19*
%TO.C,R10*%
X60960000Y-63500000D03*
X60960000Y-61850000D03*
%TD*%
D20*
%TO.C,U3*%
X83820000Y-106680000D03*
D21*
X86360000Y-106680000D03*
X88900000Y-106680000D03*
%TD*%
D34*
%TO.C,C2*%
X93980000Y-124460000D03*
X92080000Y-124460000D03*
%TD*%
D18*
%TO.C,R1*%
X88010000Y-111760000D03*
X86360000Y-111760000D03*
%TD*%
D24*
%TO.C,C11*%
X74676000Y-78608000D03*
X74676000Y-76708000D03*
%TD*%
D19*
%TO.C,R7*%
X68580000Y-63500000D03*
X68580000Y-61850000D03*
%TD*%
D25*
%TO.C,C13*%
X79050000Y-115000000D03*
X80950000Y-115000000D03*
%TD*%
D33*
%TO.C,R11*%
X59944000Y-72327000D03*
X59944000Y-73977000D03*
%TD*%
D25*
%TO.C,C3*%
X75250000Y-83312000D03*
X77150000Y-83312000D03*
%TD*%
D19*
%TO.C,R3*%
X78740000Y-63500000D03*
X78740000Y-61850000D03*
%TD*%
D20*
%TO.C,J4*%
X101600000Y-96520000D03*
D21*
X101600000Y-99060000D03*
X101600000Y-101600000D03*
%TD*%
D20*
%TO.C,J1*%
X60960000Y-78740000D03*
D21*
X63500000Y-78740000D03*
X60960000Y-81280000D03*
X63500000Y-81280000D03*
X60960000Y-83820000D03*
X63500000Y-83820000D03*
X60960000Y-86360000D03*
X63500000Y-86360000D03*
X60960000Y-88900000D03*
X63500000Y-88900000D03*
X60960000Y-91440000D03*
X63500000Y-91440000D03*
X60960000Y-93980000D03*
X63500000Y-93980000D03*
X60960000Y-96520000D03*
X63500000Y-96520000D03*
X60960000Y-99060000D03*
X63500000Y-99060000D03*
X60960000Y-101600000D03*
X63500000Y-101600000D03*
X60960000Y-104140000D03*
X63500000Y-104140000D03*
X60960000Y-106680000D03*
X63500000Y-106680000D03*
X60960000Y-109220000D03*
X63500000Y-109220000D03*
X60960000Y-111760000D03*
X63500000Y-111760000D03*
X60960000Y-114300000D03*
X63500000Y-114300000D03*
X60960000Y-116840000D03*
X63500000Y-116840000D03*
X60960000Y-119380000D03*
X63500000Y-119380000D03*
X60960000Y-121920000D03*
X63500000Y-121920000D03*
X60960000Y-124460000D03*
X63500000Y-124460000D03*
X60960000Y-127000000D03*
X63500000Y-127000000D03*
%TD*%
M02*
